M48
;Layer_Color=9474304
;FILE_FORMAT=2:5
INCH,LZ
;TYPE=NON_PLATED
T1F00S00C0.01264
T2F00S00C0.01421
T3F00S00C0.01594
T4F00S00C0.01791
T5F00S00C0.02012
T6F00S00C0.02256
T7F00S00C0.02535
T8F00S00C0.02846
T9F00S00C0.03197
T10F00S00C0.03591
T11F00S00C0.04016
T12F00S00C0.04528
T13F00S00C0.05079
T14F00S00C0.05709
T15F00S00C0.06417
T16F00S00C0.07205
T17F00S00C0.08071
T18F00S00C0.09055
T19F00S00C0.10197
T20F00S00C0.11457
T21F00S00C0.12835
%
T01
X043Y0075368
T02
X0436Y0075289
T03
X0442Y0075203
T04
X0448Y0075104
T05
X0454Y0074994
T06
X046Y0074872
T07
X0466Y0074732
T08
X0472Y0074577
T09
X0478171Y0074402
T10
X0484715Y0074205
T11
X0491667Y0073992
T12
X0499089Y0073736
T13
X0507041Y0073461
T14
X0515585Y0073146
T15
X0524797Y0072791
T16
X0534758Y0072398
T17
X0545545Y0071965
T18
X0557258Y0071472
T19
X0570033Y0070902
T20
X058401Y0070272
T21
X0599305Y0069583
M30
