G04*
G04 #@! TF.GenerationSoftware,Altium Limited,Altium Designer,19.0.14 (431)*
G04*
G04 Layer_Color=8421504*
%FSLAX44Y44*%
%MOMM*%
G71*
G01*
G75*
%ADD17R,0.6000X0.5001*%
%ADD18R,5.3340X1.9304*%
%ADD19R,12.2001X9.7500*%
%ADD20R,1.6000X3.5001*%
%ADD21R,1.1999X1.8001*%
%ADD22R,0.5799X1.1999*%
%ADD23R,2.0000X2.0000*%
%ADD24R,0.8001X0.8999*%
%ADD25R,0.5499X1.1999*%
%ADD26R,0.4001X0.7501*%
%ADD27R,1.2192X2.2352*%
%ADD28R,3.5999X2.1999*%
%ADD29R,2.1001X1.4001*%
%ADD30R,0.8999X0.6000*%
%ADD31R,1.3000X1.1999*%
%ADD32R,1.6000X0.8999*%
%ADD33R,2.8001X1.0000*%
%ADD34R,2.8001X1.0000*%
%ADD35R,0.3500X0.3500*%
%ADD36R,1.1999X0.8001*%
%ADD37R,0.8301X0.6299*%
%ADD38R,1.8001X1.4001*%
%ADD39R,1.4699X1.2700*%
%ADD40R,2.4001X2.4001*%
%ADD41R,3.8001X2.8001*%
%ADD42R,1.6000X3.0000*%
%ADD43R,4.8260X5.7150*%
%ADD44R,1.1430X0.2540*%
%ADD45R,0.2540X1.1430*%
%ADD46R,2.2098X0.6096*%
%ADD47R,0.8001X0.2499*%
%ADD48R,0.2499X0.8001*%
%ADD49R,1.6000X0.3500*%
%ADD50R,0.3000X0.3000*%
%ADD51R,1.0000X1.4001*%
%ADD52R,0.8999X1.0500*%
%ADD53R,1.1999X1.4001*%
G36*
X628259Y85781D02*
X624261D01*
Y93279D01*
X628259D01*
Y85781D01*
D02*
G37*
G36*
X615259D02*
X611261D01*
Y93279D01*
X615259D01*
Y85781D01*
D02*
G37*
G36*
X628142Y69596D02*
X624840D01*
Y76454D01*
X628142D01*
Y69596D01*
D02*
G37*
G36*
X621411D02*
X618109D01*
Y76454D01*
X621411D01*
Y69596D01*
D02*
G37*
G36*
X614680D02*
X611378D01*
Y76454D01*
X614680D01*
Y69596D01*
D02*
G37*
D17*
X205740Y55959D02*
D03*
Y65961D02*
D03*
Y96599D02*
D03*
Y106601D02*
D03*
D18*
X955040Y78740D02*
D03*
X1051560D02*
D03*
D19*
X850900Y162240D02*
D03*
D20*
X876300Y59489D02*
D03*
X825500D02*
D03*
D21*
X957133Y148910D02*
D03*
X933135Y188910D02*
D03*
Y148910D02*
D03*
X957133Y188910D02*
D03*
D22*
X660639Y162339D02*
D03*
X675640D02*
D03*
X690641D02*
D03*
D23*
X675640Y193340D02*
D03*
D24*
X619760Y198961D02*
D03*
X629260Y177960D02*
D03*
X610260D02*
D03*
D25*
Y121618D02*
D03*
X619760D02*
D03*
X629260D02*
D03*
Y147622D02*
D03*
X610260D02*
D03*
D26*
X613260Y73030D02*
D03*
X619760D02*
D03*
X626260D02*
D03*
Y89530D02*
D03*
X613260D02*
D03*
D27*
X652526Y65532D02*
D03*
X675640D02*
D03*
X698754D02*
D03*
D28*
X675640Y127510D02*
D03*
D29*
X426720Y104803D02*
D03*
Y60805D02*
D03*
D30*
X220980Y91051D02*
D03*
Y106053D02*
D03*
Y56253D02*
D03*
Y71255D02*
D03*
D31*
X236220Y82210D02*
D03*
Y103210D02*
D03*
D32*
X255778Y75669D02*
D03*
Y104671D02*
D03*
D33*
X282956Y104155D02*
D03*
Y74153D02*
D03*
D34*
X316230Y58280D02*
D03*
Y104280D02*
D03*
D35*
X345440Y55227D02*
D03*
Y68725D02*
D03*
D36*
X360680Y57531D02*
D03*
Y73533D02*
D03*
D37*
X378460Y79573D02*
D03*
Y56571D02*
D03*
D38*
X398780Y60470D02*
D03*
Y94470D02*
D03*
D39*
X458724Y103035D02*
D03*
Y60033D02*
D03*
D40*
X497840Y65631D02*
D03*
Y109629D02*
D03*
D41*
X553466Y67394D02*
D03*
Y141394D02*
D03*
D42*
X726501Y87869D02*
D03*
X772099D02*
D03*
D43*
X749300Y156850D02*
D03*
D44*
X1176579Y157201D02*
D03*
Y152199D02*
D03*
Y147201D02*
D03*
Y142199D02*
D03*
Y137201D02*
D03*
Y132199D02*
D03*
Y127201D02*
D03*
Y122199D02*
D03*
X1246581D02*
D03*
Y127201D02*
D03*
Y132199D02*
D03*
Y137201D02*
D03*
Y142199D02*
D03*
Y147201D02*
D03*
Y152199D02*
D03*
Y157201D02*
D03*
D45*
X1194079Y104699D02*
D03*
X1199081D02*
D03*
X1204079D02*
D03*
X1209081D02*
D03*
X1214079D02*
D03*
X1219081D02*
D03*
X1224079D02*
D03*
X1229081D02*
D03*
Y174701D02*
D03*
X1224079D02*
D03*
X1219081D02*
D03*
X1214079D02*
D03*
X1209081D02*
D03*
X1204079D02*
D03*
X1199081D02*
D03*
X1194079D02*
D03*
D46*
X1185418Y87630D02*
D03*
Y74930D02*
D03*
Y62230D02*
D03*
Y49530D02*
D03*
X1237742D02*
D03*
Y62230D02*
D03*
Y74930D02*
D03*
Y87630D02*
D03*
D47*
X1107760Y159819D02*
D03*
Y154821D02*
D03*
Y149819D02*
D03*
Y144821D02*
D03*
Y139819D02*
D03*
Y134821D02*
D03*
X1147760D02*
D03*
Y139819D02*
D03*
Y144821D02*
D03*
Y149819D02*
D03*
Y154821D02*
D03*
Y159819D02*
D03*
D48*
X1115261Y127320D02*
D03*
X1120259D02*
D03*
X1125261D02*
D03*
X1130259D02*
D03*
X1135261D02*
D03*
X1140259D02*
D03*
Y167320D02*
D03*
X1135261D02*
D03*
X1130259D02*
D03*
X1125261D02*
D03*
X1120259D02*
D03*
X1115261D02*
D03*
D49*
X1099261Y100990D02*
D03*
Y94490D02*
D03*
Y87991D02*
D03*
Y81491D02*
D03*
Y74991D02*
D03*
Y68491D02*
D03*
Y61991D02*
D03*
Y55489D02*
D03*
X1158260D02*
D03*
Y61991D02*
D03*
Y68491D02*
D03*
Y74991D02*
D03*
Y81491D02*
D03*
Y87991D02*
D03*
Y94490D02*
D03*
Y100990D02*
D03*
D50*
X190500Y78280D02*
D03*
Y84280D02*
D03*
Y54912D02*
D03*
Y60912D02*
D03*
Y101648D02*
D03*
Y107648D02*
D03*
D51*
X1055761Y127000D02*
D03*
X1072759D02*
D03*
D52*
X1071784Y176962D02*
D03*
X1059784Y192862D02*
D03*
Y176962D02*
D03*
X1071784Y192862D02*
D03*
D53*
X998880Y166817D02*
D03*
Y190815D02*
D03*
X1017880Y166817D02*
D03*
Y190815D02*
D03*
M02*
