G04*
G04 #@! TF.GenerationSoftware,Altium Limited,Altium Designer,19.0.14 (431)*
G04*
G04 Layer_Physical_Order=1*
G04 Layer_Color=255*
%FSLAX44Y44*%
%MOMM*%
G71*
G01*
G75*
%ADD17R,0.6000X0.5001*%
%ADD18R,5.3340X1.9304*%
%ADD19R,12.2001X9.7500*%
%ADD20R,1.6000X3.5001*%
%ADD21R,1.1999X1.8001*%
%ADD22R,0.5799X1.1999*%
%ADD23R,2.0000X2.0000*%
%ADD24R,0.8001X0.8999*%
%ADD25R,0.5499X1.1999*%
%ADD26R,0.4001X0.7501*%
%ADD27R,1.2192X2.2352*%
%ADD28R,3.5999X2.1999*%
%ADD29R,2.1001X1.4001*%
%ADD30R,0.8999X0.6000*%
%ADD31R,1.3000X1.1999*%
%ADD32R,1.6000X0.8999*%
%ADD33R,2.8001X1.0000*%
%ADD34R,2.8001X1.0000*%
%ADD35R,0.3500X0.3500*%
%ADD36R,1.1999X0.8001*%
%ADD37R,0.8301X0.6299*%
%ADD38R,1.8001X1.4001*%
%ADD39R,1.4699X1.2700*%
%ADD40R,2.4001X2.4001*%
%ADD41R,3.8001X2.8001*%
%ADD42R,1.6000X3.0000*%
%ADD43R,4.8260X5.7150*%
%ADD44R,1.1430X0.2540*%
%ADD45R,0.2540X1.1430*%
%ADD46R,2.2098X0.6096*%
%ADD47R,0.8001X0.2499*%
%ADD48R,0.2499X0.8001*%
%ADD49R,1.6000X0.3500*%
%ADD50R,0.3000X0.3000*%
%ADD51R,1.0000X1.4001*%
%ADD52R,0.8999X1.0500*%
%ADD53R,1.1999X1.4001*%
%ADD112C,3.2601*%
%ADD113C,2.9101*%
%ADD114C,2.5900*%
%ADD115C,2.3000*%
%ADD116C,2.0500*%
%ADD117C,1.8301*%
%ADD118C,1.6299*%
%ADD119C,1.4501*%
%ADD120C,1.2901*%
%ADD121C,1.1501*%
%ADD122C,1.0201*%
%ADD123C,0.9121*%
%ADD124C,0.8120*%
%ADD125C,0.7229*%
%ADD126C,0.6439*%
%ADD127C,0.5730*%
%ADD128C,0.5111*%
%ADD129C,0.4549*%
%ADD130C,0.4049*%
%ADD131C,0.3609*%
%ADD132C,0.3211*%
G36*
X1506451Y238999D02*
X1503449D01*
Y254000D01*
X1506451D01*
Y238999D01*
D02*
G37*
G36*
X1474701D02*
X1471699D01*
Y254000D01*
X1474701D01*
Y238999D01*
D02*
G37*
G36*
X1442951D02*
X1439949D01*
Y254000D01*
X1442951D01*
Y238999D01*
D02*
G37*
G36*
X1379451D02*
X1376449D01*
Y254000D01*
X1379451D01*
Y238999D01*
D02*
G37*
G36*
X1347701D02*
X1344699D01*
Y254000D01*
X1347701D01*
Y238999D01*
D02*
G37*
G36*
X1315951D02*
X1312949D01*
Y254000D01*
X1315951D01*
Y238999D01*
D02*
G37*
G36*
X1252451D02*
X1249449D01*
Y254000D01*
X1252451D01*
Y238999D01*
D02*
G37*
G36*
X1220701D02*
X1217699D01*
Y254000D01*
X1220701D01*
Y238999D01*
D02*
G37*
G36*
X1188951D02*
X1185949D01*
Y254000D01*
X1188951D01*
Y238999D01*
D02*
G37*
G36*
X1125451D02*
X1122449D01*
Y254000D01*
X1125451D01*
Y238999D01*
D02*
G37*
G36*
X1093701D02*
X1090699D01*
Y254000D01*
X1093701D01*
Y238999D01*
D02*
G37*
G36*
X1061951D02*
X1058949D01*
Y254000D01*
X1061951D01*
Y238999D01*
D02*
G37*
G36*
X998451D02*
X995449D01*
Y254000D01*
X998451D01*
Y238999D01*
D02*
G37*
G36*
X966701D02*
X963699D01*
Y254000D01*
X966701D01*
Y238999D01*
D02*
G37*
G36*
X934951D02*
X931949D01*
Y254000D01*
X934951D01*
Y238999D01*
D02*
G37*
G36*
X871451D02*
X868449D01*
Y254000D01*
X871451D01*
Y238999D01*
D02*
G37*
G36*
X839701D02*
X836699D01*
Y254000D01*
X839701D01*
Y238999D01*
D02*
G37*
G36*
X807951D02*
X804949D01*
Y254000D01*
X807951D01*
Y238999D01*
D02*
G37*
G36*
X744451D02*
X741449D01*
Y254000D01*
X744451D01*
Y238999D01*
D02*
G37*
G36*
X712701D02*
X709699D01*
Y254000D01*
X712701D01*
Y238999D01*
D02*
G37*
G36*
X680951D02*
X677949D01*
Y254000D01*
X680951D01*
Y238999D01*
D02*
G37*
G36*
X617451D02*
X614449D01*
Y254000D01*
X617451D01*
Y238999D01*
D02*
G37*
G36*
X585701D02*
X582699D01*
Y254000D01*
X585701D01*
Y238999D01*
D02*
G37*
G36*
X553951D02*
X550949D01*
Y254000D01*
X553951D01*
Y238999D01*
D02*
G37*
G36*
X490451D02*
X487449D01*
Y254000D01*
X490451D01*
Y238999D01*
D02*
G37*
G36*
X458701D02*
X455699D01*
Y254000D01*
X458701D01*
Y238999D01*
D02*
G37*
G36*
X426951D02*
X423949D01*
Y254000D01*
X426951D01*
Y238999D01*
D02*
G37*
G36*
X363451D02*
X360449D01*
Y254000D01*
X363451D01*
Y238999D01*
D02*
G37*
G36*
X331701D02*
X328699D01*
Y254000D01*
X331701D01*
Y238999D01*
D02*
G37*
G36*
X299951D02*
X296949D01*
Y254000D01*
X299951D01*
Y238999D01*
D02*
G37*
G36*
X236451D02*
X233449D01*
Y254000D01*
X236451D01*
Y238999D01*
D02*
G37*
G36*
X204701D02*
X201699D01*
Y254000D01*
X204701D01*
Y238999D01*
D02*
G37*
G36*
X172951D02*
X169949D01*
Y254000D01*
X172951D01*
Y238999D01*
D02*
G37*
G36*
X109451D02*
X106449D01*
Y254000D01*
X109451D01*
Y238999D01*
D02*
G37*
G36*
X77701D02*
X74699D01*
Y254000D01*
X77701D01*
Y238999D01*
D02*
G37*
G36*
X45951D02*
X42949D01*
Y254000D01*
X45951D01*
Y238999D01*
D02*
G37*
G36*
X1411201Y228999D02*
X1408199D01*
Y254000D01*
X1411201D01*
Y228999D01*
D02*
G37*
G36*
X1157201D02*
X1154199D01*
Y254000D01*
X1157201D01*
Y228999D01*
D02*
G37*
G36*
X903201D02*
X900199D01*
Y254000D01*
X903201D01*
Y228999D01*
D02*
G37*
G36*
X649201D02*
X646199D01*
Y254000D01*
X649201D01*
Y228999D01*
D02*
G37*
G36*
X395201D02*
X392199D01*
Y254000D01*
X395201D01*
Y228999D01*
D02*
G37*
G36*
X141201D02*
X138199D01*
Y254000D01*
X141201D01*
Y228999D01*
D02*
G37*
G36*
X1538201Y218999D02*
X1535199D01*
Y254000D01*
X1538201D01*
Y218999D01*
D02*
G37*
G36*
X1284201D02*
X1281199D01*
Y254000D01*
X1284201D01*
Y218999D01*
D02*
G37*
G36*
X1030201D02*
X1027199D01*
Y254000D01*
X1030201D01*
Y218999D01*
D02*
G37*
G36*
X776201D02*
X773199D01*
Y254000D01*
X776201D01*
Y218999D01*
D02*
G37*
G36*
X522201D02*
X519199D01*
Y254000D01*
X522201D01*
Y218999D01*
D02*
G37*
G36*
X268201D02*
X265199D01*
Y254000D01*
X268201D01*
Y218999D01*
D02*
G37*
G36*
X14201D02*
X11199D01*
Y254000D01*
X14201D01*
Y218999D01*
D02*
G37*
G36*
X109220Y177038D02*
X15240D01*
Y178562D01*
X109220D01*
Y177038D01*
D02*
G37*
G36*
Y161544D02*
X15240D01*
Y163576D01*
X109220D01*
Y161544D01*
D02*
G37*
G36*
Y146050D02*
X15240D01*
Y148590D01*
X109220D01*
Y146050D01*
D02*
G37*
G36*
X1139759Y135321D02*
X1115761D01*
Y159319D01*
X1139759D01*
Y135321D01*
D02*
G37*
G36*
X109220Y130556D02*
X15240D01*
Y133604D01*
X109220D01*
Y130556D01*
D02*
G37*
G36*
Y114554D02*
X15240D01*
Y119126D01*
X109220D01*
Y114554D01*
D02*
G37*
G36*
Y98298D02*
X15240D01*
Y104394D01*
X109220D01*
Y98298D01*
D02*
G37*
G36*
Y82550D02*
X15240D01*
Y90170D01*
X109220D01*
Y82550D01*
D02*
G37*
G36*
Y66040D02*
X15240D01*
Y76200D01*
X109220D01*
Y66040D01*
D02*
G37*
G36*
X1513502Y0D02*
X1510502D01*
Y30000D01*
X1513502D01*
Y0D01*
D02*
G37*
G36*
X1503002D02*
X1501000D01*
Y10000D01*
X1503002D01*
Y0D01*
D02*
G37*
G36*
X1493002D02*
X1491000D01*
Y10000D01*
X1493002D01*
Y0D01*
D02*
G37*
G36*
X1483002D02*
X1481000D01*
Y10000D01*
X1483002D01*
Y0D01*
D02*
G37*
G36*
X1473002D02*
X1471000D01*
Y10000D01*
X1473002D01*
Y0D01*
D02*
G37*
G36*
X1463002D02*
X1461000D01*
Y20000D01*
X1463002D01*
Y0D01*
D02*
G37*
G36*
X1453002D02*
X1451000D01*
Y10000D01*
X1453002D01*
Y0D01*
D02*
G37*
G36*
X1443002D02*
X1441000D01*
Y10000D01*
X1443002D01*
Y0D01*
D02*
G37*
G36*
X1433002D02*
X1431000D01*
Y10000D01*
X1433002D01*
Y0D01*
D02*
G37*
G36*
X1423002D02*
X1421001D01*
Y10000D01*
X1423002D01*
Y0D01*
D02*
G37*
G36*
X1413502D02*
X1410500D01*
Y30000D01*
X1413502D01*
Y0D01*
D02*
G37*
G36*
X1403000D02*
X1400998D01*
Y10000D01*
X1403000D01*
Y0D01*
D02*
G37*
G36*
X1393000D02*
X1390998D01*
Y10000D01*
X1393000D01*
Y0D01*
D02*
G37*
G36*
X1383000D02*
X1380998D01*
Y10000D01*
X1383000D01*
Y0D01*
D02*
G37*
G36*
X1373000D02*
X1370998D01*
Y10000D01*
X1373000D01*
Y0D01*
D02*
G37*
G36*
X1363000D02*
X1360998D01*
Y20000D01*
X1363000D01*
Y0D01*
D02*
G37*
G36*
X1353000D02*
X1350998D01*
Y10000D01*
X1353000D01*
Y0D01*
D02*
G37*
G36*
X1343000D02*
X1340998D01*
Y10000D01*
X1343000D01*
Y0D01*
D02*
G37*
G36*
X1333000D02*
X1330998D01*
Y10000D01*
X1333000D01*
Y0D01*
D02*
G37*
G36*
X1323000D02*
X1320998D01*
Y10000D01*
X1323000D01*
Y0D01*
D02*
G37*
G36*
X1313500D02*
X1310498D01*
Y30000D01*
X1313500D01*
Y0D01*
D02*
G37*
G36*
X1303000D02*
X1300998D01*
Y10000D01*
X1303000D01*
Y0D01*
D02*
G37*
G36*
X1293000D02*
X1290998D01*
Y10000D01*
X1293000D01*
Y0D01*
D02*
G37*
G36*
X1283000D02*
X1280998D01*
Y10000D01*
X1283000D01*
Y0D01*
D02*
G37*
G36*
X1273000D02*
X1270998D01*
Y10000D01*
X1273000D01*
Y0D01*
D02*
G37*
G36*
X1263000D02*
X1260998D01*
Y20000D01*
X1263000D01*
Y0D01*
D02*
G37*
G36*
X1253000D02*
X1250998D01*
Y10000D01*
X1253000D01*
Y0D01*
D02*
G37*
G36*
X1243000D02*
X1240998D01*
Y10000D01*
X1243000D01*
Y0D01*
D02*
G37*
G36*
X1233000D02*
X1230998D01*
Y10000D01*
X1233000D01*
Y0D01*
D02*
G37*
G36*
X1223000D02*
X1220998D01*
Y10000D01*
X1223000D01*
Y0D01*
D02*
G37*
G36*
X1213500D02*
X1210498D01*
Y30000D01*
X1213500D01*
Y0D01*
D02*
G37*
G36*
X1203000D02*
X1200998D01*
Y10000D01*
X1203000D01*
Y0D01*
D02*
G37*
G36*
X1193000D02*
X1190998D01*
Y10000D01*
X1193000D01*
Y0D01*
D02*
G37*
G36*
X1183000D02*
X1180998D01*
Y10000D01*
X1183000D01*
Y0D01*
D02*
G37*
G36*
X1173000D02*
X1170998D01*
Y10000D01*
X1173000D01*
Y0D01*
D02*
G37*
G36*
X1163000D02*
X1160998D01*
Y20000D01*
X1163000D01*
Y0D01*
D02*
G37*
G36*
X1153000D02*
X1150999D01*
Y10000D01*
X1153000D01*
Y0D01*
D02*
G37*
G36*
X1143000D02*
X1140999D01*
Y10000D01*
X1143000D01*
Y0D01*
D02*
G37*
G36*
X1133000D02*
X1130999D01*
Y10000D01*
X1133000D01*
Y0D01*
D02*
G37*
G36*
X1123000D02*
X1120999D01*
Y10000D01*
X1123000D01*
Y0D01*
D02*
G37*
G36*
X1113500D02*
X1110498D01*
Y30000D01*
X1113500D01*
Y0D01*
D02*
G37*
G36*
X1103000D02*
X1100999D01*
Y10000D01*
X1103000D01*
Y0D01*
D02*
G37*
G36*
X1093000D02*
X1090999D01*
Y10000D01*
X1093000D01*
Y0D01*
D02*
G37*
G36*
X1083000D02*
X1080999D01*
Y10000D01*
X1083000D01*
Y0D01*
D02*
G37*
G36*
X1073000D02*
X1070999D01*
Y10000D01*
X1073000D01*
Y0D01*
D02*
G37*
G36*
X1063000D02*
X1060999D01*
Y20000D01*
X1063000D01*
Y0D01*
D02*
G37*
G36*
X1053000D02*
X1050999D01*
Y10000D01*
X1053000D01*
Y0D01*
D02*
G37*
G36*
X1043000D02*
X1040999D01*
Y10000D01*
X1043000D01*
Y0D01*
D02*
G37*
G36*
X1033000D02*
X1030999D01*
Y10000D01*
X1033000D01*
Y0D01*
D02*
G37*
G36*
X1023000D02*
X1020999D01*
Y10000D01*
X1023000D01*
Y0D01*
D02*
G37*
G36*
X1013501D02*
X1010498D01*
Y30000D01*
X1013501D01*
Y0D01*
D02*
G37*
G36*
X1003000D02*
X1000999D01*
Y10000D01*
X1003000D01*
Y0D01*
D02*
G37*
G36*
X993000D02*
X990999D01*
Y10000D01*
X993000D01*
Y0D01*
D02*
G37*
G36*
X983000D02*
X980999D01*
Y10000D01*
X983000D01*
Y0D01*
D02*
G37*
G36*
X973000D02*
X970999D01*
Y10000D01*
X973000D01*
Y0D01*
D02*
G37*
G36*
X963000D02*
X960999D01*
Y20000D01*
X963000D01*
Y0D01*
D02*
G37*
G36*
X953000D02*
X950999D01*
Y10000D01*
X953000D01*
Y0D01*
D02*
G37*
G36*
X943000D02*
X940999D01*
Y10000D01*
X943000D01*
Y0D01*
D02*
G37*
G36*
X933000D02*
X930999D01*
Y10000D01*
X933000D01*
Y0D01*
D02*
G37*
G36*
X923000D02*
X920999D01*
Y10000D01*
X923000D01*
Y0D01*
D02*
G37*
G36*
X913501D02*
X910499D01*
Y30000D01*
X913501D01*
Y0D01*
D02*
G37*
G36*
X903000D02*
X900999D01*
Y10000D01*
X903000D01*
Y0D01*
D02*
G37*
G36*
X893000D02*
X890999D01*
Y10000D01*
X893000D01*
Y0D01*
D02*
G37*
G36*
X883000D02*
X880999D01*
Y10000D01*
X883000D01*
Y0D01*
D02*
G37*
G36*
X873000D02*
X870999D01*
Y10000D01*
X873000D01*
Y0D01*
D02*
G37*
G36*
X863001D02*
X860999D01*
Y20000D01*
X863001D01*
Y0D01*
D02*
G37*
G36*
X853001D02*
X850999D01*
Y10000D01*
X853001D01*
Y0D01*
D02*
G37*
G36*
X843001D02*
X840999D01*
Y10000D01*
X843001D01*
Y0D01*
D02*
G37*
G36*
X833001D02*
X830999D01*
Y10000D01*
X833001D01*
Y0D01*
D02*
G37*
G36*
X823001D02*
X820999D01*
Y10000D01*
X823001D01*
Y0D01*
D02*
G37*
G36*
X813501D02*
X810499D01*
Y30000D01*
X813501D01*
Y0D01*
D02*
G37*
G36*
X803001D02*
X800999D01*
Y10000D01*
X803001D01*
Y0D01*
D02*
G37*
G36*
X793001D02*
X790999D01*
Y10000D01*
X793001D01*
Y0D01*
D02*
G37*
G36*
X783001D02*
X780999D01*
Y10000D01*
X783001D01*
Y0D01*
D02*
G37*
G36*
X773001D02*
X770999D01*
Y10000D01*
X773001D01*
Y0D01*
D02*
G37*
G36*
X763001D02*
X760999D01*
Y20000D01*
X763001D01*
Y0D01*
D02*
G37*
G36*
X753001D02*
X750999D01*
Y10000D01*
X753001D01*
Y0D01*
D02*
G37*
G36*
X743001D02*
X740999D01*
Y10000D01*
X743001D01*
Y0D01*
D02*
G37*
G36*
X733001D02*
X730999D01*
Y10000D01*
X733001D01*
Y0D01*
D02*
G37*
G36*
X723001D02*
X720999D01*
Y10000D01*
X723001D01*
Y0D01*
D02*
G37*
G36*
X713501D02*
X710499D01*
Y30000D01*
X713501D01*
Y0D01*
D02*
G37*
G36*
X703001D02*
X700999D01*
Y10000D01*
X703001D01*
Y0D01*
D02*
G37*
G36*
X693001D02*
X690999D01*
Y10000D01*
X693001D01*
Y0D01*
D02*
G37*
G36*
X683001D02*
X680999D01*
Y10000D01*
X683001D01*
Y0D01*
D02*
G37*
G36*
X673001D02*
X670999D01*
Y10000D01*
X673001D01*
Y0D01*
D02*
G37*
G36*
X663001D02*
X660999D01*
Y20000D01*
X663001D01*
Y0D01*
D02*
G37*
G36*
X653001D02*
X651000D01*
Y10000D01*
X653001D01*
Y0D01*
D02*
G37*
G36*
X643001D02*
X641000D01*
Y10000D01*
X643001D01*
Y0D01*
D02*
G37*
G36*
X633001D02*
X630999D01*
Y10000D01*
X633001D01*
Y0D01*
D02*
G37*
G36*
X623001D02*
X620999D01*
Y10000D01*
X623001D01*
Y0D01*
D02*
G37*
G36*
X613501D02*
X610499D01*
Y30000D01*
X613501D01*
Y0D01*
D02*
G37*
G36*
X603001D02*
X601000D01*
Y10000D01*
X603001D01*
Y0D01*
D02*
G37*
G36*
X593001D02*
X591000D01*
Y10000D01*
X593001D01*
Y0D01*
D02*
G37*
G36*
X583001D02*
X581000D01*
Y10000D01*
X583001D01*
Y0D01*
D02*
G37*
G36*
X573001D02*
X571000D01*
Y10000D01*
X573001D01*
Y0D01*
D02*
G37*
G36*
X563001D02*
X561000D01*
Y20000D01*
X563001D01*
Y0D01*
D02*
G37*
G36*
X553001D02*
X551000D01*
Y10000D01*
X553001D01*
Y0D01*
D02*
G37*
G36*
X543001D02*
X541000D01*
Y10000D01*
X543001D01*
Y0D01*
D02*
G37*
G36*
X533001D02*
X531000D01*
Y10000D01*
X533001D01*
Y0D01*
D02*
G37*
G36*
X523001D02*
X521000D01*
Y10000D01*
X523001D01*
Y0D01*
D02*
G37*
G36*
X513502D02*
X510499D01*
Y30000D01*
X513502D01*
Y0D01*
D02*
G37*
G36*
X503001D02*
X501000D01*
Y10000D01*
X503001D01*
Y0D01*
D02*
G37*
G36*
X493001D02*
X491000D01*
Y10000D01*
X493001D01*
Y0D01*
D02*
G37*
G36*
X483001D02*
X481000D01*
Y10000D01*
X483001D01*
Y0D01*
D02*
G37*
G36*
X473001D02*
X471000D01*
Y10000D01*
X473001D01*
Y0D01*
D02*
G37*
G36*
X463001D02*
X461000D01*
Y20000D01*
X463001D01*
Y0D01*
D02*
G37*
G36*
X453001D02*
X451000D01*
Y10000D01*
X453001D01*
Y0D01*
D02*
G37*
G36*
X443001D02*
X441000D01*
Y10000D01*
X443001D01*
Y0D01*
D02*
G37*
G36*
X433001D02*
X431000D01*
Y10000D01*
X433001D01*
Y0D01*
D02*
G37*
G36*
X423001D02*
X421000D01*
Y10000D01*
X423001D01*
Y0D01*
D02*
G37*
G36*
X413502D02*
X410500D01*
Y30000D01*
X413502D01*
Y0D01*
D02*
G37*
G36*
X403002D02*
X401000D01*
Y10000D01*
X403002D01*
Y0D01*
D02*
G37*
G36*
X393002D02*
X391000D01*
Y10000D01*
X393002D01*
Y0D01*
D02*
G37*
G36*
X383002D02*
X381000D01*
Y10000D01*
X383002D01*
Y0D01*
D02*
G37*
G36*
X373002D02*
X371000D01*
Y10000D01*
X373002D01*
Y0D01*
D02*
G37*
G36*
X363002D02*
X361000D01*
Y20000D01*
X363002D01*
Y0D01*
D02*
G37*
G36*
X353002D02*
X351000D01*
Y10000D01*
X353002D01*
Y0D01*
D02*
G37*
G36*
X343002D02*
X341000D01*
Y10000D01*
X343002D01*
Y0D01*
D02*
G37*
G36*
X333002D02*
X331000D01*
Y10000D01*
X333002D01*
Y0D01*
D02*
G37*
G36*
X323002D02*
X321000D01*
Y10000D01*
X323002D01*
Y0D01*
D02*
G37*
G36*
X313502D02*
X310500D01*
Y30000D01*
X313502D01*
Y0D01*
D02*
G37*
G36*
X303002D02*
X301000D01*
Y10000D01*
X303002D01*
Y0D01*
D02*
G37*
G36*
X293002D02*
X291000D01*
Y10000D01*
X293002D01*
Y0D01*
D02*
G37*
G36*
X283002D02*
X281000D01*
Y10000D01*
X283002D01*
Y0D01*
D02*
G37*
G36*
X273002D02*
X271000D01*
Y10000D01*
X273002D01*
Y0D01*
D02*
G37*
G36*
X263002D02*
X261000D01*
Y20000D01*
X263002D01*
Y0D01*
D02*
G37*
G36*
X253002D02*
X251000D01*
Y10000D01*
X253002D01*
Y0D01*
D02*
G37*
G36*
X243002D02*
X241000D01*
Y10000D01*
X243002D01*
Y0D01*
D02*
G37*
G36*
X233002D02*
X231000D01*
Y10000D01*
X233002D01*
Y0D01*
D02*
G37*
G36*
X223002D02*
X221000D01*
Y10000D01*
X223002D01*
Y0D01*
D02*
G37*
G36*
X213502D02*
X210500D01*
Y30000D01*
X213502D01*
Y0D01*
D02*
G37*
G36*
X202999D02*
X200998D01*
Y10000D01*
X202999D01*
Y0D01*
D02*
G37*
G36*
X192999D02*
X190998D01*
Y10000D01*
X192999D01*
Y0D01*
D02*
G37*
G36*
X182999D02*
X180998D01*
Y10000D01*
X182999D01*
Y0D01*
D02*
G37*
G36*
X172999D02*
X170998D01*
Y10000D01*
X172999D01*
Y0D01*
D02*
G37*
G36*
X162999D02*
X160998D01*
Y20000D01*
X162999D01*
Y0D01*
D02*
G37*
G36*
X152999D02*
X150998D01*
Y10000D01*
X152999D01*
Y0D01*
D02*
G37*
G36*
X142999D02*
X140998D01*
Y10000D01*
X142999D01*
Y0D01*
D02*
G37*
G36*
X132999D02*
X130998D01*
Y10000D01*
X132999D01*
Y0D01*
D02*
G37*
G36*
X122999D02*
X120998D01*
Y10000D01*
X122999D01*
Y0D01*
D02*
G37*
G36*
X113500D02*
X110498D01*
Y30000D01*
X113500D01*
Y0D01*
D02*
G37*
G36*
X102999D02*
X100998D01*
Y10000D01*
X102999D01*
Y0D01*
D02*
G37*
G36*
X93000D02*
X90998D01*
Y10000D01*
X93000D01*
Y0D01*
D02*
G37*
G36*
X83000D02*
X80998D01*
Y10000D01*
X83000D01*
Y0D01*
D02*
G37*
G36*
X73000D02*
X70998D01*
Y10000D01*
X73000D01*
Y0D01*
D02*
G37*
G36*
X63000D02*
X60998D01*
Y20000D01*
X63000D01*
Y0D01*
D02*
G37*
G36*
X53000D02*
X50998D01*
Y10000D01*
X53000D01*
Y0D01*
D02*
G37*
G36*
X43000D02*
X40998D01*
Y10000D01*
X43000D01*
Y0D01*
D02*
G37*
G36*
X33000D02*
X30998D01*
Y10000D01*
X33000D01*
Y0D01*
D02*
G37*
G36*
X23000D02*
X20998D01*
Y10000D01*
X23000D01*
Y0D01*
D02*
G37*
G36*
X13500D02*
X10498D01*
Y30000D01*
X13500D01*
Y0D01*
D02*
G37*
D17*
X205740Y55959D02*
D03*
Y65961D02*
D03*
Y96599D02*
D03*
Y106601D02*
D03*
D18*
X955040Y78740D02*
D03*
X1051560D02*
D03*
D19*
X850900Y162240D02*
D03*
D20*
X876300Y59489D02*
D03*
X825500D02*
D03*
D21*
X957133Y148910D02*
D03*
X933135Y188910D02*
D03*
Y148910D02*
D03*
X957133Y188910D02*
D03*
D22*
X660639Y162339D02*
D03*
X675640D02*
D03*
X690641D02*
D03*
D23*
X675640Y193340D02*
D03*
D24*
X619760Y198961D02*
D03*
X629260Y177960D02*
D03*
X610260D02*
D03*
D25*
Y121618D02*
D03*
X619760D02*
D03*
X629260D02*
D03*
Y147622D02*
D03*
X610260D02*
D03*
D26*
X613260Y73030D02*
D03*
X619760D02*
D03*
X626260D02*
D03*
Y89530D02*
D03*
X613260D02*
D03*
D27*
X652526Y65532D02*
D03*
X675640D02*
D03*
X698754D02*
D03*
D28*
X675640Y127510D02*
D03*
D29*
X426720Y104803D02*
D03*
Y60805D02*
D03*
D30*
X220980Y91051D02*
D03*
Y106053D02*
D03*
Y56253D02*
D03*
Y71255D02*
D03*
D31*
X236220Y82210D02*
D03*
Y103210D02*
D03*
D32*
X255778Y75669D02*
D03*
Y104671D02*
D03*
D33*
X282956Y104155D02*
D03*
Y74153D02*
D03*
D34*
X316230Y58280D02*
D03*
Y104280D02*
D03*
D35*
X345440Y55227D02*
D03*
Y68725D02*
D03*
D36*
X360680Y57531D02*
D03*
Y73533D02*
D03*
D37*
X378460Y79573D02*
D03*
Y56571D02*
D03*
D38*
X398780Y60470D02*
D03*
Y94470D02*
D03*
D39*
X458724Y103035D02*
D03*
Y60033D02*
D03*
D40*
X497840Y65631D02*
D03*
Y109629D02*
D03*
D41*
X553466Y67394D02*
D03*
Y141394D02*
D03*
D42*
X726501Y87869D02*
D03*
X772099D02*
D03*
D43*
X749300Y156850D02*
D03*
D44*
X1176579Y157201D02*
D03*
Y152199D02*
D03*
Y147201D02*
D03*
Y142199D02*
D03*
Y137201D02*
D03*
Y132199D02*
D03*
Y127201D02*
D03*
Y122199D02*
D03*
X1246581D02*
D03*
Y127201D02*
D03*
Y132199D02*
D03*
Y137201D02*
D03*
Y142199D02*
D03*
Y147201D02*
D03*
Y152199D02*
D03*
Y157201D02*
D03*
D45*
X1194079Y104699D02*
D03*
X1199081D02*
D03*
X1204079D02*
D03*
X1209081D02*
D03*
X1214079D02*
D03*
X1219081D02*
D03*
X1224079D02*
D03*
X1229081D02*
D03*
Y174701D02*
D03*
X1224079D02*
D03*
X1219081D02*
D03*
X1214079D02*
D03*
X1209081D02*
D03*
X1204079D02*
D03*
X1199081D02*
D03*
X1194079D02*
D03*
D46*
X1185418Y87630D02*
D03*
Y74930D02*
D03*
Y62230D02*
D03*
Y49530D02*
D03*
X1237742D02*
D03*
Y62230D02*
D03*
Y74930D02*
D03*
Y87630D02*
D03*
D47*
X1107760Y159819D02*
D03*
Y154821D02*
D03*
Y149819D02*
D03*
Y144821D02*
D03*
Y139819D02*
D03*
Y134821D02*
D03*
X1147760D02*
D03*
Y139819D02*
D03*
Y144821D02*
D03*
Y149819D02*
D03*
Y154821D02*
D03*
Y159819D02*
D03*
D48*
X1115261Y127320D02*
D03*
X1120259D02*
D03*
X1125261D02*
D03*
X1130259D02*
D03*
X1135261D02*
D03*
X1140259D02*
D03*
Y167320D02*
D03*
X1135261D02*
D03*
X1130259D02*
D03*
X1125261D02*
D03*
X1120259D02*
D03*
X1115261D02*
D03*
D49*
X1099261Y100990D02*
D03*
Y94490D02*
D03*
Y87991D02*
D03*
Y81491D02*
D03*
Y74991D02*
D03*
Y68491D02*
D03*
Y61991D02*
D03*
Y55489D02*
D03*
X1158260D02*
D03*
Y61991D02*
D03*
Y68491D02*
D03*
Y74991D02*
D03*
Y81491D02*
D03*
Y87991D02*
D03*
Y94490D02*
D03*
Y100990D02*
D03*
D50*
X190500Y78280D02*
D03*
Y84280D02*
D03*
Y54912D02*
D03*
Y60912D02*
D03*
Y101648D02*
D03*
Y107648D02*
D03*
D51*
X1055761Y127000D02*
D03*
X1072759D02*
D03*
D52*
X1071784Y176962D02*
D03*
X1059784Y192862D02*
D03*
Y176962D02*
D03*
X1071784Y192862D02*
D03*
D53*
X998880Y166817D02*
D03*
Y190815D02*
D03*
X1017880Y166817D02*
D03*
Y190815D02*
D03*
D112*
X1522235Y176741D02*
D03*
D113*
X1483385Y178491D02*
D03*
D114*
X1447884Y180091D02*
D03*
D115*
X1415435Y181539D02*
D03*
D116*
X1385684Y182791D02*
D03*
D117*
X1358285Y183891D02*
D03*
D118*
X1332984Y184889D02*
D03*
D119*
X1309586Y185791D02*
D03*
D120*
X1287884Y186591D02*
D03*
D121*
X1267686Y187289D02*
D03*
D122*
X1248834Y187940D02*
D03*
D123*
X1231176Y188481D02*
D03*
D124*
X1214554Y188981D02*
D03*
D125*
X1198880Y189426D02*
D03*
D126*
X1183640Y189819D02*
D03*
D127*
X1168400Y190175D02*
D03*
D128*
X1153160Y190485D02*
D03*
D129*
X1137920Y190764D02*
D03*
D130*
X1122680Y191016D02*
D03*
D131*
X1107440Y191234D02*
D03*
D132*
X1092200Y191435D02*
D03*
M02*
