G04*
G04 #@! TF.GenerationSoftware,Altium Limited,Altium Designer,25.0.2 (28)*
G04*
G04 Layer_Physical_Order=2*
G04 Layer_Color=16711680*
%FSLAX44Y44*%
%MOMM*%
G71*
G04*
G04 #@! TF.SameCoordinates,9174A0AD-6BA1-43DA-ABB3-975E43715B25*
G04*
G04*
G04 #@! TF.FilePolarity,Positive*
G04*
G01*
G75*
%ADD44R,1.1430X0.2540*%
%ADD45R,0.2540X1.1430*%
%ADD112C,3.2601*%
%ADD113C,2.9101*%
%ADD114C,2.5900*%
%ADD115C,2.3000*%
%ADD116C,2.0500*%
%ADD117C,1.8301*%
%ADD118C,1.6299*%
%ADD119C,1.4501*%
%ADD120C,1.2901*%
%ADD121C,1.1501*%
%ADD122C,1.0201*%
%ADD123C,0.9121*%
%ADD124C,0.8120*%
%ADD125C,0.7229*%
%ADD126C,0.6439*%
%ADD127C,0.5730*%
%ADD128C,0.5111*%
%ADD129C,0.4549*%
%ADD130C,0.4049*%
%ADD131C,0.3609*%
%ADD132C,0.3211*%
%ADD133R,0.1999X1.5001*%
%ADD134R,1.5001X0.1999*%
%ADD135R,0.5588X1.2700*%
%ADD136R,1.2700X0.5588*%
%ADD137R,0.3000X1.5001*%
%ADD138R,1.5001X0.3000*%
G04:AMPARAMS|DCode=139|XSize=0.35mm|YSize=0.35mm|CornerRadius=0.175mm|HoleSize=0mm|Usage=FLASHONLY|Rotation=180.000|XOffset=0mm|YOffset=0mm|HoleType=Round|Shape=RoundedRectangle|*
%AMROUNDEDRECTD139*
21,1,0.3500,0.0000,0,0,180.0*
21,1,0.0000,0.3500,0,0,180.0*
1,1,0.3500,0.0000,0.0000*
1,1,0.3500,0.0000,0.0000*
1,1,0.3500,0.0000,0.0000*
1,1,0.3500,0.0000,0.0000*
%
%ADD139ROUNDEDRECTD139*%
G04:AMPARAMS|DCode=140|XSize=0.4501mm|YSize=0.4501mm|CornerRadius=0.225mm|HoleSize=0mm|Usage=FLASHONLY|Rotation=180.000|XOffset=0mm|YOffset=0mm|HoleType=Round|Shape=RoundedRectangle|*
%AMROUNDEDRECTD140*
21,1,0.4501,0.0000,0,0,180.0*
21,1,0.0000,0.4501,0,0,180.0*
1,1,0.4501,0.0000,0.0000*
1,1,0.4501,0.0000,0.0000*
1,1,0.4501,0.0000,0.0000*
1,1,0.4501,0.0000,0.0000*
%
%ADD140ROUNDEDRECTD140*%
%ADD141R,0.8001X0.3500*%
G36*
X1199284Y102976D02*
X1198912D01*
Y103348D01*
X1198540D01*
Y103720D01*
X1198167D01*
Y104092D01*
X1197795D01*
Y104465D01*
X1197423D01*
Y104837D01*
X1196679D01*
Y105209D01*
X1196307D01*
Y105581D01*
X1195563D01*
Y105953D01*
X1194818D01*
Y106325D01*
X1194074D01*
Y106697D01*
X1192958D01*
Y107069D01*
X1191470D01*
Y107441D01*
X1185516D01*
Y107069D01*
X1184027D01*
Y106697D01*
X1182911D01*
Y106325D01*
X1181795D01*
Y105953D01*
X1181050D01*
Y105581D01*
X1180306D01*
Y105209D01*
X1179934D01*
Y104837D01*
X1179190D01*
Y104465D01*
X1178818D01*
Y104092D01*
X1178074D01*
Y103720D01*
X1177701D01*
Y103348D01*
X1177329D01*
Y102976D01*
X1176957D01*
Y102604D01*
X1176585D01*
Y102232D01*
X1176213D01*
Y101860D01*
X1175841D01*
Y101488D01*
X1175469D01*
Y100743D01*
X1175097D01*
Y100371D01*
X1174725D01*
Y99627D01*
X1174352D01*
Y99255D01*
X1173980D01*
Y98511D01*
X1173608D01*
Y97767D01*
X1173236D01*
Y97022D01*
X1172864D01*
Y96278D01*
X1172492D01*
Y95162D01*
X1172120D01*
Y93301D01*
X1171748D01*
Y85115D01*
X1172120D01*
Y83254D01*
X1172492D01*
Y82138D01*
X1172864D01*
Y81394D01*
X1173236D01*
Y80649D01*
X1173608D01*
Y79905D01*
X1173980D01*
Y79161D01*
X1174352D01*
Y78417D01*
X1174725D01*
Y78045D01*
X1175097D01*
Y77301D01*
X1175469D01*
Y76928D01*
X1175841D01*
Y76556D01*
X1176213D01*
Y76184D01*
X1176585D01*
Y75812D01*
X1176957D01*
Y75440D01*
X1177329D01*
Y75068D01*
X1177701D01*
Y74696D01*
X1178074D01*
Y74324D01*
X1178446D01*
Y73952D01*
X1179190D01*
Y73579D01*
X1179562D01*
Y73207D01*
X1180306D01*
Y72835D01*
X1181050D01*
Y72463D01*
X1181795D01*
Y72091D01*
X1182539D01*
Y71719D01*
X1183655D01*
Y71347D01*
X1185144D01*
Y70975D01*
X1191842D01*
Y71347D01*
X1193330D01*
Y71719D01*
X1194446D01*
Y72091D01*
X1195191D01*
Y72463D01*
X1195935D01*
Y72835D01*
X1196307D01*
Y73207D01*
X1197051D01*
Y73579D01*
X1197423D01*
Y73952D01*
X1197795D01*
Y74324D01*
X1198540D01*
Y74696D01*
X1198912D01*
Y75068D01*
X1199284D01*
Y71719D01*
X1207470D01*
Y124186D01*
X1199284D01*
Y102976D01*
D02*
G37*
G36*
X1232402Y107069D02*
X1230541D01*
Y106697D01*
X1229425D01*
Y106325D01*
X1228680D01*
Y105953D01*
X1227936D01*
Y105581D01*
X1227192D01*
Y105209D01*
X1226820D01*
Y104837D01*
X1226076D01*
Y104465D01*
X1225704D01*
Y104092D01*
X1225332D01*
Y103720D01*
X1224959D01*
Y103348D01*
X1224587D01*
Y102976D01*
X1224215D01*
Y106697D01*
X1216029D01*
Y95906D01*
Y95534D01*
Y71719D01*
X1216401D01*
Y71347D01*
X1224215D01*
Y75068D01*
X1224587D01*
Y74696D01*
X1224959D01*
Y74324D01*
X1225332D01*
Y73952D01*
X1226076D01*
Y73579D01*
X1226448D01*
Y73207D01*
X1226820D01*
Y72835D01*
X1227564D01*
Y72463D01*
X1228308D01*
Y72091D01*
X1229053D01*
Y71719D01*
X1230169D01*
Y71347D01*
X1231285D01*
Y70975D01*
X1238727D01*
Y71347D01*
X1240216D01*
Y71719D01*
X1240960D01*
Y72091D01*
X1242076D01*
Y72463D01*
X1242821D01*
Y72835D01*
X1243193D01*
Y73207D01*
X1243937D01*
Y73579D01*
X1244309D01*
Y73952D01*
X1245053D01*
Y74324D01*
X1245425D01*
Y74696D01*
X1245798D01*
Y75068D01*
X1246170D01*
Y75440D01*
X1246542D01*
Y75812D01*
X1246914D01*
Y76184D01*
X1247286D01*
Y76556D01*
X1247658D01*
Y76928D01*
X1248030D01*
Y77301D01*
X1248402D01*
Y78045D01*
X1248774D01*
Y78417D01*
X1249147D01*
Y79161D01*
X1249519D01*
Y79533D01*
X1249891D01*
Y80277D01*
X1250263D01*
Y81394D01*
X1250635D01*
Y82138D01*
X1251007D01*
Y83254D01*
X1251379D01*
Y84743D01*
X1251751D01*
Y87719D01*
X1252123D01*
Y90324D01*
X1251751D01*
Y93301D01*
X1251379D01*
Y94790D01*
X1251007D01*
Y95906D01*
X1250635D01*
Y97022D01*
X1250263D01*
Y97767D01*
X1249891D01*
Y98511D01*
X1249519D01*
Y99255D01*
X1249147D01*
Y99627D01*
X1248774D01*
Y100371D01*
X1248402D01*
Y100743D01*
X1248030D01*
Y101116D01*
X1247658D01*
Y101860D01*
X1247286D01*
Y102232D01*
X1246914D01*
Y102604D01*
X1246542D01*
Y102976D01*
X1246170D01*
Y103348D01*
X1245798D01*
Y103720D01*
X1245053D01*
Y104092D01*
X1244681D01*
Y104465D01*
X1244309D01*
Y104837D01*
X1243565D01*
Y105209D01*
X1242821D01*
Y105581D01*
X1242449D01*
Y105953D01*
X1241332D01*
Y106325D01*
X1240588D01*
Y106697D01*
X1239472D01*
Y107069D01*
X1237611D01*
Y107441D01*
X1232402D01*
Y107069D01*
D02*
G37*
G36*
X1258821Y95162D02*
Y71719D01*
X1266636D01*
Y124186D01*
X1258821D01*
Y95534D01*
Y95162D01*
D02*
G37*
G36*
X1355942Y107069D02*
X1354454D01*
Y106697D01*
X1353337D01*
Y106325D01*
X1352221D01*
Y105953D01*
X1351477D01*
Y105581D01*
X1350733D01*
Y105209D01*
X1349988D01*
Y104837D01*
X1349616D01*
Y104465D01*
X1349244D01*
Y104092D01*
X1348500D01*
Y103720D01*
X1348128D01*
Y103348D01*
X1347756D01*
Y102976D01*
X1347384D01*
Y102604D01*
X1347012D01*
Y102232D01*
X1346639D01*
Y101860D01*
X1346267D01*
Y101116D01*
X1345895D01*
Y100743D01*
X1345523D01*
Y100371D01*
X1345151D01*
Y99627D01*
X1344779D01*
Y98883D01*
X1344407D01*
Y98139D01*
X1344035D01*
Y97394D01*
X1343663D01*
Y97022D01*
Y96650D01*
Y96278D01*
X1343290D01*
Y95162D01*
X1342918D01*
Y93673D01*
X1342546D01*
Y86603D01*
X1342918D01*
Y86231D01*
X1368966D01*
Y85115D01*
X1368594D01*
Y84370D01*
X1368222D01*
Y83626D01*
X1367850D01*
Y82882D01*
X1367478D01*
Y82510D01*
X1367106D01*
Y81766D01*
X1366733D01*
Y81394D01*
X1366361D01*
Y81022D01*
X1365989D01*
Y80649D01*
X1365245D01*
Y80277D01*
X1364873D01*
Y79905D01*
X1364129D01*
Y79533D01*
X1363384D01*
Y79161D01*
X1362640D01*
Y78789D01*
X1360780D01*
Y78417D01*
X1356314D01*
Y78789D01*
X1354826D01*
Y79161D01*
X1353710D01*
Y79533D01*
X1352965D01*
Y79905D01*
X1352221D01*
Y80277D01*
X1351849D01*
Y80649D01*
X1351105D01*
Y81022D01*
X1350733D01*
Y81394D01*
X1350361D01*
Y81766D01*
X1349988D01*
Y82138D01*
X1349616D01*
Y81766D01*
X1349244D01*
Y81394D01*
X1348872D01*
Y81022D01*
X1348500D01*
Y80649D01*
X1348128D01*
Y80277D01*
X1347756D01*
Y79905D01*
X1347384D01*
Y79533D01*
X1347012D01*
Y79161D01*
X1346639D01*
Y78789D01*
X1346267D01*
Y78417D01*
X1345895D01*
Y78045D01*
X1345523D01*
Y77673D01*
X1345151D01*
Y77301D01*
X1344779D01*
Y76556D01*
X1345151D01*
Y76184D01*
X1345523D01*
Y75812D01*
X1345895D01*
Y75440D01*
X1346267D01*
Y75068D01*
X1346639D01*
Y74696D01*
X1347384D01*
Y74324D01*
X1347756D01*
Y73952D01*
X1348500D01*
Y73579D01*
X1348872D01*
Y73207D01*
X1349616D01*
Y72835D01*
X1350361D01*
Y72463D01*
X1351105D01*
Y72091D01*
X1352221D01*
Y71719D01*
X1353337D01*
Y71347D01*
X1355198D01*
Y70975D01*
X1362268D01*
Y71347D01*
X1364129D01*
Y71719D01*
X1365245D01*
Y72091D01*
X1366361D01*
Y72463D01*
X1367106D01*
Y72835D01*
X1367850D01*
Y73207D01*
X1368594D01*
Y73579D01*
X1368966D01*
Y73952D01*
X1369710D01*
Y74324D01*
X1370082D01*
Y74696D01*
X1370455D01*
Y75068D01*
X1371199D01*
Y75440D01*
X1371571D01*
Y75812D01*
X1371943D01*
Y76184D01*
X1372315D01*
Y76556D01*
X1372687D01*
Y76928D01*
X1373059D01*
Y77301D01*
X1373431D01*
Y78045D01*
X1373804D01*
Y78417D01*
X1374176D01*
Y79161D01*
X1374548D01*
Y79533D01*
X1374920D01*
Y80277D01*
X1375292D01*
Y81022D01*
X1375664D01*
Y81766D01*
X1376036D01*
Y82882D01*
X1376408D01*
Y83998D01*
X1376780D01*
Y85487D01*
X1377152D01*
Y92929D01*
X1376780D01*
Y94417D01*
X1376408D01*
Y95906D01*
X1376036D01*
Y96650D01*
X1375664D01*
Y97394D01*
X1375292D01*
Y98139D01*
X1374920D01*
Y98883D01*
X1374548D01*
Y99255D01*
X1374176D01*
Y99999D01*
X1373804D01*
Y100371D01*
X1373431D01*
Y100743D01*
X1373059D01*
Y101488D01*
X1372687D01*
Y101860D01*
X1372315D01*
Y102232D01*
X1371943D01*
Y102604D01*
X1371571D01*
Y102976D01*
X1371199D01*
Y103348D01*
X1370455D01*
Y103720D01*
X1370082D01*
Y104092D01*
X1369710D01*
Y104465D01*
X1368966D01*
Y104837D01*
X1368594D01*
Y105209D01*
X1367850D01*
Y105581D01*
X1367106D01*
Y105953D01*
X1366361D01*
Y106325D01*
X1365245D01*
Y106697D01*
X1364129D01*
Y107069D01*
X1362268D01*
Y107441D01*
X1355942D01*
Y107069D01*
D02*
G37*
G36*
X1402828Y101116D02*
Y90324D01*
X1402456D01*
Y90696D01*
X1402084D01*
Y91068D01*
X1401712D01*
Y91813D01*
X1401340D01*
Y92185D01*
X1400968D01*
Y92557D01*
X1400595D01*
Y92929D01*
X1400223D01*
Y93301D01*
X1399851D01*
Y93673D01*
X1399479D01*
Y94417D01*
X1399107D01*
Y94790D01*
X1398735D01*
Y95162D01*
X1398363D01*
Y95534D01*
X1397991D01*
Y95906D01*
X1397619D01*
Y96278D01*
X1397246D01*
Y97022D01*
X1396874D01*
Y97394D01*
X1396502D01*
Y97767D01*
X1396130D01*
Y98139D01*
X1395758D01*
Y98511D01*
X1395386D01*
Y98883D01*
X1395014D01*
Y99255D01*
X1394642D01*
Y99999D01*
X1394270D01*
Y100371D01*
X1393897D01*
Y100743D01*
X1393525D01*
Y101116D01*
X1393153D01*
Y101488D01*
X1392781D01*
Y101860D01*
X1392409D01*
Y102604D01*
X1392037D01*
Y102976D01*
X1391665D01*
Y103348D01*
X1391293D01*
Y103720D01*
X1390921D01*
Y104092D01*
X1390548D01*
Y104465D01*
X1390176D01*
Y105209D01*
X1389804D01*
Y105581D01*
X1389432D01*
Y105953D01*
X1389060D01*
Y106325D01*
X1388688D01*
Y106697D01*
X1379013D01*
Y106325D01*
X1379385D01*
Y105953D01*
X1379757D01*
Y105581D01*
X1380129D01*
Y105209D01*
X1380501D01*
Y104837D01*
X1380874D01*
Y104465D01*
X1381246D01*
Y104092D01*
X1381618D01*
Y103348D01*
X1381990D01*
Y102976D01*
X1382362D01*
Y102604D01*
X1382734D01*
Y102232D01*
X1383106D01*
Y101860D01*
X1383478D01*
Y101488D01*
X1383850D01*
Y101116D01*
X1384223D01*
Y100371D01*
X1384595D01*
Y99999D01*
X1384967D01*
Y99627D01*
X1385339D01*
Y99255D01*
X1385711D01*
Y98883D01*
X1386083D01*
Y98511D01*
X1386455D01*
Y98139D01*
X1386827D01*
Y97767D01*
X1387199D01*
Y97022D01*
X1387572D01*
Y96650D01*
X1387944D01*
Y96278D01*
X1388316D01*
Y95906D01*
X1388688D01*
Y95534D01*
X1389060D01*
Y95162D01*
X1389432D01*
Y94790D01*
X1389804D01*
Y94045D01*
X1390176D01*
Y93673D01*
X1390548D01*
Y93301D01*
X1390921D01*
Y92929D01*
X1391293D01*
Y92557D01*
X1391665D01*
Y92185D01*
X1392037D01*
Y91813D01*
X1392409D01*
Y91068D01*
X1392781D01*
Y90696D01*
X1393153D01*
Y90324D01*
X1393525D01*
Y89208D01*
X1393153D01*
Y88836D01*
X1392781D01*
Y88464D01*
X1392409D01*
Y88092D01*
X1392037D01*
Y87719D01*
X1391665D01*
Y86975D01*
X1391293D01*
Y86603D01*
X1390921D01*
Y86231D01*
X1390548D01*
Y85859D01*
X1390176D01*
Y85487D01*
X1389804D01*
Y85115D01*
X1389432D01*
Y84370D01*
X1389060D01*
Y83998D01*
X1388688D01*
Y83626D01*
X1388316D01*
Y83254D01*
X1387944D01*
Y82882D01*
X1387572D01*
Y82138D01*
X1387199D01*
Y81766D01*
X1386827D01*
Y81394D01*
X1386455D01*
Y81022D01*
X1386083D01*
Y80649D01*
X1385711D01*
Y80277D01*
X1385339D01*
Y79533D01*
X1384967D01*
Y79161D01*
X1384595D01*
Y78789D01*
X1384223D01*
Y78417D01*
X1383850D01*
Y78045D01*
X1383478D01*
Y77301D01*
X1383106D01*
Y76928D01*
X1382734D01*
Y76556D01*
X1382362D01*
Y76184D01*
X1381990D01*
Y75812D01*
X1381618D01*
Y75440D01*
X1381246D01*
Y74696D01*
X1380874D01*
Y74324D01*
X1380501D01*
Y73952D01*
X1380129D01*
Y73579D01*
X1379757D01*
Y73207D01*
X1379385D01*
Y72463D01*
X1379013D01*
Y72091D01*
X1378641D01*
Y71719D01*
X1388688D01*
Y72091D01*
X1389060D01*
Y72463D01*
X1389432D01*
Y72835D01*
X1389804D01*
Y73207D01*
X1390176D01*
Y73952D01*
X1390548D01*
Y74324D01*
X1390921D01*
Y74696D01*
X1391293D01*
Y75068D01*
X1391665D01*
Y75440D01*
X1392037D01*
Y76184D01*
X1392409D01*
Y76556D01*
X1392781D01*
Y76928D01*
X1393153D01*
Y77301D01*
X1393525D01*
Y77673D01*
X1393897D01*
Y78417D01*
X1394270D01*
Y78789D01*
X1394642D01*
Y79161D01*
X1395014D01*
Y79533D01*
X1395386D01*
Y80277D01*
X1395758D01*
Y80649D01*
X1396130D01*
Y81022D01*
X1396502D01*
Y81394D01*
X1396874D01*
Y81766D01*
X1397246D01*
Y82510D01*
X1397619D01*
Y82882D01*
X1397991D01*
Y83254D01*
X1398363D01*
Y83626D01*
X1398735D01*
Y83998D01*
X1399107D01*
Y84743D01*
X1399479D01*
Y85115D01*
X1399851D01*
Y85487D01*
X1400223D01*
Y85859D01*
X1400595D01*
Y86231D01*
X1400968D01*
Y86975D01*
X1401340D01*
Y87347D01*
X1401712D01*
Y87719D01*
X1402084D01*
Y88092D01*
X1402456D01*
Y88464D01*
X1402828D01*
Y71719D01*
X1411014D01*
Y124186D01*
X1402828D01*
Y101488D01*
Y101116D01*
D02*
G37*
G36*
X1435946Y107069D02*
X1434457D01*
Y106697D01*
X1433341D01*
Y106325D01*
X1432225D01*
Y105953D01*
X1431481D01*
Y105581D01*
X1431108D01*
Y105209D01*
X1430364D01*
Y104837D01*
X1429992D01*
Y104465D01*
X1429248D01*
Y104092D01*
X1428876D01*
Y103720D01*
X1428504D01*
Y103348D01*
X1428132D01*
Y102976D01*
X1427759D01*
Y106697D01*
X1419945D01*
Y71347D01*
X1427759D01*
Y75068D01*
X1428504D01*
Y74696D01*
X1428876D01*
Y74324D01*
X1429248D01*
Y73952D01*
X1429620D01*
Y73579D01*
X1429992D01*
Y73207D01*
X1430736D01*
Y72835D01*
X1431108D01*
Y72463D01*
X1431853D01*
Y72091D01*
X1432597D01*
Y71719D01*
X1433713D01*
Y71347D01*
X1435202D01*
Y70975D01*
X1442272D01*
Y71347D01*
X1443760D01*
Y71719D01*
X1444877D01*
Y72091D01*
X1445621D01*
Y72463D01*
X1446365D01*
Y72835D01*
X1447109D01*
Y73207D01*
X1447481D01*
Y73579D01*
X1448225D01*
Y73952D01*
X1448598D01*
Y74324D01*
X1448970D01*
Y74696D01*
X1449714D01*
Y75068D01*
X1450086D01*
Y75440D01*
X1450458D01*
Y75812D01*
X1450830D01*
Y76184D01*
X1451202D01*
Y76928D01*
X1451574D01*
Y77301D01*
X1451947D01*
Y77673D01*
X1452319D01*
Y78417D01*
X1452691D01*
Y78789D01*
X1453063D01*
Y79533D01*
X1453435D01*
Y80277D01*
X1453807D01*
Y81022D01*
X1454179D01*
Y81766D01*
X1454551D01*
Y82882D01*
X1454923D01*
Y84370D01*
X1455296D01*
Y86603D01*
X1455668D01*
Y91441D01*
X1455296D01*
Y93673D01*
X1454923D01*
Y95162D01*
X1454551D01*
Y96278D01*
X1454179D01*
Y97022D01*
X1453807D01*
Y97767D01*
X1453435D01*
Y98511D01*
X1453063D01*
Y99255D01*
X1452691D01*
Y99999D01*
X1452319D01*
Y100371D01*
X1451947D01*
Y100743D01*
X1451574D01*
Y101488D01*
X1451202D01*
Y101860D01*
X1450830D01*
Y102232D01*
X1450458D01*
Y102604D01*
X1450086D01*
Y102976D01*
X1449714D01*
Y103348D01*
X1449342D01*
Y103720D01*
X1448970D01*
Y104092D01*
X1448225D01*
Y104465D01*
X1447853D01*
Y104837D01*
X1447109D01*
Y105209D01*
X1446737D01*
Y105581D01*
X1445993D01*
Y105953D01*
X1445249D01*
Y106325D01*
X1444132D01*
Y106697D01*
X1443016D01*
Y107069D01*
X1441528D01*
Y107441D01*
X1435946D01*
Y107069D01*
D02*
G37*
G36*
X1508507Y93301D02*
Y71719D01*
X1516694D01*
Y106697D01*
X1508507D01*
Y103348D01*
X1508135D01*
Y103720D01*
X1507763D01*
Y104092D01*
X1507391D01*
Y104465D01*
X1507019D01*
Y104837D01*
X1506647D01*
Y105209D01*
X1505903D01*
Y105581D01*
X1505158D01*
Y105953D01*
X1504786D01*
Y106325D01*
X1503670D01*
Y106697D01*
X1502554D01*
Y107069D01*
X1501065D01*
Y107441D01*
X1495483D01*
Y107069D01*
X1493995D01*
Y106697D01*
X1492879D01*
Y106325D01*
X1492134D01*
Y105953D01*
X1491390D01*
Y105581D01*
X1490646D01*
Y105209D01*
X1490274D01*
Y104837D01*
X1489530D01*
Y104465D01*
X1489158D01*
Y104092D01*
X1488785D01*
Y103720D01*
X1488413D01*
Y103348D01*
X1488041D01*
Y102604D01*
X1487669D01*
Y102232D01*
X1487297D01*
Y101860D01*
X1486553D01*
Y102604D01*
X1486181D01*
Y102976D01*
X1485809D01*
Y103348D01*
X1485436D01*
Y103720D01*
X1485064D01*
Y104092D01*
X1484692D01*
Y104465D01*
X1483948D01*
Y104837D01*
X1483576D01*
Y105209D01*
X1482832D01*
Y105581D01*
X1482460D01*
Y105953D01*
X1481715D01*
Y106325D01*
X1480971D01*
Y106697D01*
X1479855D01*
Y107069D01*
X1478366D01*
Y107441D01*
X1472413D01*
Y107069D01*
X1470924D01*
Y106697D01*
X1469808D01*
Y106325D01*
X1469064D01*
Y105953D01*
X1468319D01*
Y105581D01*
X1467575D01*
Y105209D01*
X1467203D01*
Y104837D01*
X1466459D01*
Y104465D01*
X1466087D01*
Y104092D01*
X1465715D01*
Y103720D01*
X1465343D01*
Y103348D01*
X1464970D01*
Y102976D01*
X1464598D01*
Y102604D01*
X1464226D01*
Y102232D01*
X1463854D01*
Y101488D01*
X1463482D01*
Y100743D01*
X1463110D01*
Y99999D01*
X1462738D01*
Y99255D01*
X1462366D01*
Y98139D01*
X1461994D01*
Y71719D01*
X1469808D01*
Y94045D01*
X1470180D01*
Y95534D01*
X1470552D01*
Y96278D01*
X1470924D01*
Y97022D01*
X1471296D01*
Y97394D01*
X1471668D01*
Y97767D01*
X1472041D01*
Y98139D01*
X1472413D01*
Y98511D01*
X1472785D01*
Y98883D01*
X1473529D01*
Y99255D01*
X1474273D01*
Y99627D01*
X1475390D01*
Y99999D01*
X1479483D01*
Y99627D01*
X1480599D01*
Y99255D01*
X1481343D01*
Y98883D01*
X1482088D01*
Y98511D01*
X1482460D01*
Y98139D01*
X1483204D01*
Y97767D01*
X1483576D01*
Y97022D01*
X1483948D01*
Y96650D01*
X1484320D01*
Y95906D01*
X1484692D01*
Y94790D01*
X1485064D01*
Y71719D01*
X1493251D01*
Y94417D01*
X1493623D01*
Y95906D01*
X1493995D01*
Y96650D01*
X1494367D01*
Y97022D01*
X1494739D01*
Y97394D01*
X1495111D01*
Y97767D01*
X1495483D01*
Y98139D01*
X1495856D01*
Y98511D01*
X1496228D01*
Y98883D01*
X1496972D01*
Y99255D01*
X1497716D01*
Y99627D01*
X1498832D01*
Y99999D01*
X1502926D01*
Y99627D01*
X1504042D01*
Y99255D01*
X1504786D01*
Y98883D01*
X1505530D01*
Y98511D01*
X1505903D01*
Y98139D01*
X1506275D01*
Y97767D01*
X1506647D01*
Y97394D01*
X1507019D01*
Y97022D01*
X1507391D01*
Y96650D01*
X1507763D01*
Y95906D01*
X1508135D01*
Y94790D01*
X1508507D01*
Y93673D01*
Y93301D01*
D02*
G37*
G36*
X1372059Y49333D02*
X1371112D01*
Y50996D01*
X1372059D01*
Y49333D01*
D02*
G37*
G36*
X1475233Y47918D02*
X1475430Y47902D01*
X1475628Y47885D01*
X1475809Y47852D01*
X1475974Y47811D01*
X1476138Y47770D01*
X1476286Y47729D01*
X1476418Y47688D01*
X1476541Y47638D01*
X1476649Y47597D01*
X1476747Y47556D01*
X1476821Y47515D01*
X1476887Y47482D01*
X1476928Y47465D01*
X1476961Y47449D01*
X1476969Y47441D01*
X1477109Y47350D01*
X1477233Y47243D01*
X1477340Y47136D01*
X1477439Y47029D01*
X1477513Y46922D01*
X1477578Y46807D01*
X1477636Y46700D01*
X1477677Y46601D01*
X1477710Y46502D01*
X1477735Y46412D01*
X1477751Y46330D01*
X1477760Y46264D01*
X1477768Y46206D01*
X1477776Y46157D01*
Y46132D01*
Y46124D01*
X1477760Y45951D01*
X1477726Y45795D01*
X1477685Y45655D01*
X1477628Y45523D01*
X1477578Y45416D01*
X1477529Y45334D01*
X1477513Y45309D01*
X1477496Y45284D01*
X1477488Y45276D01*
Y45268D01*
X1477373Y45128D01*
X1477241Y45013D01*
X1477109Y44906D01*
X1476978Y44824D01*
X1476862Y44758D01*
X1476764Y44717D01*
X1476731Y44700D01*
X1476706Y44684D01*
X1476690Y44675D01*
X1476681D01*
X1476574Y44643D01*
X1476459Y44601D01*
X1476328Y44577D01*
X1476196Y44544D01*
X1475908Y44486D01*
X1475628Y44445D01*
X1475496Y44420D01*
X1475365Y44404D01*
X1475258Y44387D01*
X1475159Y44379D01*
X1475077Y44371D01*
X1475011Y44363D01*
X1474978Y44355D01*
X1474961D01*
X1474739Y44330D01*
X1474542Y44297D01*
X1474344Y44264D01*
X1474171Y44223D01*
X1474007Y44190D01*
X1473859Y44149D01*
X1473719Y44108D01*
X1473595Y44067D01*
X1473488Y44025D01*
X1473398Y43992D01*
X1473315Y43959D01*
X1473250Y43927D01*
X1473200Y43902D01*
X1473167Y43885D01*
X1473143Y43877D01*
X1473134Y43869D01*
X1473027Y43795D01*
X1472929Y43721D01*
X1472846Y43647D01*
X1472772Y43565D01*
X1472715Y43482D01*
X1472665Y43408D01*
X1472616Y43326D01*
X1472583Y43252D01*
X1472542Y43112D01*
X1472525Y43054D01*
X1472517Y43005D01*
X1472509Y42964D01*
Y42931D01*
Y42914D01*
Y42906D01*
X1472517Y42807D01*
X1472534Y42709D01*
X1472567Y42618D01*
X1472608Y42527D01*
X1472706Y42363D01*
X1472814Y42215D01*
X1472929Y42083D01*
X1472986Y42034D01*
X1473027Y41993D01*
X1473069Y41960D01*
X1473102Y41935D01*
X1473118Y41919D01*
X1473126Y41910D01*
X1473250Y41828D01*
X1473381Y41762D01*
X1473529Y41696D01*
X1473678Y41647D01*
X1473990Y41565D01*
X1474295Y41507D01*
X1474435Y41491D01*
X1474566Y41474D01*
X1474682Y41466D01*
X1474789Y41458D01*
X1474871Y41449D01*
X1474994D01*
X1475299Y41458D01*
X1475579Y41491D01*
X1475710Y41507D01*
X1475826Y41523D01*
X1475932Y41548D01*
X1476031Y41573D01*
X1476122Y41589D01*
X1476204Y41614D01*
X1476270Y41631D01*
X1476328Y41655D01*
X1476377Y41663D01*
X1476410Y41680D01*
X1476426Y41688D01*
X1476434D01*
X1476640Y41779D01*
X1476813Y41886D01*
X1476961Y41984D01*
X1477076Y42075D01*
X1477167Y42165D01*
X1477233Y42231D01*
X1477266Y42272D01*
X1477282Y42289D01*
X1477340Y42379D01*
X1477381Y42486D01*
X1477414Y42585D01*
X1477430Y42676D01*
X1477447Y42758D01*
X1477455Y42824D01*
Y42865D01*
Y42881D01*
Y42939D01*
X1477471Y42988D01*
X1477504Y43071D01*
X1477521Y43095D01*
X1477537Y43120D01*
X1477545Y43128D01*
X1477554Y43137D01*
X1477595Y43169D01*
X1477628Y43194D01*
X1477702Y43227D01*
X1477735D01*
X1477760Y43235D01*
X1477784D01*
X1477834Y43227D01*
X1477883Y43219D01*
X1477957Y43186D01*
X1478006Y43145D01*
X1478015Y43137D01*
X1478023Y43128D01*
X1478047Y43087D01*
X1478072Y43038D01*
X1478097Y42931D01*
Y42881D01*
X1478105Y42840D01*
Y42807D01*
Y42799D01*
Y41482D01*
X1478097Y41400D01*
X1478089Y41334D01*
X1478072Y41277D01*
X1478056Y41235D01*
X1478039Y41194D01*
X1478031Y41170D01*
X1478015Y41161D01*
Y41153D01*
X1477982Y41120D01*
X1477941Y41096D01*
X1477866Y41071D01*
X1477834Y41063D01*
X1477809Y41054D01*
X1477784D01*
X1477718Y41063D01*
X1477661Y41079D01*
X1477628Y41096D01*
X1477611Y41104D01*
X1477562Y41145D01*
X1477521Y41194D01*
X1477504Y41227D01*
X1477496Y41235D01*
X1477488Y41268D01*
X1477480Y41318D01*
X1477463Y41433D01*
Y41482D01*
Y41532D01*
Y41565D01*
Y41573D01*
X1477274Y41441D01*
X1477076Y41318D01*
X1476871Y41219D01*
X1476665Y41129D01*
X1476451Y41054D01*
X1476245Y40997D01*
X1476048Y40947D01*
X1475850Y40906D01*
X1475669Y40873D01*
X1475504Y40849D01*
X1475348Y40832D01*
X1475225Y40816D01*
X1475118D01*
X1475036Y40807D01*
X1474970D01*
X1474690Y40816D01*
X1474435Y40832D01*
X1474188Y40865D01*
X1473966Y40906D01*
X1473760Y40956D01*
X1473571Y41005D01*
X1473398Y41063D01*
X1473241Y41129D01*
X1473110Y41186D01*
X1472986Y41244D01*
X1472888Y41293D01*
X1472805Y41343D01*
X1472739Y41384D01*
X1472690Y41417D01*
X1472665Y41433D01*
X1472657Y41441D01*
X1472517Y41565D01*
X1472394Y41688D01*
X1472287Y41811D01*
X1472196Y41943D01*
X1472122Y42067D01*
X1472056Y42190D01*
X1472007Y42305D01*
X1471966Y42412D01*
X1471933Y42519D01*
X1471908Y42610D01*
X1471892Y42692D01*
X1471875Y42766D01*
Y42824D01*
X1471867Y42873D01*
Y42898D01*
Y42906D01*
Y43005D01*
X1471884Y43112D01*
X1471925Y43301D01*
X1471982Y43474D01*
X1472048Y43630D01*
X1472122Y43754D01*
X1472155Y43811D01*
X1472180Y43853D01*
X1472204Y43885D01*
X1472221Y43910D01*
X1472229Y43927D01*
X1472237Y43935D01*
X1472312Y44025D01*
X1472386Y44108D01*
X1472558Y44256D01*
X1472748Y44379D01*
X1472920Y44486D01*
X1473085Y44569D01*
X1473159Y44601D01*
X1473217Y44626D01*
X1473266Y44651D01*
X1473307Y44667D01*
X1473332Y44675D01*
X1473340D01*
X1473447Y44708D01*
X1473571Y44741D01*
X1473702Y44774D01*
X1473850Y44807D01*
X1474155Y44865D01*
X1474468Y44914D01*
X1474608Y44939D01*
X1474747Y44955D01*
X1474871Y44972D01*
X1474986Y44988D01*
X1475077Y44996D01*
X1475142Y45005D01*
X1475184Y45013D01*
X1475200D01*
X1475381Y45038D01*
X1475554Y45054D01*
X1475710Y45087D01*
X1475850Y45112D01*
X1475982Y45136D01*
X1476097Y45161D01*
X1476196Y45194D01*
X1476286Y45219D01*
X1476360Y45243D01*
X1476426Y45268D01*
X1476484Y45284D01*
X1476525Y45309D01*
X1476558Y45317D01*
X1476583Y45334D01*
X1476591Y45342D01*
X1476599D01*
X1476690Y45400D01*
X1476772Y45465D01*
X1476846Y45523D01*
X1476912Y45589D01*
X1476961Y45655D01*
X1477002Y45721D01*
X1477068Y45836D01*
X1477109Y45943D01*
X1477126Y46033D01*
X1477134Y46066D01*
Y46091D01*
Y46099D01*
Y46107D01*
X1477126Y46182D01*
X1477117Y46255D01*
X1477060Y46395D01*
X1476994Y46519D01*
X1476904Y46626D01*
X1476821Y46716D01*
X1476755Y46782D01*
X1476698Y46823D01*
X1476690Y46840D01*
X1476681D01*
X1476566Y46922D01*
X1476443Y46988D01*
X1476303Y47046D01*
X1476171Y47095D01*
X1475891Y47177D01*
X1475620Y47227D01*
X1475496Y47251D01*
X1475381Y47259D01*
X1475274Y47268D01*
X1475184Y47276D01*
X1475110Y47284D01*
X1475002D01*
X1474813Y47276D01*
X1474632Y47268D01*
X1474459Y47243D01*
X1474303Y47218D01*
X1474155Y47186D01*
X1474015Y47144D01*
X1473891Y47103D01*
X1473776Y47070D01*
X1473678Y47029D01*
X1473587Y46988D01*
X1473513Y46947D01*
X1473447Y46914D01*
X1473398Y46889D01*
X1473365Y46865D01*
X1473340Y46856D01*
X1473332Y46848D01*
X1473258Y46790D01*
X1473192Y46733D01*
X1473077Y46601D01*
X1472995Y46478D01*
X1472937Y46354D01*
X1472896Y46247D01*
X1472879Y46165D01*
X1472871Y46132D01*
X1472863Y46107D01*
Y46091D01*
Y46083D01*
X1472855Y46017D01*
X1472838Y45959D01*
X1472822Y45910D01*
X1472805Y45877D01*
X1472789Y45844D01*
X1472780Y45828D01*
X1472764Y45819D01*
Y45811D01*
X1472690Y45762D01*
X1472616Y45737D01*
X1472591D01*
X1472567Y45729D01*
X1472542D01*
X1472493Y45737D01*
X1472443Y45745D01*
X1472377Y45778D01*
X1472328Y45811D01*
X1472312Y45828D01*
X1472278Y45869D01*
X1472254Y45918D01*
X1472221Y46033D01*
Y46083D01*
X1472213Y46116D01*
Y46149D01*
Y46157D01*
Y47259D01*
Y47342D01*
X1472229Y47408D01*
X1472246Y47465D01*
X1472262Y47515D01*
X1472278Y47548D01*
X1472295Y47572D01*
X1472303Y47580D01*
X1472312Y47589D01*
X1472344Y47622D01*
X1472386Y47655D01*
X1472460Y47679D01*
X1472493Y47688D01*
X1472517Y47696D01*
X1472591D01*
X1472632Y47679D01*
X1472698Y47646D01*
X1472748Y47613D01*
X1472756Y47605D01*
X1472764Y47597D01*
X1472797Y47556D01*
X1472814Y47506D01*
X1472846Y47408D01*
Y47358D01*
X1472855Y47317D01*
Y47292D01*
Y47284D01*
X1473019Y47399D01*
X1473192Y47498D01*
X1473365Y47580D01*
X1473546Y47655D01*
X1473727Y47720D01*
X1473908Y47770D01*
X1474089Y47811D01*
X1474254Y47844D01*
X1474418Y47868D01*
X1474558Y47893D01*
X1474690Y47910D01*
X1474805Y47918D01*
X1474896Y47926D01*
X1475027D01*
X1475233Y47918D01*
D02*
G37*
G36*
X1362257D02*
X1362455Y47902D01*
X1362652Y47885D01*
X1362833Y47852D01*
X1362998Y47811D01*
X1363162Y47770D01*
X1363310Y47729D01*
X1363442Y47688D01*
X1363566Y47638D01*
X1363672Y47597D01*
X1363771Y47556D01*
X1363845Y47515D01*
X1363911Y47482D01*
X1363952Y47465D01*
X1363985Y47449D01*
X1363994Y47441D01*
X1364133Y47350D01*
X1364257Y47243D01*
X1364364Y47136D01*
X1364462Y47029D01*
X1364537Y46922D01*
X1364603Y46807D01*
X1364660Y46700D01*
X1364701Y46601D01*
X1364734Y46502D01*
X1364759Y46412D01*
X1364775Y46330D01*
X1364783Y46264D01*
X1364792Y46206D01*
X1364800Y46157D01*
Y46132D01*
Y46124D01*
X1364783Y45951D01*
X1364751Y45795D01*
X1364709Y45655D01*
X1364652Y45523D01*
X1364603Y45416D01*
X1364553Y45334D01*
X1364537Y45309D01*
X1364520Y45284D01*
X1364512Y45276D01*
Y45268D01*
X1364397Y45128D01*
X1364265Y45013D01*
X1364133Y44906D01*
X1364002Y44824D01*
X1363887Y44758D01*
X1363788Y44717D01*
X1363755Y44700D01*
X1363730Y44684D01*
X1363714Y44675D01*
X1363705D01*
X1363598Y44643D01*
X1363483Y44601D01*
X1363352Y44577D01*
X1363220Y44544D01*
X1362932Y44486D01*
X1362652Y44445D01*
X1362520Y44420D01*
X1362389Y44404D01*
X1362282Y44387D01*
X1362183Y44379D01*
X1362101Y44371D01*
X1362035Y44363D01*
X1362002Y44355D01*
X1361985D01*
X1361763Y44330D01*
X1361566Y44297D01*
X1361368Y44264D01*
X1361195Y44223D01*
X1361031Y44190D01*
X1360883Y44149D01*
X1360743Y44108D01*
X1360619Y44067D01*
X1360512Y44025D01*
X1360422Y43992D01*
X1360340Y43959D01*
X1360274Y43927D01*
X1360224Y43902D01*
X1360191Y43885D01*
X1360167Y43877D01*
X1360159Y43869D01*
X1360052Y43795D01*
X1359953Y43721D01*
X1359870Y43647D01*
X1359796Y43565D01*
X1359739Y43482D01*
X1359689Y43408D01*
X1359640Y43326D01*
X1359607Y43252D01*
X1359566Y43112D01*
X1359550Y43054D01*
X1359541Y43005D01*
X1359533Y42964D01*
Y42931D01*
Y42914D01*
Y42906D01*
X1359541Y42807D01*
X1359558Y42709D01*
X1359591Y42618D01*
X1359632Y42527D01*
X1359731Y42363D01*
X1359837Y42215D01*
X1359953Y42083D01*
X1360010Y42034D01*
X1360052Y41993D01*
X1360093Y41960D01*
X1360125Y41935D01*
X1360142Y41919D01*
X1360150Y41910D01*
X1360274Y41828D01*
X1360405Y41762D01*
X1360553Y41696D01*
X1360702Y41647D01*
X1361014Y41565D01*
X1361319Y41507D01*
X1361459Y41491D01*
X1361590Y41474D01*
X1361706Y41466D01*
X1361813Y41458D01*
X1361895Y41449D01*
X1362018D01*
X1362323Y41458D01*
X1362603Y41491D01*
X1362734Y41507D01*
X1362849Y41523D01*
X1362957Y41548D01*
X1363055Y41573D01*
X1363146Y41589D01*
X1363228Y41614D01*
X1363294Y41631D01*
X1363352Y41655D01*
X1363401Y41663D01*
X1363434Y41680D01*
X1363450Y41688D01*
X1363459D01*
X1363664Y41779D01*
X1363837Y41886D01*
X1363985Y41984D01*
X1364100Y42075D01*
X1364191Y42165D01*
X1364257Y42231D01*
X1364290Y42272D01*
X1364306Y42289D01*
X1364364Y42379D01*
X1364405Y42486D01*
X1364438Y42585D01*
X1364454Y42676D01*
X1364471Y42758D01*
X1364479Y42824D01*
Y42865D01*
Y42881D01*
Y42939D01*
X1364496Y42988D01*
X1364528Y43071D01*
X1364545Y43095D01*
X1364561Y43120D01*
X1364570Y43128D01*
X1364578Y43137D01*
X1364619Y43169D01*
X1364652Y43194D01*
X1364726Y43227D01*
X1364759D01*
X1364783Y43235D01*
X1364808D01*
X1364858Y43227D01*
X1364907Y43219D01*
X1364981Y43186D01*
X1365030Y43145D01*
X1365039Y43137D01*
X1365047Y43128D01*
X1365072Y43087D01*
X1365096Y43038D01*
X1365121Y42931D01*
Y42881D01*
X1365129Y42840D01*
Y42807D01*
Y42799D01*
Y41482D01*
X1365121Y41400D01*
X1365113Y41334D01*
X1365096Y41277D01*
X1365080Y41235D01*
X1365063Y41194D01*
X1365055Y41170D01*
X1365039Y41161D01*
Y41153D01*
X1365006Y41120D01*
X1364965Y41096D01*
X1364890Y41071D01*
X1364858Y41063D01*
X1364833Y41054D01*
X1364808D01*
X1364742Y41063D01*
X1364685Y41079D01*
X1364652Y41096D01*
X1364635Y41104D01*
X1364586Y41145D01*
X1364545Y41194D01*
X1364528Y41227D01*
X1364520Y41235D01*
X1364512Y41268D01*
X1364504Y41318D01*
X1364487Y41433D01*
Y41482D01*
Y41532D01*
Y41565D01*
Y41573D01*
X1364298Y41441D01*
X1364100Y41318D01*
X1363895Y41219D01*
X1363689Y41129D01*
X1363475Y41054D01*
X1363269Y40997D01*
X1363072Y40947D01*
X1362874Y40906D01*
X1362693Y40873D01*
X1362529Y40849D01*
X1362372Y40832D01*
X1362249Y40816D01*
X1362142D01*
X1362059Y40807D01*
X1361994D01*
X1361714Y40816D01*
X1361459Y40832D01*
X1361212Y40865D01*
X1360990Y40906D01*
X1360784Y40956D01*
X1360595Y41005D01*
X1360422Y41063D01*
X1360266Y41129D01*
X1360134Y41186D01*
X1360010Y41244D01*
X1359912Y41293D01*
X1359829Y41343D01*
X1359763Y41384D01*
X1359714Y41417D01*
X1359689Y41433D01*
X1359681Y41441D01*
X1359541Y41565D01*
X1359418Y41688D01*
X1359311Y41811D01*
X1359220Y41943D01*
X1359146Y42067D01*
X1359080Y42190D01*
X1359031Y42305D01*
X1358990Y42412D01*
X1358957Y42519D01*
X1358932Y42610D01*
X1358916Y42692D01*
X1358899Y42766D01*
Y42824D01*
X1358891Y42873D01*
Y42898D01*
Y42906D01*
Y43005D01*
X1358908Y43112D01*
X1358949Y43301D01*
X1359006Y43474D01*
X1359072Y43630D01*
X1359146Y43754D01*
X1359179Y43811D01*
X1359204Y43853D01*
X1359229Y43885D01*
X1359245Y43910D01*
X1359253Y43927D01*
X1359261Y43935D01*
X1359335Y44025D01*
X1359410Y44108D01*
X1359582Y44256D01*
X1359772Y44379D01*
X1359944Y44486D01*
X1360109Y44569D01*
X1360183Y44601D01*
X1360241Y44626D01*
X1360290Y44651D01*
X1360331Y44667D01*
X1360356Y44675D01*
X1360364D01*
X1360471Y44708D01*
X1360595Y44741D01*
X1360726Y44774D01*
X1360874Y44807D01*
X1361179Y44865D01*
X1361492Y44914D01*
X1361632Y44939D01*
X1361772Y44955D01*
X1361895Y44972D01*
X1362010Y44988D01*
X1362101Y44996D01*
X1362166Y45005D01*
X1362208Y45013D01*
X1362224D01*
X1362405Y45038D01*
X1362578Y45054D01*
X1362734Y45087D01*
X1362874Y45112D01*
X1363006Y45136D01*
X1363121Y45161D01*
X1363220Y45194D01*
X1363310Y45219D01*
X1363385Y45243D01*
X1363450Y45268D01*
X1363508Y45284D01*
X1363549Y45309D01*
X1363582Y45317D01*
X1363607Y45334D01*
X1363615Y45342D01*
X1363623D01*
X1363714Y45400D01*
X1363796Y45465D01*
X1363870Y45523D01*
X1363936Y45589D01*
X1363985Y45655D01*
X1364026Y45721D01*
X1364092Y45836D01*
X1364133Y45943D01*
X1364150Y46033D01*
X1364158Y46066D01*
Y46091D01*
Y46099D01*
Y46107D01*
X1364150Y46182D01*
X1364142Y46255D01*
X1364084Y46395D01*
X1364018Y46519D01*
X1363928Y46626D01*
X1363845Y46716D01*
X1363779Y46782D01*
X1363722Y46823D01*
X1363714Y46840D01*
X1363705D01*
X1363590Y46922D01*
X1363467Y46988D01*
X1363327Y47046D01*
X1363195Y47095D01*
X1362915Y47177D01*
X1362644Y47227D01*
X1362520Y47251D01*
X1362405Y47259D01*
X1362298Y47268D01*
X1362208Y47276D01*
X1362134Y47284D01*
X1362027D01*
X1361837Y47276D01*
X1361656Y47268D01*
X1361483Y47243D01*
X1361327Y47218D01*
X1361179Y47186D01*
X1361039Y47144D01*
X1360916Y47103D01*
X1360800Y47070D01*
X1360702Y47029D01*
X1360611Y46988D01*
X1360537Y46947D01*
X1360471Y46914D01*
X1360422Y46889D01*
X1360389Y46865D01*
X1360364Y46856D01*
X1360356Y46848D01*
X1360282Y46790D01*
X1360216Y46733D01*
X1360101Y46601D01*
X1360019Y46478D01*
X1359961Y46354D01*
X1359920Y46247D01*
X1359903Y46165D01*
X1359895Y46132D01*
X1359887Y46107D01*
Y46091D01*
Y46083D01*
X1359879Y46017D01*
X1359862Y45959D01*
X1359846Y45910D01*
X1359829Y45877D01*
X1359813Y45844D01*
X1359805Y45828D01*
X1359788Y45819D01*
Y45811D01*
X1359714Y45762D01*
X1359640Y45737D01*
X1359615D01*
X1359591Y45729D01*
X1359566D01*
X1359517Y45737D01*
X1359467Y45745D01*
X1359401Y45778D01*
X1359352Y45811D01*
X1359335Y45828D01*
X1359303Y45869D01*
X1359278Y45918D01*
X1359245Y46033D01*
Y46083D01*
X1359237Y46116D01*
Y46149D01*
Y46157D01*
Y47259D01*
Y47342D01*
X1359253Y47408D01*
X1359270Y47465D01*
X1359286Y47515D01*
X1359303Y47548D01*
X1359319Y47572D01*
X1359327Y47580D01*
X1359335Y47589D01*
X1359368Y47622D01*
X1359410Y47655D01*
X1359484Y47679D01*
X1359517Y47688D01*
X1359541Y47696D01*
X1359615D01*
X1359657Y47679D01*
X1359722Y47646D01*
X1359772Y47613D01*
X1359780Y47605D01*
X1359788Y47597D01*
X1359821Y47556D01*
X1359837Y47506D01*
X1359870Y47408D01*
Y47358D01*
X1359879Y47317D01*
Y47292D01*
Y47284D01*
X1360043Y47399D01*
X1360216Y47498D01*
X1360389Y47580D01*
X1360570Y47655D01*
X1360751Y47720D01*
X1360932Y47770D01*
X1361113Y47811D01*
X1361278Y47844D01*
X1361442Y47868D01*
X1361582Y47893D01*
X1361714Y47910D01*
X1361829Y47918D01*
X1361920Y47926D01*
X1362051D01*
X1362257Y47918D01*
D02*
G37*
G36*
X1324434D02*
X1324705Y47885D01*
X1324969Y47827D01*
X1325207Y47770D01*
X1325438Y47688D01*
X1325652Y47597D01*
X1325849Y47506D01*
X1326022Y47416D01*
X1326187Y47317D01*
X1326327Y47227D01*
X1326442Y47136D01*
X1326549Y47062D01*
X1326623Y46996D01*
X1326680Y46939D01*
X1326722Y46906D01*
X1326730Y46897D01*
X1326911Y46700D01*
X1327067Y46494D01*
X1327199Y46280D01*
X1327322Y46058D01*
X1327421Y45844D01*
X1327503Y45630D01*
X1327569Y45416D01*
X1327619Y45219D01*
X1327668Y45029D01*
X1327693Y44857D01*
X1327717Y44708D01*
X1327734Y44577D01*
X1327742Y44461D01*
X1327750Y44379D01*
Y44355D01*
Y44330D01*
Y44322D01*
Y44313D01*
X1327742Y44033D01*
X1327709Y43770D01*
X1327660Y43515D01*
X1327594Y43276D01*
X1327520Y43054D01*
X1327438Y42849D01*
X1327347Y42659D01*
X1327248Y42486D01*
X1327158Y42330D01*
X1327067Y42190D01*
X1326985Y42075D01*
X1326911Y41976D01*
X1326845Y41894D01*
X1326796Y41845D01*
X1326763Y41803D01*
X1326754Y41795D01*
X1326557Y41622D01*
X1326360Y41466D01*
X1326145Y41334D01*
X1325932Y41227D01*
X1325718Y41129D01*
X1325504Y41046D01*
X1325298Y40980D01*
X1325100Y40931D01*
X1324911Y40890D01*
X1324738Y40857D01*
X1324590Y40841D01*
X1324450Y40824D01*
X1324343Y40816D01*
X1324261Y40807D01*
X1324195D01*
X1323915Y40816D01*
X1323636Y40841D01*
X1323372Y40882D01*
X1323117Y40939D01*
X1322870Y40997D01*
X1322648Y41063D01*
X1322434Y41137D01*
X1322236Y41219D01*
X1322055Y41293D01*
X1321899Y41367D01*
X1321759Y41433D01*
X1321636Y41499D01*
X1321545Y41548D01*
X1321479Y41589D01*
X1321438Y41614D01*
X1321422Y41622D01*
X1321282Y41713D01*
X1321167Y41803D01*
X1321060Y41886D01*
X1320969Y41968D01*
X1320895Y42042D01*
X1320829Y42116D01*
X1320780Y42174D01*
X1320739Y42231D01*
X1320706Y42289D01*
X1320681Y42330D01*
X1320648Y42404D01*
X1320640Y42445D01*
Y42462D01*
Y42511D01*
X1320656Y42552D01*
X1320681Y42626D01*
X1320714Y42667D01*
X1320722Y42684D01*
X1320730D01*
X1320763Y42717D01*
X1320804Y42733D01*
X1320879Y42766D01*
X1320903D01*
X1320928Y42774D01*
X1320953D01*
X1321002Y42766D01*
X1321051Y42750D01*
X1321142Y42700D01*
X1321175Y42667D01*
X1321208Y42643D01*
X1321224Y42626D01*
X1321232Y42618D01*
X1321471Y42404D01*
X1321718Y42215D01*
X1321948Y42067D01*
X1322171Y41935D01*
X1322269Y41886D01*
X1322360Y41845D01*
X1322442Y41803D01*
X1322508Y41779D01*
X1322566Y41754D01*
X1322607Y41737D01*
X1322632Y41721D01*
X1322640D01*
X1322928Y41631D01*
X1323208Y41565D01*
X1323463Y41515D01*
X1323578Y41499D01*
X1323693Y41482D01*
X1323792Y41474D01*
X1323882Y41466D01*
X1323965Y41458D01*
X1324030D01*
X1324088Y41449D01*
X1324162D01*
X1324401Y41458D01*
X1324631Y41482D01*
X1324845Y41523D01*
X1325051Y41573D01*
X1325232Y41631D01*
X1325413Y41705D01*
X1325569Y41770D01*
X1325718Y41853D01*
X1325849Y41927D01*
X1325965Y42001D01*
X1326063Y42067D01*
X1326145Y42133D01*
X1326211Y42182D01*
X1326252Y42223D01*
X1326285Y42248D01*
X1326294Y42256D01*
X1326434Y42412D01*
X1326565Y42577D01*
X1326672Y42750D01*
X1326763Y42923D01*
X1326845Y43095D01*
X1326911Y43268D01*
X1326960Y43433D01*
X1327010Y43597D01*
X1327043Y43745D01*
X1327067Y43885D01*
X1327084Y44009D01*
X1327092Y44116D01*
X1327100Y44198D01*
X1327108Y44264D01*
Y44305D01*
Y44322D01*
X1327100Y44535D01*
X1327076Y44749D01*
X1327043Y44947D01*
X1326993Y45136D01*
X1326936Y45317D01*
X1326870Y45490D01*
X1326804Y45647D01*
X1326738Y45795D01*
X1326672Y45926D01*
X1326598Y46042D01*
X1326541Y46140D01*
X1326483Y46231D01*
X1326434Y46297D01*
X1326401Y46346D01*
X1326376Y46379D01*
X1326368Y46387D01*
X1326220Y46544D01*
X1326063Y46684D01*
X1325890Y46807D01*
X1325718Y46906D01*
X1325536Y46996D01*
X1325356Y47062D01*
X1325174Y47128D01*
X1325002Y47169D01*
X1324837Y47210D01*
X1324681Y47235D01*
X1324541Y47259D01*
X1324426Y47268D01*
X1324327Y47276D01*
X1324253Y47284D01*
X1324187D01*
X1323981Y47276D01*
X1323784Y47259D01*
X1323603Y47235D01*
X1323430Y47210D01*
X1323265Y47169D01*
X1323117Y47128D01*
X1322985Y47087D01*
X1322862Y47037D01*
X1322747Y46988D01*
X1322656Y46947D01*
X1322574Y46906D01*
X1322508Y46865D01*
X1322450Y46840D01*
X1322417Y46815D01*
X1322393Y46799D01*
X1322385Y46790D01*
X1322261Y46700D01*
X1322162Y46601D01*
X1322064Y46511D01*
X1321990Y46420D01*
X1321915Y46330D01*
X1321858Y46239D01*
X1321808Y46157D01*
X1321767Y46083D01*
X1321710Y45943D01*
X1321693Y45885D01*
X1321677Y45836D01*
X1321669Y45803D01*
X1321660Y45770D01*
Y45753D01*
Y45745D01*
X1321652Y45671D01*
X1321644Y45614D01*
X1321628Y45564D01*
X1321611Y45523D01*
X1321595Y45490D01*
X1321586Y45465D01*
X1321570Y45457D01*
Y45449D01*
X1321496Y45400D01*
X1321422Y45375D01*
X1321397D01*
X1321372Y45367D01*
X1321348D01*
X1321298Y45375D01*
X1321249Y45383D01*
X1321183Y45416D01*
X1321134Y45449D01*
X1321117Y45465D01*
X1321084Y45507D01*
X1321060Y45564D01*
X1321035Y45671D01*
X1321027Y45721D01*
X1321019Y45762D01*
Y45795D01*
Y45803D01*
Y47251D01*
Y47334D01*
X1321035Y47408D01*
X1321051Y47465D01*
X1321068Y47506D01*
X1321084Y47548D01*
X1321101Y47572D01*
X1321109Y47580D01*
X1321117Y47589D01*
X1321150Y47622D01*
X1321191Y47655D01*
X1321265Y47679D01*
X1321298Y47688D01*
X1321323Y47696D01*
X1321397D01*
X1321438Y47679D01*
X1321504Y47646D01*
X1321553Y47613D01*
X1321562Y47605D01*
X1321570Y47597D01*
X1321603Y47556D01*
X1321619Y47506D01*
X1321652Y47391D01*
Y47342D01*
X1321660Y47301D01*
Y47268D01*
Y47259D01*
Y47046D01*
X1321858Y47202D01*
X1322055Y47334D01*
X1322269Y47457D01*
X1322475Y47556D01*
X1322689Y47638D01*
X1322895Y47712D01*
X1323092Y47770D01*
X1323282Y47819D01*
X1323463Y47852D01*
X1323627Y47877D01*
X1323775Y47902D01*
X1323899Y47910D01*
X1324006Y47918D01*
X1324080Y47926D01*
X1324146D01*
X1324434Y47918D01*
D02*
G37*
G36*
X1438776D02*
X1438924Y47885D01*
X1439072Y47844D01*
X1439220Y47786D01*
X1439360Y47720D01*
X1439500Y47646D01*
X1439624Y47572D01*
X1439747Y47490D01*
X1439854Y47408D01*
X1439953Y47334D01*
X1440043Y47259D01*
X1440117Y47194D01*
X1440175Y47136D01*
X1440224Y47095D01*
X1440249Y47062D01*
X1440257Y47054D01*
Y47696D01*
X1441516D01*
X1441590Y47679D01*
X1441648Y47671D01*
X1441689Y47655D01*
X1441730Y47638D01*
X1441755Y47622D01*
X1441763Y47613D01*
X1441771Y47605D01*
X1441804Y47572D01*
X1441829Y47531D01*
X1441854Y47457D01*
X1441862Y47424D01*
X1441870Y47399D01*
Y47383D01*
Y47375D01*
X1441862Y47325D01*
X1441854Y47276D01*
X1441821Y47210D01*
X1441788Y47161D01*
X1441771Y47153D01*
Y47144D01*
X1441730Y47111D01*
X1441673Y47095D01*
X1441566Y47062D01*
X1441516D01*
X1441475Y47054D01*
X1440899D01*
Y41696D01*
X1441516D01*
X1441590Y41680D01*
X1441648Y41672D01*
X1441689Y41655D01*
X1441730Y41639D01*
X1441755Y41622D01*
X1441763Y41614D01*
X1441771Y41606D01*
X1441804Y41573D01*
X1441829Y41532D01*
X1441854Y41458D01*
X1441862Y41425D01*
X1441870Y41400D01*
Y41384D01*
Y41375D01*
X1441862Y41326D01*
X1441854Y41277D01*
X1441821Y41211D01*
X1441788Y41161D01*
X1441771Y41153D01*
Y41145D01*
X1441730Y41112D01*
X1441673Y41096D01*
X1441566Y41063D01*
X1441516D01*
X1441475Y41054D01*
X1439722D01*
X1439640Y41063D01*
X1439574Y41071D01*
X1439516Y41087D01*
X1439467Y41104D01*
X1439434Y41120D01*
X1439409Y41129D01*
X1439401Y41145D01*
X1439393D01*
X1439360Y41178D01*
X1439327Y41219D01*
X1439303Y41293D01*
X1439294Y41326D01*
X1439286Y41351D01*
Y41367D01*
Y41375D01*
X1439294Y41425D01*
X1439303Y41474D01*
X1439335Y41540D01*
X1439377Y41589D01*
X1439385Y41606D01*
X1439393D01*
X1439434Y41639D01*
X1439484Y41655D01*
X1439591Y41688D01*
X1439640D01*
X1439681Y41696D01*
X1440257D01*
Y45976D01*
X1440158Y46116D01*
X1440068Y46239D01*
X1439977Y46363D01*
X1439887Y46469D01*
X1439805Y46568D01*
X1439722Y46651D01*
X1439648Y46733D01*
X1439574Y46799D01*
X1439508Y46865D01*
X1439451Y46914D01*
X1439401Y46955D01*
X1439360Y46996D01*
X1439327Y47021D01*
X1439303Y47037D01*
X1439286Y47054D01*
X1439278D01*
X1439154Y47128D01*
X1439031Y47186D01*
X1438916Y47227D01*
X1438817Y47259D01*
X1438727Y47276D01*
X1438661Y47284D01*
X1438603D01*
X1438463Y47268D01*
X1438340Y47235D01*
X1438216Y47177D01*
X1438118Y47120D01*
X1438035Y47054D01*
X1437969Y46996D01*
X1437936Y46963D01*
X1437920Y46947D01*
X1437821Y46815D01*
X1437747Y46675D01*
X1437690Y46527D01*
X1437657Y46395D01*
X1437632Y46280D01*
X1437624Y46182D01*
X1437616Y46149D01*
Y46124D01*
Y46107D01*
Y46099D01*
Y41054D01*
X1436439D01*
X1436356Y41063D01*
X1436290Y41071D01*
X1436233Y41087D01*
X1436183Y41104D01*
X1436151Y41120D01*
X1436126Y41129D01*
X1436118Y41145D01*
X1436109D01*
X1436077Y41178D01*
X1436044Y41219D01*
X1436019Y41293D01*
X1436011Y41326D01*
X1436003Y41351D01*
Y41367D01*
Y41375D01*
X1436011Y41425D01*
X1436019Y41474D01*
X1436052Y41540D01*
X1436093Y41589D01*
X1436101Y41606D01*
X1436109D01*
X1436151Y41639D01*
X1436200Y41655D01*
X1436307Y41688D01*
X1436356D01*
X1436398Y41696D01*
X1436974D01*
Y45976D01*
X1436883Y46116D01*
X1436792Y46239D01*
X1436702Y46363D01*
X1436620Y46461D01*
X1436546Y46560D01*
X1436472Y46642D01*
X1436406Y46716D01*
X1436340Y46782D01*
X1436282Y46840D01*
X1436233Y46889D01*
X1436192Y46930D01*
X1436151Y46963D01*
X1436126Y46980D01*
X1436101Y46996D01*
X1436093Y47013D01*
X1436085D01*
X1435937Y47103D01*
X1435797Y47169D01*
X1435673Y47218D01*
X1435558Y47251D01*
X1435468Y47268D01*
X1435394Y47284D01*
X1435336D01*
X1435196Y47268D01*
X1435056Y47235D01*
X1434941Y47177D01*
X1434834Y47120D01*
X1434752Y47062D01*
X1434686Y47004D01*
X1434653Y46972D01*
X1434636Y46955D01*
X1434538Y46832D01*
X1434464Y46692D01*
X1434406Y46560D01*
X1434373Y46428D01*
X1434348Y46313D01*
X1434340Y46223D01*
X1434332Y46190D01*
Y46165D01*
Y46149D01*
Y46140D01*
Y41054D01*
X1433155D01*
X1433073Y41063D01*
X1433007Y41071D01*
X1432949Y41087D01*
X1432900Y41104D01*
X1432867Y41120D01*
X1432842Y41129D01*
X1432834Y41145D01*
X1432826D01*
X1432793Y41178D01*
X1432760Y41219D01*
X1432735Y41293D01*
X1432727Y41326D01*
X1432719Y41351D01*
Y41367D01*
Y41375D01*
X1432727Y41425D01*
X1432735Y41474D01*
X1432768Y41540D01*
X1432809Y41589D01*
X1432818Y41606D01*
X1432826D01*
X1432867Y41639D01*
X1432916Y41655D01*
X1433023Y41688D01*
X1433073D01*
X1433114Y41696D01*
X1433690D01*
Y46198D01*
X1433698Y46330D01*
X1433715Y46453D01*
X1433739Y46576D01*
X1433772Y46692D01*
X1433863Y46906D01*
X1433961Y47095D01*
X1434019Y47177D01*
X1434068Y47251D01*
X1434110Y47317D01*
X1434151Y47375D01*
X1434192Y47416D01*
X1434217Y47449D01*
X1434233Y47465D01*
X1434241Y47474D01*
X1434324Y47556D01*
X1434406Y47622D01*
X1434496Y47688D01*
X1434587Y47737D01*
X1434776Y47819D01*
X1434957Y47868D01*
X1435114Y47902D01*
X1435179Y47910D01*
X1435245Y47918D01*
X1435295Y47926D01*
X1435361D01*
X1435525Y47918D01*
X1435690Y47885D01*
X1435838Y47844D01*
X1435970Y47794D01*
X1436085Y47745D01*
X1436175Y47704D01*
X1436208Y47688D01*
X1436233Y47671D01*
X1436241Y47663D01*
X1436249D01*
X1436414Y47556D01*
X1436570Y47424D01*
X1436718Y47292D01*
X1436850Y47169D01*
X1436965Y47046D01*
X1437048Y46955D01*
X1437081Y46914D01*
X1437105Y46889D01*
X1437113Y46873D01*
X1437122Y46865D01*
X1437220Y47054D01*
X1437327Y47218D01*
X1437434Y47350D01*
X1437533Y47465D01*
X1437624Y47548D01*
X1437690Y47613D01*
X1437739Y47655D01*
X1437747Y47663D01*
X1437755D01*
X1437895Y47753D01*
X1438043Y47819D01*
X1438192Y47860D01*
X1438323Y47893D01*
X1438447Y47910D01*
X1438537Y47926D01*
X1438620D01*
X1438776Y47918D01*
D02*
G37*
G36*
X1428250Y47910D02*
X1428390Y47893D01*
X1428538Y47877D01*
X1428843Y47819D01*
X1429131Y47762D01*
X1429271Y47729D01*
X1429394Y47704D01*
X1429509Y47671D01*
X1429608Y47646D01*
X1429690Y47630D01*
X1429756Y47613D01*
X1429789Y47597D01*
X1429806D01*
X1429937Y47564D01*
X1430061Y47531D01*
X1430168Y47498D01*
X1430258Y47465D01*
X1430341Y47441D01*
X1430415Y47408D01*
X1430472Y47391D01*
X1430522Y47366D01*
X1430563Y47350D01*
X1430596Y47334D01*
X1430637Y47309D01*
X1430661Y47292D01*
X1430670Y47284D01*
X1430711Y47218D01*
X1430735Y47153D01*
X1430744Y47103D01*
Y47087D01*
Y47078D01*
X1430727Y46980D01*
X1430703Y46914D01*
X1430678Y46865D01*
X1430661Y46856D01*
Y46848D01*
X1430629Y46815D01*
X1430587Y46799D01*
X1430522Y46766D01*
X1430464Y46757D01*
X1430415D01*
X1430373Y46766D01*
X1430266Y46799D01*
X1430217Y46807D01*
X1430176Y46823D01*
X1430143Y46832D01*
X1430135D01*
X1429888Y46914D01*
X1429657Y46980D01*
X1429435Y47046D01*
X1429229Y47095D01*
X1429040Y47136D01*
X1428867Y47177D01*
X1428711Y47202D01*
X1428571Y47227D01*
X1428439Y47243D01*
X1428333Y47259D01*
X1428234Y47268D01*
X1428160Y47276D01*
X1428102Y47284D01*
X1428020D01*
X1427839Y47276D01*
X1427674Y47268D01*
X1427518Y47251D01*
X1427378Y47227D01*
X1427246Y47194D01*
X1427123Y47161D01*
X1427016Y47128D01*
X1426917Y47087D01*
X1426826Y47054D01*
X1426752Y47013D01*
X1426695Y46980D01*
X1426637Y46955D01*
X1426596Y46922D01*
X1426571Y46906D01*
X1426555Y46897D01*
X1426547Y46889D01*
X1426456Y46815D01*
X1426382Y46733D01*
X1426316Y46659D01*
X1426259Y46576D01*
X1426209Y46502D01*
X1426176Y46420D01*
X1426111Y46280D01*
X1426078Y46149D01*
X1426069Y46099D01*
X1426061Y46050D01*
X1426053Y46009D01*
Y45984D01*
Y45967D01*
Y45959D01*
Y44914D01*
X1426275Y44955D01*
X1426489Y44996D01*
X1426678Y45029D01*
X1426851Y45054D01*
X1426925Y45062D01*
X1426991Y45071D01*
X1427049Y45079D01*
X1427098Y45087D01*
X1427139D01*
X1427164Y45095D01*
X1427189D01*
X1427378Y45112D01*
X1427559Y45128D01*
X1427724Y45136D01*
X1427863Y45145D01*
X1427987Y45153D01*
X1428151D01*
X1428456Y45145D01*
X1428736Y45120D01*
X1428999Y45087D01*
X1429238Y45046D01*
X1429468Y44988D01*
X1429674Y44931D01*
X1429855Y44865D01*
X1430028Y44807D01*
X1430176Y44741D01*
X1430299Y44675D01*
X1430415Y44618D01*
X1430505Y44560D01*
X1430571Y44519D01*
X1430620Y44486D01*
X1430653Y44461D01*
X1430661Y44453D01*
X1430810Y44322D01*
X1430941Y44182D01*
X1431057Y44042D01*
X1431155Y43902D01*
X1431237Y43762D01*
X1431312Y43630D01*
X1431361Y43499D01*
X1431410Y43375D01*
X1431443Y43260D01*
X1431468Y43153D01*
X1431493Y43062D01*
X1431501Y42980D01*
X1431509Y42914D01*
X1431517Y42865D01*
Y42832D01*
Y42824D01*
X1431509Y42667D01*
X1431493Y42519D01*
X1431460Y42379D01*
X1431419Y42239D01*
X1431369Y42116D01*
X1431312Y42001D01*
X1431254Y41886D01*
X1431188Y41787D01*
X1431131Y41705D01*
X1431073Y41622D01*
X1431015Y41556D01*
X1430966Y41499D01*
X1430925Y41449D01*
X1430892Y41417D01*
X1430875Y41400D01*
X1430867Y41392D01*
X1430735Y41293D01*
X1430604Y41203D01*
X1430456Y41120D01*
X1430308Y41054D01*
X1430159Y40997D01*
X1430011Y40947D01*
X1429863Y40915D01*
X1429715Y40882D01*
X1429583Y40857D01*
X1429460Y40841D01*
X1429345Y40824D01*
X1429246Y40816D01*
X1429172Y40807D01*
X1429057D01*
X1428760Y40824D01*
X1428472Y40857D01*
X1428184Y40915D01*
X1427913Y40989D01*
X1427649Y41079D01*
X1427402Y41178D01*
X1427172Y41285D01*
X1426958Y41400D01*
X1426761Y41507D01*
X1426580Y41614D01*
X1426431Y41713D01*
X1426300Y41803D01*
X1426193Y41877D01*
X1426119Y41935D01*
X1426069Y41968D01*
X1426053Y41984D01*
Y41054D01*
X1424555D01*
X1424473Y41063D01*
X1424407Y41071D01*
X1424349Y41087D01*
X1424300Y41104D01*
X1424267Y41120D01*
X1424242Y41129D01*
X1424234Y41145D01*
X1424226D01*
X1424193Y41178D01*
X1424160Y41219D01*
X1424135Y41293D01*
X1424127Y41326D01*
X1424119Y41351D01*
Y41367D01*
Y41375D01*
X1424127Y41425D01*
X1424135Y41474D01*
X1424168Y41540D01*
X1424209Y41589D01*
X1424218Y41606D01*
X1424226D01*
X1424267Y41639D01*
X1424316Y41655D01*
X1424423Y41688D01*
X1424473D01*
X1424514Y41696D01*
X1425411D01*
Y45959D01*
X1425419Y46099D01*
X1425444Y46239D01*
X1425477Y46363D01*
X1425518Y46494D01*
X1425625Y46725D01*
X1425691Y46823D01*
X1425748Y46922D01*
X1425814Y47013D01*
X1425880Y47087D01*
X1425938Y47153D01*
X1425987Y47210D01*
X1426028Y47259D01*
X1426061Y47292D01*
X1426086Y47309D01*
X1426094Y47317D01*
X1426226Y47424D01*
X1426374Y47515D01*
X1426522Y47597D01*
X1426678Y47671D01*
X1426835Y47729D01*
X1426999Y47778D01*
X1427147Y47819D01*
X1427304Y47852D01*
X1427444Y47877D01*
X1427575Y47893D01*
X1427691Y47910D01*
X1427798Y47918D01*
X1427880Y47926D01*
X1428118D01*
X1428250Y47910D01*
D02*
G37*
G36*
X1381177D02*
X1381317Y47893D01*
X1381465Y47877D01*
X1381769Y47819D01*
X1382057Y47762D01*
X1382197Y47729D01*
X1382321Y47704D01*
X1382436Y47671D01*
X1382535Y47646D01*
X1382617Y47630D01*
X1382683Y47613D01*
X1382716Y47597D01*
X1382732D01*
X1382864Y47564D01*
X1382987Y47531D01*
X1383094Y47498D01*
X1383185Y47465D01*
X1383267Y47441D01*
X1383341Y47408D01*
X1383399Y47391D01*
X1383448Y47366D01*
X1383489Y47350D01*
X1383522Y47334D01*
X1383564Y47309D01*
X1383588Y47292D01*
X1383596Y47284D01*
X1383638Y47218D01*
X1383662Y47153D01*
X1383670Y47103D01*
Y47087D01*
Y47078D01*
X1383654Y46980D01*
X1383629Y46914D01*
X1383605Y46865D01*
X1383588Y46856D01*
Y46848D01*
X1383555Y46815D01*
X1383514Y46799D01*
X1383448Y46766D01*
X1383391Y46757D01*
X1383341D01*
X1383300Y46766D01*
X1383193Y46799D01*
X1383144Y46807D01*
X1383103Y46823D01*
X1383070Y46832D01*
X1383061D01*
X1382815Y46914D01*
X1382584Y46980D01*
X1382362Y47046D01*
X1382156Y47095D01*
X1381967Y47136D01*
X1381794Y47177D01*
X1381638Y47202D01*
X1381498Y47227D01*
X1381366Y47243D01*
X1381259Y47259D01*
X1381160Y47268D01*
X1381086Y47276D01*
X1381029Y47284D01*
X1380946D01*
X1380765Y47276D01*
X1380601Y47268D01*
X1380444Y47251D01*
X1380305Y47227D01*
X1380173Y47194D01*
X1380049Y47161D01*
X1379942Y47128D01*
X1379844Y47087D01*
X1379753Y47054D01*
X1379679Y47013D01*
X1379621Y46980D01*
X1379564Y46955D01*
X1379523Y46922D01*
X1379498Y46906D01*
X1379482Y46897D01*
X1379473Y46889D01*
X1379383Y46815D01*
X1379309Y46733D01*
X1379243Y46659D01*
X1379185Y46576D01*
X1379136Y46502D01*
X1379103Y46420D01*
X1379037Y46280D01*
X1379004Y46149D01*
X1378996Y46099D01*
X1378988Y46050D01*
X1378980Y46009D01*
Y45984D01*
Y45967D01*
Y45959D01*
Y44914D01*
X1379202Y44955D01*
X1379416Y44996D01*
X1379605Y45029D01*
X1379778Y45054D01*
X1379852Y45062D01*
X1379918Y45071D01*
X1379975Y45079D01*
X1380025Y45087D01*
X1380066D01*
X1380091Y45095D01*
X1380115D01*
X1380305Y45112D01*
X1380486Y45128D01*
X1380650Y45136D01*
X1380790Y45145D01*
X1380914Y45153D01*
X1381078D01*
X1381383Y45145D01*
X1381662Y45120D01*
X1381926Y45087D01*
X1382164Y45046D01*
X1382395Y44988D01*
X1382601Y44931D01*
X1382782Y44865D01*
X1382955Y44807D01*
X1383103Y44741D01*
X1383226Y44675D01*
X1383341Y44618D01*
X1383432Y44560D01*
X1383498Y44519D01*
X1383547Y44486D01*
X1383580Y44461D01*
X1383588Y44453D01*
X1383736Y44322D01*
X1383868Y44182D01*
X1383983Y44042D01*
X1384082Y43902D01*
X1384164Y43762D01*
X1384238Y43630D01*
X1384288Y43499D01*
X1384337Y43375D01*
X1384370Y43260D01*
X1384395Y43153D01*
X1384419Y43062D01*
X1384428Y42980D01*
X1384436Y42914D01*
X1384444Y42865D01*
Y42832D01*
Y42824D01*
X1384436Y42667D01*
X1384419Y42519D01*
X1384386Y42379D01*
X1384345Y42239D01*
X1384296Y42116D01*
X1384238Y42001D01*
X1384181Y41886D01*
X1384115Y41787D01*
X1384057Y41705D01*
X1384000Y41622D01*
X1383942Y41556D01*
X1383893Y41499D01*
X1383851Y41449D01*
X1383819Y41417D01*
X1383802Y41400D01*
X1383794Y41392D01*
X1383662Y41293D01*
X1383530Y41203D01*
X1383382Y41120D01*
X1383234Y41054D01*
X1383086Y40997D01*
X1382938Y40947D01*
X1382790Y40915D01*
X1382642Y40882D01*
X1382510Y40857D01*
X1382387Y40841D01*
X1382271Y40824D01*
X1382173Y40816D01*
X1382099Y40807D01*
X1381983D01*
X1381687Y40824D01*
X1381399Y40857D01*
X1381111Y40915D01*
X1380840Y40989D01*
X1380576Y41079D01*
X1380329Y41178D01*
X1380099Y41285D01*
X1379885Y41400D01*
X1379687Y41507D01*
X1379506Y41614D01*
X1379358Y41713D01*
X1379227Y41803D01*
X1379120Y41877D01*
X1379045Y41935D01*
X1378996Y41968D01*
X1378980Y41984D01*
Y41054D01*
X1377482D01*
X1377399Y41063D01*
X1377334Y41071D01*
X1377276Y41087D01*
X1377227Y41104D01*
X1377194Y41120D01*
X1377169Y41129D01*
X1377161Y41145D01*
X1377153D01*
X1377120Y41178D01*
X1377087Y41219D01*
X1377062Y41293D01*
X1377054Y41326D01*
X1377046Y41351D01*
Y41367D01*
Y41375D01*
X1377054Y41425D01*
X1377062Y41474D01*
X1377095Y41540D01*
X1377136Y41589D01*
X1377144Y41606D01*
X1377153D01*
X1377194Y41639D01*
X1377243Y41655D01*
X1377350Y41688D01*
X1377399D01*
X1377441Y41696D01*
X1378338D01*
Y45959D01*
X1378346Y46099D01*
X1378371Y46239D01*
X1378403Y46363D01*
X1378445Y46494D01*
X1378552Y46725D01*
X1378618Y46823D01*
X1378675Y46922D01*
X1378741Y47013D01*
X1378807Y47087D01*
X1378864Y47153D01*
X1378914Y47210D01*
X1378955Y47259D01*
X1378988Y47292D01*
X1379012Y47309D01*
X1379021Y47317D01*
X1379152Y47424D01*
X1379301Y47515D01*
X1379449Y47597D01*
X1379605Y47671D01*
X1379761Y47729D01*
X1379926Y47778D01*
X1380074Y47819D01*
X1380231Y47852D01*
X1380370Y47877D01*
X1380502Y47893D01*
X1380617Y47910D01*
X1380724Y47918D01*
X1380806Y47926D01*
X1381045D01*
X1381177Y47910D01*
D02*
G37*
G36*
X1334104D02*
X1334243Y47893D01*
X1334392Y47877D01*
X1334696Y47819D01*
X1334984Y47762D01*
X1335124Y47729D01*
X1335247Y47704D01*
X1335363Y47671D01*
X1335461Y47646D01*
X1335544Y47630D01*
X1335610Y47613D01*
X1335643Y47597D01*
X1335659D01*
X1335791Y47564D01*
X1335914Y47531D01*
X1336021Y47498D01*
X1336112Y47465D01*
X1336194Y47441D01*
X1336268Y47408D01*
X1336326Y47391D01*
X1336375Y47366D01*
X1336416Y47350D01*
X1336449Y47334D01*
X1336490Y47309D01*
X1336515Y47292D01*
X1336523Y47284D01*
X1336564Y47218D01*
X1336589Y47153D01*
X1336597Y47103D01*
Y47087D01*
Y47078D01*
X1336581Y46980D01*
X1336556Y46914D01*
X1336531Y46865D01*
X1336515Y46856D01*
Y46848D01*
X1336482Y46815D01*
X1336441Y46799D01*
X1336375Y46766D01*
X1336317Y46757D01*
X1336268D01*
X1336227Y46766D01*
X1336120Y46799D01*
X1336070Y46807D01*
X1336029Y46823D01*
X1335996Y46832D01*
X1335988D01*
X1335741Y46914D01*
X1335511Y46980D01*
X1335289Y47046D01*
X1335083Y47095D01*
X1334894Y47136D01*
X1334721Y47177D01*
X1334564Y47202D01*
X1334424Y47227D01*
X1334293Y47243D01*
X1334186Y47259D01*
X1334087Y47268D01*
X1334013Y47276D01*
X1333955Y47284D01*
X1333873D01*
X1333692Y47276D01*
X1333528Y47268D01*
X1333371Y47251D01*
X1333231Y47227D01*
X1333100Y47194D01*
X1332976Y47161D01*
X1332869Y47128D01*
X1332770Y47087D01*
X1332680Y47054D01*
X1332606Y47013D01*
X1332548Y46980D01*
X1332491Y46955D01*
X1332449Y46922D01*
X1332425Y46906D01*
X1332408Y46897D01*
X1332400Y46889D01*
X1332310Y46815D01*
X1332235Y46733D01*
X1332170Y46659D01*
X1332112Y46576D01*
X1332063Y46502D01*
X1332030Y46420D01*
X1331964Y46280D01*
X1331931Y46149D01*
X1331923Y46099D01*
X1331915Y46050D01*
X1331906Y46009D01*
Y45984D01*
Y45967D01*
Y45959D01*
Y44914D01*
X1332128Y44955D01*
X1332342Y44996D01*
X1332532Y45029D01*
X1332704Y45054D01*
X1332779Y45062D01*
X1332844Y45071D01*
X1332902Y45079D01*
X1332951Y45087D01*
X1332993D01*
X1333017Y45095D01*
X1333042D01*
X1333231Y45112D01*
X1333412Y45128D01*
X1333577Y45136D01*
X1333717Y45145D01*
X1333840Y45153D01*
X1334005D01*
X1334309Y45145D01*
X1334589Y45120D01*
X1334852Y45087D01*
X1335091Y45046D01*
X1335322Y44988D01*
X1335527Y44931D01*
X1335708Y44865D01*
X1335881Y44807D01*
X1336029Y44741D01*
X1336153Y44675D01*
X1336268Y44618D01*
X1336358Y44560D01*
X1336424Y44519D01*
X1336474Y44486D01*
X1336507Y44461D01*
X1336515Y44453D01*
X1336663Y44322D01*
X1336795Y44182D01*
X1336910Y44042D01*
X1337009Y43902D01*
X1337091Y43762D01*
X1337165Y43630D01*
X1337214Y43499D01*
X1337264Y43375D01*
X1337297Y43260D01*
X1337321Y43153D01*
X1337346Y43062D01*
X1337354Y42980D01*
X1337363Y42914D01*
X1337371Y42865D01*
Y42832D01*
Y42824D01*
X1337363Y42667D01*
X1337346Y42519D01*
X1337313Y42379D01*
X1337272Y42239D01*
X1337223Y42116D01*
X1337165Y42001D01*
X1337107Y41886D01*
X1337041Y41787D01*
X1336984Y41705D01*
X1336926Y41622D01*
X1336869Y41556D01*
X1336819Y41499D01*
X1336778Y41449D01*
X1336745Y41417D01*
X1336729Y41400D01*
X1336721Y41392D01*
X1336589Y41293D01*
X1336457Y41203D01*
X1336309Y41120D01*
X1336161Y41054D01*
X1336013Y40997D01*
X1335865Y40947D01*
X1335717Y40915D01*
X1335568Y40882D01*
X1335437Y40857D01*
X1335313Y40841D01*
X1335198Y40824D01*
X1335099Y40816D01*
X1335025Y40807D01*
X1334910D01*
X1334614Y40824D01*
X1334326Y40857D01*
X1334038Y40915D01*
X1333766Y40989D01*
X1333503Y41079D01*
X1333256Y41178D01*
X1333026Y41285D01*
X1332811Y41400D01*
X1332614Y41507D01*
X1332433Y41614D01*
X1332285Y41713D01*
X1332153Y41803D01*
X1332046Y41877D01*
X1331972Y41935D01*
X1331923Y41968D01*
X1331906Y41984D01*
Y41054D01*
X1330408D01*
X1330326Y41063D01*
X1330260Y41071D01*
X1330203Y41087D01*
X1330153Y41104D01*
X1330120Y41120D01*
X1330096Y41129D01*
X1330087Y41145D01*
X1330079D01*
X1330046Y41178D01*
X1330013Y41219D01*
X1329989Y41293D01*
X1329980Y41326D01*
X1329972Y41351D01*
Y41367D01*
Y41375D01*
X1329980Y41425D01*
X1329989Y41474D01*
X1330022Y41540D01*
X1330063Y41589D01*
X1330071Y41606D01*
X1330079D01*
X1330120Y41639D01*
X1330170Y41655D01*
X1330277Y41688D01*
X1330326D01*
X1330367Y41696D01*
X1331264D01*
Y45959D01*
X1331273Y46099D01*
X1331297Y46239D01*
X1331330Y46363D01*
X1331371Y46494D01*
X1331478Y46725D01*
X1331544Y46823D01*
X1331602Y46922D01*
X1331668Y47013D01*
X1331733Y47087D01*
X1331791Y47153D01*
X1331840Y47210D01*
X1331882Y47259D01*
X1331915Y47292D01*
X1331939Y47309D01*
X1331947Y47317D01*
X1332079Y47424D01*
X1332227Y47515D01*
X1332375Y47597D01*
X1332532Y47671D01*
X1332688Y47729D01*
X1332853Y47778D01*
X1333001Y47819D01*
X1333157Y47852D01*
X1333297Y47877D01*
X1333429Y47893D01*
X1333544Y47910D01*
X1333651Y47918D01*
X1333733Y47926D01*
X1333972D01*
X1334104Y47910D01*
D02*
G37*
G36*
X1516414Y50658D02*
X1516472Y50642D01*
X1516513Y50626D01*
X1516554Y50609D01*
X1516579Y50592D01*
X1516587Y50584D01*
X1516595Y50576D01*
X1516628Y50543D01*
X1516653Y50502D01*
X1516677Y50428D01*
X1516685Y50395D01*
X1516694Y50370D01*
Y50354D01*
Y50346D01*
X1516685Y50296D01*
X1516677Y50247D01*
X1516644Y50181D01*
X1516611Y50132D01*
X1516595Y50123D01*
Y50115D01*
X1516554Y50090D01*
X1516496Y50066D01*
X1516389Y50041D01*
X1516340D01*
X1516299Y50033D01*
X1515402D01*
Y41696D01*
X1516200D01*
X1516274Y41680D01*
X1516332Y41672D01*
X1516373Y41655D01*
X1516414Y41639D01*
X1516439Y41622D01*
X1516447Y41614D01*
X1516455Y41606D01*
X1516488Y41573D01*
X1516513Y41532D01*
X1516537Y41458D01*
X1516546Y41425D01*
X1516554Y41400D01*
Y41384D01*
Y41375D01*
X1516546Y41326D01*
X1516537Y41277D01*
X1516504Y41211D01*
X1516472Y41161D01*
X1516455Y41153D01*
Y41145D01*
X1516414Y41112D01*
X1516356Y41096D01*
X1516249Y41063D01*
X1516200D01*
X1516159Y41054D01*
X1514044D01*
X1513961Y41063D01*
X1513896Y41071D01*
X1513838Y41087D01*
X1513789Y41104D01*
X1513756Y41120D01*
X1513731Y41129D01*
X1513723Y41145D01*
X1513715D01*
X1513682Y41178D01*
X1513649Y41219D01*
X1513624Y41293D01*
X1513616Y41326D01*
X1513608Y41351D01*
Y41367D01*
Y41375D01*
X1513616Y41425D01*
X1513624Y41474D01*
X1513657Y41540D01*
X1513698Y41589D01*
X1513706Y41606D01*
X1513715D01*
X1513756Y41639D01*
X1513805Y41655D01*
X1513912Y41688D01*
X1513961D01*
X1514003Y41696D01*
X1514760D01*
Y45778D01*
X1514612Y45943D01*
X1514472Y46091D01*
X1514348Y46223D01*
X1514225Y46346D01*
X1514118Y46453D01*
X1514019Y46544D01*
X1513937Y46626D01*
X1513855Y46700D01*
X1513789Y46766D01*
X1513731Y46815D01*
X1513682Y46856D01*
X1513640Y46889D01*
X1513616Y46914D01*
X1513591Y46930D01*
X1513575Y46939D01*
X1513377Y47054D01*
X1513180Y47136D01*
X1512974Y47202D01*
X1512785Y47243D01*
X1512702Y47259D01*
X1512620Y47268D01*
X1512554Y47276D01*
X1512488D01*
X1512439Y47284D01*
X1512373D01*
X1512209Y47276D01*
X1512052Y47268D01*
X1511912Y47243D01*
X1511772Y47210D01*
X1511649Y47177D01*
X1511534Y47136D01*
X1511435Y47095D01*
X1511336Y47054D01*
X1511254Y47004D01*
X1511180Y46963D01*
X1511114Y46922D01*
X1511065Y46889D01*
X1511024Y46856D01*
X1510999Y46832D01*
X1510982Y46823D01*
X1510974Y46815D01*
X1510884Y46725D01*
X1510809Y46634D01*
X1510744Y46535D01*
X1510686Y46437D01*
X1510637Y46338D01*
X1510596Y46239D01*
X1510538Y46058D01*
X1510497Y45893D01*
X1510489Y45819D01*
X1510480Y45762D01*
X1510472Y45712D01*
Y45679D01*
Y45655D01*
Y45647D01*
Y41696D01*
X1511270D01*
X1511344Y41680D01*
X1511402Y41672D01*
X1511443Y41655D01*
X1511484Y41639D01*
X1511509Y41622D01*
X1511517Y41614D01*
X1511526Y41606D01*
X1511558Y41573D01*
X1511583Y41532D01*
X1511608Y41458D01*
X1511616Y41425D01*
X1511624Y41400D01*
Y41384D01*
Y41375D01*
X1511616Y41326D01*
X1511608Y41277D01*
X1511575Y41211D01*
X1511542Y41161D01*
X1511526Y41153D01*
Y41145D01*
X1511484Y41112D01*
X1511427Y41096D01*
X1511320Y41063D01*
X1511270D01*
X1511229Y41054D01*
X1509114D01*
X1509032Y41063D01*
X1508958Y41071D01*
X1508900Y41087D01*
X1508859Y41104D01*
X1508818Y41120D01*
X1508793Y41129D01*
X1508785Y41145D01*
X1508777D01*
X1508744Y41178D01*
X1508719Y41219D01*
X1508686Y41293D01*
Y41326D01*
X1508678Y41351D01*
Y41367D01*
Y41375D01*
Y41425D01*
X1508694Y41474D01*
X1508727Y41540D01*
X1508760Y41589D01*
X1508769Y41606D01*
X1508777D01*
X1508818Y41639D01*
X1508867Y41655D01*
X1508983Y41688D01*
X1509032D01*
X1509073Y41696D01*
X1509830D01*
Y45688D01*
Y45803D01*
X1509847Y45910D01*
X1509888Y46124D01*
X1509945Y46321D01*
X1510003Y46494D01*
X1510036Y46568D01*
X1510069Y46634D01*
X1510102Y46692D01*
X1510126Y46749D01*
X1510151Y46782D01*
X1510168Y46815D01*
X1510176Y46832D01*
X1510184Y46840D01*
X1510324Y47037D01*
X1510472Y47202D01*
X1510620Y47342D01*
X1510760Y47457D01*
X1510875Y47539D01*
X1510933Y47580D01*
X1510974Y47605D01*
X1511015Y47630D01*
X1511040Y47646D01*
X1511056Y47655D01*
X1511065D01*
X1511270Y47745D01*
X1511484Y47811D01*
X1511690Y47860D01*
X1511896Y47893D01*
X1511986Y47902D01*
X1512069Y47910D01*
X1512143Y47918D01*
X1512209Y47926D01*
X1512332D01*
X1512587Y47918D01*
X1512826Y47885D01*
X1513040Y47836D01*
X1513221Y47786D01*
X1513303Y47762D01*
X1513377Y47737D01*
X1513443Y47712D01*
X1513492Y47688D01*
X1513533Y47671D01*
X1513566Y47655D01*
X1513583Y47646D01*
X1513591D01*
X1513698Y47589D01*
X1513805Y47531D01*
X1514011Y47383D01*
X1514208Y47235D01*
X1514381Y47078D01*
X1514464Y47004D01*
X1514538Y46939D01*
X1514603Y46881D01*
X1514653Y46823D01*
X1514702Y46782D01*
X1514735Y46749D01*
X1514751Y46725D01*
X1514760Y46716D01*
Y50675D01*
X1516340D01*
X1516414Y50658D01*
D02*
G37*
G36*
X1465860Y47679D02*
X1465999Y47646D01*
X1466131Y47597D01*
X1466238Y47548D01*
X1466320Y47490D01*
X1466386Y47441D01*
X1466427Y47408D01*
X1466444Y47391D01*
X1466543Y47276D01*
X1466617Y47153D01*
X1466674Y47029D01*
X1466707Y46914D01*
X1466732Y46807D01*
X1466740Y46725D01*
X1466748Y46692D01*
Y46667D01*
Y46659D01*
Y46651D01*
X1466732Y46502D01*
X1466699Y46363D01*
X1466649Y46239D01*
X1466592Y46132D01*
X1466543Y46042D01*
X1466493Y45984D01*
X1466460Y45943D01*
X1466444Y45926D01*
X1466328Y45828D01*
X1466197Y45753D01*
X1466082Y45696D01*
X1465966Y45663D01*
X1465860Y45638D01*
X1465785Y45630D01*
X1465753Y45622D01*
X1465432D01*
X1465283Y45638D01*
X1465143Y45671D01*
X1465012Y45712D01*
X1464905Y45770D01*
X1464823Y45828D01*
X1464757Y45869D01*
X1464716Y45902D01*
X1464699Y45918D01*
X1464592Y46033D01*
X1464518Y46157D01*
X1464460Y46280D01*
X1464427Y46404D01*
X1464403Y46502D01*
X1464395Y46585D01*
X1464386Y46618D01*
Y46642D01*
Y46651D01*
Y46659D01*
X1464403Y46807D01*
X1464436Y46947D01*
X1464485Y47070D01*
X1464543Y47177D01*
X1464600Y47268D01*
X1464650Y47325D01*
X1464683Y47366D01*
X1464699Y47383D01*
X1464814Y47490D01*
X1464938Y47564D01*
X1465061Y47622D01*
X1465176Y47655D01*
X1465283Y47679D01*
X1465357Y47688D01*
X1465390Y47696D01*
X1465711D01*
X1465860Y47679D01*
D02*
G37*
G36*
X1421461Y50658D02*
X1421518Y50650D01*
X1421559Y50634D01*
X1421601Y50617D01*
X1421625Y50601D01*
X1421634Y50592D01*
X1421642Y50584D01*
X1421675Y50551D01*
X1421699Y50510D01*
X1421724Y50436D01*
X1421732Y50403D01*
X1421741Y50379D01*
Y50362D01*
Y50354D01*
X1421732Y50304D01*
X1421724Y50255D01*
X1421691Y50189D01*
X1421658Y50140D01*
X1421642Y50132D01*
Y50123D01*
X1421601Y50090D01*
X1421543Y50074D01*
X1421436Y50041D01*
X1421387D01*
X1421346Y50033D01*
X1420448D01*
Y41696D01*
X1421387D01*
X1421461Y41680D01*
X1421518Y41672D01*
X1421559Y41655D01*
X1421601Y41639D01*
X1421625Y41622D01*
X1421634Y41614D01*
X1421642Y41606D01*
X1421675Y41573D01*
X1421699Y41532D01*
X1421724Y41458D01*
X1421732Y41425D01*
X1421741Y41400D01*
Y41384D01*
Y41375D01*
X1421732Y41326D01*
X1421724Y41277D01*
X1421691Y41211D01*
X1421658Y41161D01*
X1421642Y41153D01*
Y41145D01*
X1421601Y41112D01*
X1421543Y41096D01*
X1421436Y41063D01*
X1421387D01*
X1421346Y41054D01*
X1419807D01*
Y43918D01*
X1419074Y44535D01*
X1416309Y41696D01*
X1416926D01*
X1417000Y41680D01*
X1417058Y41672D01*
X1417099Y41655D01*
X1417140Y41639D01*
X1417165Y41622D01*
X1417173Y41614D01*
X1417181Y41606D01*
X1417214Y41573D01*
X1417239Y41532D01*
X1417264Y41458D01*
X1417272Y41425D01*
X1417280Y41400D01*
Y41384D01*
Y41375D01*
X1417272Y41326D01*
X1417264Y41277D01*
X1417231Y41211D01*
X1417198Y41161D01*
X1417181Y41153D01*
Y41145D01*
X1417140Y41112D01*
X1417083Y41096D01*
X1416976Y41063D01*
X1416926D01*
X1416885Y41054D01*
X1414721D01*
X1414638Y41063D01*
X1414573Y41071D01*
X1414515Y41087D01*
X1414466Y41104D01*
X1414433Y41120D01*
X1414408Y41129D01*
X1414400Y41145D01*
X1414391D01*
X1414359Y41178D01*
X1414326Y41219D01*
X1414301Y41293D01*
X1414293Y41326D01*
X1414285Y41351D01*
Y41367D01*
Y41375D01*
X1414293Y41425D01*
X1414301Y41474D01*
X1414334Y41540D01*
X1414375Y41589D01*
X1414383Y41606D01*
X1414391D01*
X1414433Y41639D01*
X1414482Y41655D01*
X1414589Y41688D01*
X1414638D01*
X1414680Y41696D01*
X1415437D01*
X1418597Y44931D01*
X1416087Y47054D01*
X1415371D01*
X1415289Y47062D01*
X1415223Y47070D01*
X1415165Y47087D01*
X1415116Y47103D01*
X1415083Y47120D01*
X1415058Y47128D01*
X1415050Y47144D01*
X1415042D01*
X1415009Y47177D01*
X1414976Y47218D01*
X1414951Y47292D01*
X1414943Y47317D01*
X1414935Y47342D01*
Y47358D01*
Y47366D01*
X1414943Y47416D01*
X1414951Y47465D01*
X1414984Y47531D01*
X1415025Y47580D01*
X1415033Y47597D01*
X1415042D01*
X1415083Y47630D01*
X1415132Y47655D01*
X1415239Y47688D01*
X1415289D01*
X1415330Y47696D01*
X1417330D01*
X1417404Y47679D01*
X1417461Y47663D01*
X1417502Y47646D01*
X1417543Y47630D01*
X1417568Y47613D01*
X1417576Y47605D01*
X1417585Y47597D01*
X1417617Y47564D01*
X1417642Y47523D01*
X1417667Y47449D01*
X1417675Y47416D01*
X1417683Y47391D01*
Y47375D01*
Y47366D01*
X1417675Y47317D01*
X1417667Y47276D01*
X1417634Y47210D01*
X1417601Y47161D01*
X1417585Y47153D01*
Y47144D01*
X1417543Y47111D01*
X1417486Y47095D01*
X1417379Y47062D01*
X1417330D01*
X1417288Y47054D01*
X1417058D01*
X1419807Y44733D01*
Y50675D01*
X1421387D01*
X1421461Y50658D01*
D02*
G37*
G36*
X1393217D02*
X1393274Y50650D01*
X1393315Y50634D01*
X1393357Y50617D01*
X1393381Y50601D01*
X1393390Y50592D01*
X1393398Y50584D01*
X1393431Y50551D01*
X1393455Y50510D01*
X1393480Y50436D01*
X1393488Y50403D01*
X1393497Y50379D01*
Y50362D01*
Y50354D01*
X1393488Y50304D01*
X1393480Y50255D01*
X1393447Y50189D01*
X1393414Y50140D01*
X1393398Y50132D01*
Y50123D01*
X1393357Y50090D01*
X1393299Y50074D01*
X1393192Y50041D01*
X1393143D01*
X1393102Y50033D01*
X1392204D01*
Y41696D01*
X1393143D01*
X1393217Y41680D01*
X1393274Y41672D01*
X1393315Y41655D01*
X1393357Y41639D01*
X1393381Y41622D01*
X1393390Y41614D01*
X1393398Y41606D01*
X1393431Y41573D01*
X1393455Y41532D01*
X1393480Y41458D01*
X1393488Y41425D01*
X1393497Y41400D01*
Y41384D01*
Y41375D01*
X1393488Y41326D01*
X1393480Y41277D01*
X1393447Y41211D01*
X1393414Y41161D01*
X1393398Y41153D01*
Y41145D01*
X1393357Y41112D01*
X1393299Y41096D01*
X1393192Y41063D01*
X1393143D01*
X1393102Y41054D01*
X1391563D01*
Y43918D01*
X1390830Y44535D01*
X1388065Y41696D01*
X1388682D01*
X1388756Y41680D01*
X1388814Y41672D01*
X1388855Y41655D01*
X1388896Y41639D01*
X1388921Y41622D01*
X1388929Y41614D01*
X1388937Y41606D01*
X1388970Y41573D01*
X1388995Y41532D01*
X1389020Y41458D01*
X1389028Y41425D01*
X1389036Y41400D01*
Y41384D01*
Y41375D01*
X1389028Y41326D01*
X1389020Y41277D01*
X1388987Y41211D01*
X1388954Y41161D01*
X1388937Y41153D01*
Y41145D01*
X1388896Y41112D01*
X1388839Y41096D01*
X1388732Y41063D01*
X1388682D01*
X1388641Y41054D01*
X1386477D01*
X1386394Y41063D01*
X1386329Y41071D01*
X1386271Y41087D01*
X1386222Y41104D01*
X1386189Y41120D01*
X1386164Y41129D01*
X1386156Y41145D01*
X1386147D01*
X1386115Y41178D01*
X1386082Y41219D01*
X1386057Y41293D01*
X1386049Y41326D01*
X1386041Y41351D01*
Y41367D01*
Y41375D01*
X1386049Y41425D01*
X1386057Y41474D01*
X1386090Y41540D01*
X1386131Y41589D01*
X1386139Y41606D01*
X1386147D01*
X1386189Y41639D01*
X1386238Y41655D01*
X1386345Y41688D01*
X1386394D01*
X1386436Y41696D01*
X1387193D01*
X1390353Y44931D01*
X1387843Y47054D01*
X1387127D01*
X1387045Y47062D01*
X1386979Y47070D01*
X1386921Y47087D01*
X1386872Y47103D01*
X1386839Y47120D01*
X1386814Y47128D01*
X1386806Y47144D01*
X1386798D01*
X1386765Y47177D01*
X1386732Y47218D01*
X1386707Y47292D01*
X1386699Y47317D01*
X1386691Y47342D01*
Y47358D01*
Y47366D01*
X1386699Y47416D01*
X1386707Y47465D01*
X1386740Y47531D01*
X1386781Y47580D01*
X1386790Y47597D01*
X1386798D01*
X1386839Y47630D01*
X1386888Y47655D01*
X1386995Y47688D01*
X1387045D01*
X1387086Y47696D01*
X1389086D01*
X1389160Y47679D01*
X1389217Y47663D01*
X1389258Y47646D01*
X1389299Y47630D01*
X1389324Y47613D01*
X1389332Y47605D01*
X1389341Y47597D01*
X1389373Y47564D01*
X1389398Y47523D01*
X1389423Y47449D01*
X1389431Y47416D01*
X1389439Y47391D01*
Y47375D01*
Y47366D01*
X1389431Y47317D01*
X1389423Y47276D01*
X1389390Y47210D01*
X1389357Y47161D01*
X1389341Y47153D01*
Y47144D01*
X1389299Y47111D01*
X1389242Y47095D01*
X1389135Y47062D01*
X1389086D01*
X1389044Y47054D01*
X1388814D01*
X1391563Y44733D01*
Y50675D01*
X1393143D01*
X1393217Y50658D01*
D02*
G37*
G36*
X1308485D02*
X1308542Y50650D01*
X1308584Y50634D01*
X1308625Y50617D01*
X1308649Y50601D01*
X1308658Y50592D01*
X1308666Y50584D01*
X1308699Y50551D01*
X1308723Y50510D01*
X1308748Y50436D01*
X1308756Y50403D01*
X1308765Y50379D01*
Y50362D01*
Y50354D01*
X1308756Y50304D01*
X1308748Y50255D01*
X1308715Y50189D01*
X1308682Y50140D01*
X1308666Y50132D01*
Y50123D01*
X1308625Y50090D01*
X1308567Y50074D01*
X1308460Y50041D01*
X1308411D01*
X1308370Y50033D01*
X1307473D01*
Y41696D01*
X1308411D01*
X1308485Y41680D01*
X1308542Y41672D01*
X1308584Y41655D01*
X1308625Y41639D01*
X1308649Y41622D01*
X1308658Y41614D01*
X1308666Y41606D01*
X1308699Y41573D01*
X1308723Y41532D01*
X1308748Y41458D01*
X1308756Y41425D01*
X1308765Y41400D01*
Y41384D01*
Y41375D01*
X1308756Y41326D01*
X1308748Y41277D01*
X1308715Y41211D01*
X1308682Y41161D01*
X1308666Y41153D01*
Y41145D01*
X1308625Y41112D01*
X1308567Y41096D01*
X1308460Y41063D01*
X1308411D01*
X1308370Y41054D01*
X1306831D01*
Y43918D01*
X1306098Y44535D01*
X1303333Y41696D01*
X1303950D01*
X1304024Y41680D01*
X1304082Y41672D01*
X1304123Y41655D01*
X1304164Y41639D01*
X1304189Y41622D01*
X1304197Y41614D01*
X1304205Y41606D01*
X1304238Y41573D01*
X1304263Y41532D01*
X1304288Y41458D01*
X1304296Y41425D01*
X1304304Y41400D01*
Y41384D01*
Y41375D01*
X1304296Y41326D01*
X1304288Y41277D01*
X1304255Y41211D01*
X1304222Y41161D01*
X1304205Y41153D01*
Y41145D01*
X1304164Y41112D01*
X1304107Y41096D01*
X1304000Y41063D01*
X1303950D01*
X1303909Y41054D01*
X1301745D01*
X1301662Y41063D01*
X1301597Y41071D01*
X1301539Y41087D01*
X1301490Y41104D01*
X1301457Y41120D01*
X1301432Y41129D01*
X1301424Y41145D01*
X1301416D01*
X1301383Y41178D01*
X1301350Y41219D01*
X1301325Y41293D01*
X1301317Y41326D01*
X1301309Y41351D01*
Y41367D01*
Y41375D01*
X1301317Y41425D01*
X1301325Y41474D01*
X1301358Y41540D01*
X1301399Y41589D01*
X1301407Y41606D01*
X1301416D01*
X1301457Y41639D01*
X1301506Y41655D01*
X1301613Y41688D01*
X1301662D01*
X1301704Y41696D01*
X1302461D01*
X1305621Y44931D01*
X1303111Y47054D01*
X1302395D01*
X1302313Y47062D01*
X1302247Y47070D01*
X1302189Y47087D01*
X1302140Y47103D01*
X1302107Y47120D01*
X1302082Y47128D01*
X1302074Y47144D01*
X1302066D01*
X1302033Y47177D01*
X1302000Y47218D01*
X1301975Y47292D01*
X1301967Y47317D01*
X1301959Y47342D01*
Y47358D01*
Y47366D01*
X1301967Y47416D01*
X1301975Y47465D01*
X1302008Y47531D01*
X1302049Y47580D01*
X1302057Y47597D01*
X1302066D01*
X1302107Y47630D01*
X1302156Y47655D01*
X1302263Y47688D01*
X1302313D01*
X1302354Y47696D01*
X1304354D01*
X1304428Y47679D01*
X1304485Y47663D01*
X1304526Y47646D01*
X1304568Y47630D01*
X1304592Y47613D01*
X1304600Y47605D01*
X1304609Y47597D01*
X1304642Y47564D01*
X1304666Y47523D01*
X1304691Y47449D01*
X1304699Y47416D01*
X1304707Y47391D01*
Y47375D01*
Y47366D01*
X1304699Y47317D01*
X1304691Y47276D01*
X1304658Y47210D01*
X1304625Y47161D01*
X1304609Y47153D01*
Y47144D01*
X1304568Y47111D01*
X1304510Y47095D01*
X1304403Y47062D01*
X1304354D01*
X1304312Y47054D01*
X1304082D01*
X1306831Y44733D01*
Y50675D01*
X1308411D01*
X1308485Y50658D01*
D02*
G37*
G36*
X1504942Y50025D02*
X1504983Y50016D01*
X1505049Y49984D01*
X1505098Y49942D01*
X1505106Y49934D01*
X1505115Y49926D01*
X1505148Y49885D01*
X1505164Y49835D01*
X1505197Y49728D01*
Y49679D01*
X1505205Y49638D01*
Y49605D01*
Y49597D01*
Y47696D01*
X1506472D01*
X1506538Y47679D01*
X1506596Y47663D01*
X1506637Y47646D01*
X1506678Y47630D01*
X1506703Y47613D01*
X1506711Y47605D01*
X1506719Y47597D01*
X1506752Y47564D01*
X1506777Y47523D01*
X1506802Y47449D01*
X1506810Y47424D01*
X1506818Y47399D01*
Y47383D01*
Y47375D01*
X1506810Y47325D01*
X1506802Y47276D01*
X1506769Y47210D01*
X1506736Y47161D01*
X1506719Y47153D01*
Y47144D01*
X1506678Y47111D01*
X1506629Y47095D01*
X1506514Y47062D01*
X1506464D01*
X1506431Y47054D01*
X1505205D01*
Y42758D01*
X1505197Y42593D01*
X1505181Y42437D01*
X1505148Y42297D01*
X1505098Y42157D01*
X1505049Y42034D01*
X1504999Y41910D01*
X1504934Y41803D01*
X1504876Y41713D01*
X1504818Y41622D01*
X1504753Y41548D01*
X1504703Y41482D01*
X1504646Y41433D01*
X1504604Y41392D01*
X1504572Y41359D01*
X1504555Y41343D01*
X1504547Y41334D01*
X1504415Y41244D01*
X1504275Y41161D01*
X1504135Y41087D01*
X1503987Y41030D01*
X1503839Y40980D01*
X1503683Y40939D01*
X1503403Y40873D01*
X1503263Y40849D01*
X1503148Y40832D01*
X1503033Y40824D01*
X1502942Y40816D01*
X1502860Y40807D01*
X1502753D01*
X1502432Y40824D01*
X1502111Y40857D01*
X1501806Y40898D01*
X1501666Y40923D01*
X1501526Y40956D01*
X1501403Y40980D01*
X1501296Y41005D01*
X1501197Y41030D01*
X1501115Y41054D01*
X1501041Y41071D01*
X1500992Y41087D01*
X1500959Y41096D01*
X1500950D01*
X1500778Y41153D01*
X1500629Y41203D01*
X1500490Y41260D01*
X1500366Y41309D01*
X1500259Y41359D01*
X1500160Y41400D01*
X1500078Y41441D01*
X1500004Y41482D01*
X1499938Y41515D01*
X1499889Y41548D01*
X1499848Y41581D01*
X1499815Y41606D01*
X1499790Y41622D01*
X1499774Y41639D01*
X1499765Y41647D01*
X1499733Y41688D01*
X1499700Y41721D01*
X1499675Y41795D01*
X1499658Y41845D01*
Y41853D01*
Y41861D01*
Y41902D01*
X1499675Y41951D01*
X1499708Y42017D01*
X1499741Y42067D01*
X1499749Y42075D01*
X1499757Y42083D01*
X1499790Y42116D01*
X1499831Y42141D01*
X1499897Y42174D01*
X1499946Y42182D01*
X1500012D01*
X1500053Y42165D01*
X1500128Y42133D01*
X1500169Y42116D01*
X1500193Y42100D01*
X1500210Y42091D01*
X1500218Y42083D01*
X1500391Y41993D01*
X1500580Y41910D01*
X1500778Y41836D01*
X1500967Y41770D01*
X1501140Y41713D01*
X1501214Y41696D01*
X1501280Y41672D01*
X1501329Y41655D01*
X1501370Y41647D01*
X1501395Y41639D01*
X1501403D01*
X1501683Y41573D01*
X1501938Y41532D01*
X1502185Y41499D01*
X1502292Y41482D01*
X1502391Y41474D01*
X1502481Y41466D01*
X1502563Y41458D01*
X1502637D01*
X1502695Y41449D01*
X1502810D01*
X1502967Y41458D01*
X1503115Y41466D01*
X1503255Y41482D01*
X1503378Y41507D01*
X1503493Y41532D01*
X1503600Y41565D01*
X1503699Y41598D01*
X1503790Y41639D01*
X1503864Y41672D01*
X1503930Y41705D01*
X1503987Y41737D01*
X1504037Y41762D01*
X1504070Y41787D01*
X1504094Y41803D01*
X1504111Y41820D01*
X1504119D01*
X1504193Y41894D01*
X1504267Y41968D01*
X1504325Y42050D01*
X1504374Y42124D01*
X1504456Y42281D01*
X1504506Y42429D01*
X1504539Y42560D01*
X1504547Y42618D01*
X1504555Y42667D01*
X1504563Y42700D01*
Y42733D01*
Y42750D01*
Y42758D01*
Y47054D01*
X1501074D01*
X1500992Y47062D01*
X1500926Y47070D01*
X1500868Y47087D01*
X1500819Y47103D01*
X1500786Y47120D01*
X1500761Y47128D01*
X1500753Y47144D01*
X1500745D01*
X1500712Y47177D01*
X1500679Y47218D01*
X1500654Y47292D01*
X1500646Y47317D01*
X1500638Y47342D01*
Y47358D01*
Y47366D01*
X1500646Y47416D01*
X1500654Y47465D01*
X1500687Y47531D01*
X1500728Y47580D01*
X1500737Y47597D01*
X1500745D01*
X1500786Y47630D01*
X1500835Y47655D01*
X1500942Y47688D01*
X1500992D01*
X1501033Y47696D01*
X1504563D01*
Y49597D01*
Y49679D01*
X1504580Y49745D01*
X1504596Y49802D01*
X1504613Y49852D01*
X1504629Y49885D01*
X1504646Y49910D01*
X1504654Y49918D01*
X1504662Y49926D01*
X1504695Y49959D01*
X1504736Y49992D01*
X1504810Y50016D01*
X1504843Y50025D01*
X1504868Y50033D01*
X1504892D01*
X1504942Y50025D01*
D02*
G37*
G36*
X1495527D02*
X1495568Y50016D01*
X1495634Y49984D01*
X1495683Y49942D01*
X1495692Y49934D01*
X1495700Y49926D01*
X1495733Y49885D01*
X1495749Y49835D01*
X1495782Y49728D01*
Y49679D01*
X1495791Y49638D01*
Y49605D01*
Y49597D01*
Y47696D01*
X1497058D01*
X1497124Y47679D01*
X1497181Y47663D01*
X1497222Y47646D01*
X1497264Y47630D01*
X1497288Y47613D01*
X1497296Y47605D01*
X1497305Y47597D01*
X1497338Y47564D01*
X1497362Y47523D01*
X1497387Y47449D01*
X1497395Y47424D01*
X1497404Y47399D01*
Y47383D01*
Y47375D01*
X1497395Y47325D01*
X1497387Y47276D01*
X1497354Y47210D01*
X1497321Y47161D01*
X1497305Y47153D01*
Y47144D01*
X1497264Y47111D01*
X1497214Y47095D01*
X1497099Y47062D01*
X1497050D01*
X1497017Y47054D01*
X1495791D01*
Y42758D01*
X1495782Y42593D01*
X1495766Y42437D01*
X1495733Y42297D01*
X1495683Y42157D01*
X1495634Y42034D01*
X1495585Y41910D01*
X1495519Y41803D01*
X1495461Y41713D01*
X1495404Y41622D01*
X1495338Y41548D01*
X1495289Y41482D01*
X1495231Y41433D01*
X1495190Y41392D01*
X1495157Y41359D01*
X1495140Y41343D01*
X1495132Y41334D01*
X1495000Y41244D01*
X1494861Y41161D01*
X1494721Y41087D01*
X1494572Y41030D01*
X1494424Y40980D01*
X1494268Y40939D01*
X1493988Y40873D01*
X1493848Y40849D01*
X1493733Y40832D01*
X1493618Y40824D01*
X1493527Y40816D01*
X1493445Y40807D01*
X1493338D01*
X1493017Y40824D01*
X1492696Y40857D01*
X1492392Y40898D01*
X1492252Y40923D01*
X1492112Y40956D01*
X1491988Y40980D01*
X1491881Y41005D01*
X1491783Y41030D01*
X1491700Y41054D01*
X1491626Y41071D01*
X1491577Y41087D01*
X1491544Y41096D01*
X1491536D01*
X1491363Y41153D01*
X1491215Y41203D01*
X1491075Y41260D01*
X1490952Y41309D01*
X1490845Y41359D01*
X1490746Y41400D01*
X1490663Y41441D01*
X1490589Y41482D01*
X1490524Y41515D01*
X1490474Y41548D01*
X1490433Y41581D01*
X1490400Y41606D01*
X1490375Y41622D01*
X1490359Y41639D01*
X1490351Y41647D01*
X1490318Y41688D01*
X1490285Y41721D01*
X1490260Y41795D01*
X1490244Y41845D01*
Y41853D01*
Y41861D01*
Y41902D01*
X1490260Y41951D01*
X1490293Y42017D01*
X1490326Y42067D01*
X1490334Y42075D01*
X1490343Y42083D01*
X1490375Y42116D01*
X1490417Y42141D01*
X1490482Y42174D01*
X1490532Y42182D01*
X1490598D01*
X1490639Y42165D01*
X1490713Y42133D01*
X1490754Y42116D01*
X1490779Y42100D01*
X1490795Y42091D01*
X1490803Y42083D01*
X1490976Y41993D01*
X1491165Y41910D01*
X1491363Y41836D01*
X1491552Y41770D01*
X1491725Y41713D01*
X1491799Y41696D01*
X1491865Y41672D01*
X1491914Y41655D01*
X1491956Y41647D01*
X1491980Y41639D01*
X1491988D01*
X1492268Y41573D01*
X1492523Y41532D01*
X1492770Y41499D01*
X1492877Y41482D01*
X1492976Y41474D01*
X1493067Y41466D01*
X1493149Y41458D01*
X1493223D01*
X1493280Y41449D01*
X1493396D01*
X1493552Y41458D01*
X1493700Y41466D01*
X1493840Y41482D01*
X1493963Y41507D01*
X1494079Y41532D01*
X1494186Y41565D01*
X1494285Y41598D01*
X1494375Y41639D01*
X1494449Y41672D01*
X1494515Y41705D01*
X1494572Y41737D01*
X1494622Y41762D01*
X1494655Y41787D01*
X1494680Y41803D01*
X1494696Y41820D01*
X1494704D01*
X1494778Y41894D01*
X1494852Y41968D01*
X1494910Y42050D01*
X1494959Y42124D01*
X1495042Y42281D01*
X1495091Y42429D01*
X1495124Y42560D01*
X1495132Y42618D01*
X1495140Y42667D01*
X1495149Y42700D01*
Y42733D01*
Y42750D01*
Y42758D01*
Y47054D01*
X1491659D01*
X1491577Y47062D01*
X1491511Y47070D01*
X1491454Y47087D01*
X1491404Y47103D01*
X1491371Y47120D01*
X1491346Y47128D01*
X1491338Y47144D01*
X1491330D01*
X1491297Y47177D01*
X1491264Y47218D01*
X1491239Y47292D01*
X1491231Y47317D01*
X1491223Y47342D01*
Y47358D01*
Y47366D01*
X1491231Y47416D01*
X1491239Y47465D01*
X1491272Y47531D01*
X1491314Y47580D01*
X1491322Y47597D01*
X1491330D01*
X1491371Y47630D01*
X1491421Y47655D01*
X1491528Y47688D01*
X1491577D01*
X1491618Y47696D01*
X1495149D01*
Y49597D01*
Y49679D01*
X1495165Y49745D01*
X1495181Y49802D01*
X1495198Y49852D01*
X1495214Y49885D01*
X1495231Y49910D01*
X1495239Y49918D01*
X1495247Y49926D01*
X1495280Y49959D01*
X1495321Y49992D01*
X1495396Y50016D01*
X1495428Y50025D01*
X1495453Y50033D01*
X1495478D01*
X1495527Y50025D01*
D02*
G37*
G36*
X1409487Y47918D02*
X1409758Y47885D01*
X1410013Y47836D01*
X1410252Y47770D01*
X1410482Y47696D01*
X1410688Y47605D01*
X1410886Y47515D01*
X1411067Y47424D01*
X1411223Y47334D01*
X1411363Y47243D01*
X1411487Y47153D01*
X1411585Y47078D01*
X1411667Y47013D01*
X1411725Y46963D01*
X1411766Y46930D01*
X1411774Y46922D01*
X1411956Y46733D01*
X1412120Y46527D01*
X1412252Y46330D01*
X1412375Y46124D01*
X1412474Y45918D01*
X1412556Y45721D01*
X1412630Y45523D01*
X1412680Y45342D01*
X1412721Y45169D01*
X1412754Y45013D01*
X1412778Y44865D01*
X1412795Y44749D01*
X1412803Y44651D01*
X1412811Y44577D01*
Y44527D01*
Y44519D01*
Y44511D01*
X1412795Y44231D01*
X1412762Y43959D01*
X1412713Y43696D01*
X1412639Y43449D01*
X1412556Y43219D01*
X1412466Y43005D01*
X1412359Y42807D01*
X1412260Y42618D01*
X1412153Y42453D01*
X1412054Y42314D01*
X1411964Y42182D01*
X1411882Y42083D01*
X1411807Y41993D01*
X1411758Y41935D01*
X1411717Y41902D01*
X1411709Y41886D01*
X1411495Y41696D01*
X1411272Y41532D01*
X1411042Y41384D01*
X1410812Y41260D01*
X1410581Y41161D01*
X1410351Y41071D01*
X1410129Y40997D01*
X1409915Y40939D01*
X1409717Y40898D01*
X1409536Y40865D01*
X1409371Y40841D01*
X1409223Y40824D01*
X1409108Y40816D01*
X1409026Y40807D01*
X1408952D01*
X1408581Y40824D01*
X1408236Y40857D01*
X1408071Y40882D01*
X1407907Y40915D01*
X1407758Y40939D01*
X1407619Y40972D01*
X1407487Y41005D01*
X1407372Y41030D01*
X1407273Y41063D01*
X1407191Y41087D01*
X1407117Y41104D01*
X1407067Y41120D01*
X1407034Y41137D01*
X1407026D01*
X1406853Y41203D01*
X1406697Y41260D01*
X1406557Y41326D01*
X1406425Y41392D01*
X1406310Y41449D01*
X1406203Y41507D01*
X1406104Y41565D01*
X1406022Y41622D01*
X1405948Y41672D01*
X1405882Y41713D01*
X1405833Y41754D01*
X1405792Y41787D01*
X1405759Y41811D01*
X1405734Y41836D01*
X1405726Y41845D01*
X1405717Y41853D01*
X1405676Y41902D01*
X1405643Y41943D01*
X1405627Y41984D01*
X1405611Y42025D01*
X1405602Y42050D01*
X1405594Y42075D01*
Y42091D01*
Y42100D01*
Y42149D01*
X1405611Y42190D01*
X1405643Y42264D01*
X1405676Y42314D01*
X1405685Y42322D01*
X1405693Y42330D01*
X1405726Y42363D01*
X1405767Y42388D01*
X1405833Y42421D01*
X1405882Y42429D01*
X1405907D01*
X1405948Y42421D01*
X1405989Y42412D01*
X1406071Y42371D01*
X1406104Y42347D01*
X1406129Y42330D01*
X1406145Y42322D01*
X1406154Y42314D01*
X1406351Y42174D01*
X1406565Y42050D01*
X1406779Y41943D01*
X1406985Y41853D01*
X1407084Y41811D01*
X1407166Y41779D01*
X1407248Y41746D01*
X1407314Y41721D01*
X1407372Y41705D01*
X1407413Y41688D01*
X1407437Y41680D01*
X1407446D01*
X1407734Y41606D01*
X1408014Y41548D01*
X1408269Y41507D01*
X1408384Y41491D01*
X1408491Y41482D01*
X1408598Y41466D01*
X1408680D01*
X1408763Y41458D01*
X1408828Y41449D01*
X1408952D01*
X1409190Y41458D01*
X1409421Y41482D01*
X1409635Y41523D01*
X1409841Y41565D01*
X1410030Y41622D01*
X1410211Y41688D01*
X1410376Y41754D01*
X1410532Y41828D01*
X1410663Y41902D01*
X1410787Y41968D01*
X1410886Y42034D01*
X1410976Y42091D01*
X1411042Y42141D01*
X1411091Y42174D01*
X1411124Y42198D01*
X1411133Y42207D01*
X1411289Y42355D01*
X1411429Y42511D01*
X1411552Y42676D01*
X1411659Y42849D01*
X1411758Y43013D01*
X1411840Y43178D01*
X1411914Y43342D01*
X1411980Y43499D01*
X1412030Y43647D01*
X1412071Y43787D01*
X1412104Y43910D01*
X1412128Y44017D01*
X1412145Y44099D01*
X1412161Y44165D01*
X1412169Y44206D01*
Y44223D01*
X1405602D01*
X1405611Y44519D01*
X1405643Y44807D01*
X1405693Y45079D01*
X1405759Y45334D01*
X1405833Y45564D01*
X1405915Y45786D01*
X1406014Y45984D01*
X1406104Y46173D01*
X1406203Y46338D01*
X1406294Y46478D01*
X1406376Y46601D01*
X1406458Y46700D01*
X1406524Y46782D01*
X1406573Y46840D01*
X1406606Y46881D01*
X1406615Y46889D01*
X1406812Y47070D01*
X1407018Y47235D01*
X1407232Y47366D01*
X1407446Y47490D01*
X1407668Y47589D01*
X1407882Y47671D01*
X1408088Y47745D01*
X1408293Y47794D01*
X1408483Y47836D01*
X1408656Y47868D01*
X1408812Y47893D01*
X1408943Y47910D01*
X1409050Y47918D01*
X1409133Y47926D01*
X1409207D01*
X1409487Y47918D01*
D02*
G37*
G36*
X1354307Y50025D02*
X1354348Y50016D01*
X1354414Y49984D01*
X1354464Y49942D01*
X1354472Y49934D01*
X1354480Y49926D01*
X1354513Y49885D01*
X1354529Y49835D01*
X1354562Y49728D01*
Y49679D01*
X1354571Y49638D01*
Y49605D01*
Y49597D01*
Y47696D01*
X1355838D01*
X1355904Y47679D01*
X1355961Y47663D01*
X1356003Y47646D01*
X1356044Y47630D01*
X1356068Y47613D01*
X1356077Y47605D01*
X1356085Y47597D01*
X1356118Y47564D01*
X1356142Y47523D01*
X1356167Y47449D01*
X1356175Y47424D01*
X1356184Y47399D01*
Y47383D01*
Y47375D01*
X1356175Y47325D01*
X1356167Y47276D01*
X1356134Y47210D01*
X1356101Y47161D01*
X1356085Y47153D01*
Y47144D01*
X1356044Y47111D01*
X1355994Y47095D01*
X1355879Y47062D01*
X1355830D01*
X1355797Y47054D01*
X1354571D01*
Y42758D01*
X1354562Y42593D01*
X1354546Y42437D01*
X1354513Y42297D01*
X1354464Y42157D01*
X1354414Y42034D01*
X1354365Y41910D01*
X1354299Y41803D01*
X1354241Y41713D01*
X1354184Y41622D01*
X1354118Y41548D01*
X1354069Y41482D01*
X1354011Y41433D01*
X1353970Y41392D01*
X1353937Y41359D01*
X1353920Y41343D01*
X1353912Y41334D01*
X1353781Y41244D01*
X1353641Y41161D01*
X1353501Y41087D01*
X1353353Y41030D01*
X1353204Y40980D01*
X1353048Y40939D01*
X1352768Y40873D01*
X1352628Y40849D01*
X1352513Y40832D01*
X1352398Y40824D01*
X1352307Y40816D01*
X1352225Y40807D01*
X1352118D01*
X1351797Y40824D01*
X1351476Y40857D01*
X1351172Y40898D01*
X1351032Y40923D01*
X1350892Y40956D01*
X1350768Y40980D01*
X1350661Y41005D01*
X1350563Y41030D01*
X1350480Y41054D01*
X1350406Y41071D01*
X1350357Y41087D01*
X1350324Y41096D01*
X1350316D01*
X1350143Y41153D01*
X1349995Y41203D01*
X1349855Y41260D01*
X1349732Y41309D01*
X1349625Y41359D01*
X1349526Y41400D01*
X1349444Y41441D01*
X1349370Y41482D01*
X1349304Y41515D01*
X1349254Y41548D01*
X1349213Y41581D01*
X1349180Y41606D01*
X1349155Y41622D01*
X1349139Y41639D01*
X1349131Y41647D01*
X1349098Y41688D01*
X1349065Y41721D01*
X1349040Y41795D01*
X1349024Y41845D01*
Y41853D01*
Y41861D01*
Y41902D01*
X1349040Y41951D01*
X1349073Y42017D01*
X1349106Y42067D01*
X1349114Y42075D01*
X1349123Y42083D01*
X1349155Y42116D01*
X1349197Y42141D01*
X1349263Y42174D01*
X1349312Y42182D01*
X1349378D01*
X1349419Y42165D01*
X1349493Y42133D01*
X1349534Y42116D01*
X1349559Y42100D01*
X1349575Y42091D01*
X1349583Y42083D01*
X1349756Y41993D01*
X1349946Y41910D01*
X1350143Y41836D01*
X1350332Y41770D01*
X1350505Y41713D01*
X1350579Y41696D01*
X1350645Y41672D01*
X1350694Y41655D01*
X1350736Y41647D01*
X1350760Y41639D01*
X1350768D01*
X1351048Y41573D01*
X1351303Y41532D01*
X1351550Y41499D01*
X1351657Y41482D01*
X1351756Y41474D01*
X1351847Y41466D01*
X1351929Y41458D01*
X1352003D01*
X1352061Y41449D01*
X1352176D01*
X1352332Y41458D01*
X1352480Y41466D01*
X1352620Y41482D01*
X1352744Y41507D01*
X1352859Y41532D01*
X1352966Y41565D01*
X1353065Y41598D01*
X1353155Y41639D01*
X1353229Y41672D01*
X1353295Y41705D01*
X1353353Y41737D01*
X1353402Y41762D01*
X1353435Y41787D01*
X1353460Y41803D01*
X1353476Y41820D01*
X1353484D01*
X1353558Y41894D01*
X1353632Y41968D01*
X1353690Y42050D01*
X1353739Y42124D01*
X1353822Y42281D01*
X1353871Y42429D01*
X1353904Y42560D01*
X1353912Y42618D01*
X1353920Y42667D01*
X1353929Y42700D01*
Y42733D01*
Y42750D01*
Y42758D01*
Y47054D01*
X1350439D01*
X1350357Y47062D01*
X1350291Y47070D01*
X1350234Y47087D01*
X1350184Y47103D01*
X1350151Y47120D01*
X1350127Y47128D01*
X1350118Y47144D01*
X1350110D01*
X1350077Y47177D01*
X1350044Y47218D01*
X1350020Y47292D01*
X1350011Y47317D01*
X1350003Y47342D01*
Y47358D01*
Y47366D01*
X1350011Y47416D01*
X1350020Y47465D01*
X1350052Y47531D01*
X1350094Y47580D01*
X1350102Y47597D01*
X1350110D01*
X1350151Y47630D01*
X1350201Y47655D01*
X1350308Y47688D01*
X1350357D01*
X1350398Y47696D01*
X1353929D01*
Y49597D01*
Y49679D01*
X1353945Y49745D01*
X1353962Y49802D01*
X1353978Y49852D01*
X1353994Y49885D01*
X1354011Y49910D01*
X1354019Y49918D01*
X1354027Y49926D01*
X1354060Y49959D01*
X1354102Y49992D01*
X1354176Y50016D01*
X1354209Y50025D01*
X1354233Y50033D01*
X1354258D01*
X1354307Y50025D01*
D02*
G37*
G36*
X1373762Y47679D02*
X1373820Y47663D01*
X1373861Y47646D01*
X1373902Y47630D01*
X1373927Y47613D01*
X1373935Y47605D01*
X1373943Y47597D01*
X1373976Y47564D01*
X1374001Y47523D01*
X1374025Y47449D01*
X1374034Y47416D01*
X1374042Y47391D01*
Y47375D01*
Y47366D01*
X1374034Y47317D01*
X1374025Y47276D01*
X1373992Y47210D01*
X1373960Y47161D01*
X1373943Y47153D01*
Y47144D01*
X1373894Y47111D01*
X1373844Y47095D01*
X1373737Y47062D01*
X1373688D01*
X1373647Y47054D01*
X1371729D01*
Y41696D01*
X1374338D01*
X1374404Y41680D01*
X1374462Y41672D01*
X1374503Y41655D01*
X1374544Y41639D01*
X1374568Y41622D01*
X1374577Y41614D01*
X1374585Y41606D01*
X1374618Y41573D01*
X1374643Y41532D01*
X1374667Y41458D01*
X1374675Y41425D01*
X1374684Y41400D01*
Y41384D01*
Y41375D01*
X1374675Y41326D01*
X1374667Y41277D01*
X1374634Y41211D01*
X1374601Y41161D01*
X1374585Y41153D01*
Y41145D01*
X1374544Y41112D01*
X1374494Y41096D01*
X1374379Y41063D01*
X1374330D01*
X1374297Y41054D01*
X1368569D01*
X1368487Y41063D01*
X1368421Y41071D01*
X1368363Y41087D01*
X1368314Y41104D01*
X1368281Y41120D01*
X1368256Y41129D01*
X1368248Y41145D01*
X1368240D01*
X1368207Y41178D01*
X1368174Y41219D01*
X1368149Y41293D01*
X1368141Y41326D01*
X1368133Y41351D01*
Y41367D01*
Y41375D01*
X1368141Y41425D01*
X1368149Y41474D01*
X1368182Y41540D01*
X1368224Y41589D01*
X1368232Y41606D01*
X1368240D01*
X1368281Y41639D01*
X1368331Y41655D01*
X1368437Y41688D01*
X1368487D01*
X1368528Y41696D01*
X1371087D01*
Y47696D01*
X1373688D01*
X1373762Y47679D01*
D02*
G37*
G36*
X1294050Y47836D02*
X1294256Y47803D01*
X1294445Y47745D01*
X1294626Y47688D01*
X1294709Y47655D01*
X1294783Y47630D01*
X1294840Y47597D01*
X1294898Y47572D01*
X1294947Y47556D01*
X1294980Y47539D01*
X1294996Y47523D01*
X1295005D01*
X1295128Y47449D01*
X1295268Y47366D01*
X1295408Y47268D01*
X1295564Y47161D01*
X1295877Y46914D01*
X1296173Y46675D01*
X1296322Y46552D01*
X1296453Y46437D01*
X1296568Y46338D01*
X1296675Y46247D01*
X1296758Y46173D01*
X1296823Y46116D01*
X1296865Y46083D01*
X1296881Y46066D01*
Y47696D01*
X1298782D01*
X1298856Y47679D01*
X1298914Y47671D01*
X1298963Y47655D01*
X1299004Y47638D01*
X1299029Y47622D01*
X1299037Y47613D01*
X1299046Y47605D01*
X1299078Y47572D01*
X1299095Y47531D01*
X1299128Y47457D01*
Y47424D01*
X1299136Y47399D01*
Y47383D01*
Y47375D01*
X1299128Y47325D01*
X1299120Y47276D01*
X1299087Y47210D01*
X1299054Y47161D01*
X1299037Y47153D01*
Y47144D01*
X1298996Y47111D01*
X1298938Y47095D01*
X1298831Y47062D01*
X1298782D01*
X1298741Y47054D01*
X1297523D01*
Y41672D01*
X1299152D01*
X1299227Y41655D01*
X1299284Y41647D01*
X1299333Y41631D01*
X1299375Y41614D01*
X1299399Y41598D01*
X1299408Y41589D01*
X1299416Y41581D01*
X1299449Y41548D01*
X1299465Y41507D01*
X1299498Y41441D01*
X1299506Y41392D01*
Y41375D01*
Y41367D01*
X1299498Y41318D01*
X1299490Y41268D01*
X1299457Y41203D01*
X1299424Y41153D01*
X1299408Y41145D01*
Y41137D01*
X1299366Y41112D01*
X1299309Y41087D01*
X1299202Y41063D01*
X1299152D01*
X1299111Y41054D01*
X1294034D01*
X1293951Y41063D01*
X1293885Y41071D01*
X1293828Y41087D01*
X1293779Y41104D01*
X1293746Y41120D01*
X1293721Y41129D01*
X1293713Y41145D01*
X1293704D01*
X1293672Y41178D01*
X1293639Y41219D01*
X1293614Y41293D01*
X1293606Y41326D01*
X1293598Y41351D01*
Y41367D01*
Y41375D01*
X1293606Y41425D01*
X1293614Y41474D01*
X1293647Y41540D01*
X1293688Y41589D01*
X1293696Y41606D01*
X1293704D01*
X1293746Y41639D01*
X1293795Y41655D01*
X1293902Y41688D01*
X1293951D01*
X1293992Y41696D01*
X1296881D01*
Y45219D01*
X1296618Y45457D01*
X1296371Y45671D01*
X1296149Y45861D01*
X1295943Y46033D01*
X1295762Y46190D01*
X1295589Y46321D01*
X1295441Y46437D01*
X1295309Y46544D01*
X1295194Y46626D01*
X1295095Y46700D01*
X1295013Y46757D01*
X1294947Y46799D01*
X1294898Y46832D01*
X1294857Y46856D01*
X1294840Y46873D01*
X1294832D01*
X1294618Y46988D01*
X1294420Y47070D01*
X1294248Y47128D01*
X1294099Y47169D01*
X1293976Y47194D01*
X1293927Y47202D01*
X1293885D01*
X1293853Y47210D01*
X1293811D01*
X1293737Y47202D01*
X1293672Y47194D01*
X1293606Y47177D01*
X1293548Y47161D01*
X1293499Y47136D01*
X1293458Y47120D01*
X1293433Y47111D01*
X1293425Y47103D01*
X1293342Y47062D01*
X1293268Y47004D01*
X1293186Y46947D01*
X1293112Y46889D01*
X1293046Y46832D01*
X1292997Y46782D01*
X1292964Y46749D01*
X1292956Y46741D01*
X1292906Y46692D01*
X1292865Y46651D01*
X1292824Y46618D01*
X1292799Y46593D01*
X1292766Y46568D01*
X1292758Y46560D01*
X1292709Y46544D01*
X1292668Y46535D01*
X1292618D01*
X1292569Y46544D01*
X1292519Y46552D01*
X1292445Y46585D01*
X1292396Y46609D01*
X1292388Y46626D01*
X1292379D01*
X1292347Y46667D01*
X1292322Y46708D01*
X1292289Y46790D01*
Y46823D01*
X1292281Y46848D01*
Y46865D01*
Y46873D01*
X1292289Y46914D01*
X1292305Y46955D01*
X1292330Y46996D01*
X1292355Y47046D01*
X1292437Y47144D01*
X1292528Y47243D01*
X1292626Y47325D01*
X1292700Y47391D01*
X1292733Y47424D01*
X1292758Y47441D01*
X1292775Y47449D01*
X1292783Y47457D01*
X1292873Y47523D01*
X1292972Y47589D01*
X1293161Y47688D01*
X1293334Y47753D01*
X1293499Y47803D01*
X1293647Y47836D01*
X1293704Y47844D01*
X1293754D01*
X1293795Y47852D01*
X1293853D01*
X1294050Y47836D01*
D02*
G37*
G36*
X1465860Y42881D02*
X1465999Y42849D01*
X1466131Y42799D01*
X1466238Y42750D01*
X1466320Y42692D01*
X1466386Y42643D01*
X1466427Y42610D01*
X1466444Y42593D01*
X1466543Y42478D01*
X1466617Y42355D01*
X1466674Y42231D01*
X1466707Y42116D01*
X1466732Y42009D01*
X1466740Y41927D01*
X1466748Y41894D01*
Y41869D01*
Y41861D01*
Y41853D01*
X1466732Y41696D01*
X1466699Y41556D01*
X1466649Y41433D01*
X1466592Y41326D01*
X1466543Y41235D01*
X1466493Y41178D01*
X1466460Y41137D01*
X1466444Y41120D01*
X1466328Y41021D01*
X1466197Y40947D01*
X1466082Y40898D01*
X1465966Y40865D01*
X1465860Y40841D01*
X1465785Y40832D01*
X1465753Y40824D01*
X1465432D01*
X1465283Y40841D01*
X1465143Y40873D01*
X1465012Y40915D01*
X1464905Y40972D01*
X1464823Y41030D01*
X1464757Y41071D01*
X1464716Y41104D01*
X1464699Y41120D01*
X1464592Y41235D01*
X1464518Y41359D01*
X1464460Y41482D01*
X1464427Y41606D01*
X1464403Y41705D01*
X1464395Y41787D01*
X1464386Y41820D01*
Y41845D01*
Y41853D01*
Y41861D01*
X1464403Y42017D01*
X1464436Y42157D01*
X1464485Y42281D01*
X1464543Y42388D01*
X1464600Y42478D01*
X1464650Y42536D01*
X1464683Y42577D01*
X1464699Y42593D01*
X1464814Y42692D01*
X1464938Y42766D01*
X1465061Y42824D01*
X1465176Y42857D01*
X1465283Y42881D01*
X1465357Y42890D01*
X1465390Y42898D01*
X1465711D01*
X1465860Y42881D01*
D02*
G37*
G36*
X1399957D02*
X1400097Y42849D01*
X1400228Y42799D01*
X1400335Y42750D01*
X1400418Y42692D01*
X1400484Y42643D01*
X1400525Y42610D01*
X1400541Y42593D01*
X1400640Y42478D01*
X1400714Y42355D01*
X1400771Y42231D01*
X1400804Y42116D01*
X1400829Y42009D01*
X1400837Y41927D01*
X1400846Y41894D01*
Y41869D01*
Y41861D01*
Y41853D01*
X1400829Y41696D01*
X1400796Y41556D01*
X1400747Y41433D01*
X1400689Y41326D01*
X1400640Y41235D01*
X1400591Y41178D01*
X1400558Y41137D01*
X1400541Y41120D01*
X1400426Y41021D01*
X1400294Y40947D01*
X1400179Y40898D01*
X1400064Y40865D01*
X1399957Y40841D01*
X1399883Y40832D01*
X1399850Y40824D01*
X1399529D01*
X1399381Y40841D01*
X1399241Y40873D01*
X1399109Y40915D01*
X1399002Y40972D01*
X1398920Y41030D01*
X1398854Y41071D01*
X1398813Y41104D01*
X1398796Y41120D01*
X1398690Y41235D01*
X1398615Y41359D01*
X1398558Y41482D01*
X1398525Y41606D01*
X1398500Y41705D01*
X1398492Y41787D01*
X1398484Y41820D01*
Y41845D01*
Y41853D01*
Y41861D01*
X1398500Y42017D01*
X1398533Y42157D01*
X1398582Y42281D01*
X1398640Y42388D01*
X1398698Y42478D01*
X1398747Y42536D01*
X1398780Y42577D01*
X1398796Y42593D01*
X1398912Y42692D01*
X1399035Y42766D01*
X1399158Y42824D01*
X1399274Y42857D01*
X1399381Y42881D01*
X1399455Y42890D01*
X1399488Y42898D01*
X1399809D01*
X1399957Y42881D01*
D02*
G37*
G36*
X1343469D02*
X1343609Y42849D01*
X1343740Y42799D01*
X1343847Y42750D01*
X1343930Y42692D01*
X1343996Y42643D01*
X1344037Y42610D01*
X1344053Y42593D01*
X1344152Y42478D01*
X1344226Y42355D01*
X1344284Y42231D01*
X1344317Y42116D01*
X1344341Y42009D01*
X1344349Y41927D01*
X1344358Y41894D01*
Y41869D01*
Y41861D01*
Y41853D01*
X1344341Y41696D01*
X1344308Y41556D01*
X1344259Y41433D01*
X1344201Y41326D01*
X1344152Y41235D01*
X1344102Y41178D01*
X1344070Y41137D01*
X1344053Y41120D01*
X1343938Y41021D01*
X1343806Y40947D01*
X1343691Y40898D01*
X1343576Y40865D01*
X1343469Y40841D01*
X1343395Y40832D01*
X1343362Y40824D01*
X1343041D01*
X1342893Y40841D01*
X1342753Y40873D01*
X1342621Y40915D01*
X1342514Y40972D01*
X1342432Y41030D01*
X1342366Y41071D01*
X1342325Y41104D01*
X1342309Y41120D01*
X1342202Y41235D01*
X1342127Y41359D01*
X1342070Y41482D01*
X1342037Y41606D01*
X1342012Y41705D01*
X1342004Y41787D01*
X1341996Y41820D01*
Y41845D01*
Y41853D01*
Y41861D01*
X1342012Y42017D01*
X1342045Y42157D01*
X1342095Y42281D01*
X1342152Y42388D01*
X1342210Y42478D01*
X1342259Y42536D01*
X1342292Y42577D01*
X1342309Y42593D01*
X1342424Y42692D01*
X1342547Y42766D01*
X1342671Y42824D01*
X1342786Y42857D01*
X1342893Y42881D01*
X1342967Y42890D01*
X1343000Y42898D01*
X1343321D01*
X1343469Y42881D01*
D02*
G37*
G36*
X1315225D02*
X1315365Y42849D01*
X1315496Y42799D01*
X1315603Y42750D01*
X1315686Y42692D01*
X1315751Y42643D01*
X1315793Y42610D01*
X1315809Y42593D01*
X1315908Y42478D01*
X1315982Y42355D01*
X1316040Y42231D01*
X1316073Y42116D01*
X1316097Y42009D01*
X1316105Y41927D01*
X1316114Y41894D01*
Y41869D01*
Y41861D01*
Y41853D01*
X1316097Y41696D01*
X1316064Y41556D01*
X1316015Y41433D01*
X1315957Y41326D01*
X1315908Y41235D01*
X1315858Y41178D01*
X1315826Y41137D01*
X1315809Y41120D01*
X1315694Y41021D01*
X1315562Y40947D01*
X1315447Y40898D01*
X1315332Y40865D01*
X1315225Y40841D01*
X1315151Y40832D01*
X1315118Y40824D01*
X1314797D01*
X1314649Y40841D01*
X1314509Y40873D01*
X1314377Y40915D01*
X1314270Y40972D01*
X1314188Y41030D01*
X1314122Y41071D01*
X1314081Y41104D01*
X1314064Y41120D01*
X1313958Y41235D01*
X1313883Y41359D01*
X1313826Y41482D01*
X1313793Y41606D01*
X1313768Y41705D01*
X1313760Y41787D01*
X1313752Y41820D01*
Y41845D01*
Y41853D01*
Y41861D01*
X1313768Y42017D01*
X1313801Y42157D01*
X1313851Y42281D01*
X1313908Y42388D01*
X1313966Y42478D01*
X1314015Y42536D01*
X1314048Y42577D01*
X1314064Y42593D01*
X1314180Y42692D01*
X1314303Y42766D01*
X1314427Y42824D01*
X1314542Y42857D01*
X1314649Y42881D01*
X1314723Y42890D01*
X1314756Y42898D01*
X1315077D01*
X1315225Y42881D01*
D02*
G37*
G36*
X1453581Y51695D02*
X1453638Y51679D01*
X1453680Y51654D01*
X1453696Y51646D01*
X1453721Y51621D01*
X1453754Y51588D01*
X1453803Y51506D01*
X1453819Y51473D01*
X1453836Y51440D01*
X1453853Y51424D01*
Y51416D01*
X1459029Y40322D01*
X1459078Y40215D01*
X1459103Y40141D01*
X1459111Y40092D01*
Y40083D01*
Y40075D01*
X1459103Y40034D01*
X1459095Y39993D01*
X1459062Y39927D01*
X1459029Y39878D01*
X1459012Y39869D01*
Y39861D01*
X1458971Y39828D01*
X1458938Y39804D01*
X1458856Y39779D01*
X1458831Y39771D01*
X1458807Y39762D01*
X1458782D01*
X1458708Y39779D01*
X1458642Y39812D01*
X1458584Y39853D01*
X1458535Y39911D01*
X1458494Y39960D01*
X1458469Y40009D01*
X1458453Y40042D01*
X1458445Y40050D01*
X1453260Y51144D01*
X1453219Y51251D01*
X1453194Y51333D01*
X1453186Y51374D01*
Y51391D01*
Y51432D01*
X1453202Y51473D01*
X1453235Y51539D01*
X1453268Y51588D01*
X1453276Y51596D01*
X1453285Y51605D01*
X1453326Y51638D01*
X1453359Y51662D01*
X1453433Y51695D01*
X1453482Y51704D01*
X1453507D01*
X1453581Y51695D01*
D02*
G37*
G36*
X1444166D02*
X1444224Y51679D01*
X1444265Y51654D01*
X1444281Y51646D01*
X1444306Y51621D01*
X1444339Y51588D01*
X1444388Y51506D01*
X1444405Y51473D01*
X1444421Y51440D01*
X1444438Y51424D01*
Y51416D01*
X1449614Y40322D01*
X1449664Y40215D01*
X1449688Y40141D01*
X1449697Y40092D01*
Y40083D01*
Y40075D01*
X1449688Y40034D01*
X1449680Y39993D01*
X1449647Y39927D01*
X1449614Y39878D01*
X1449598Y39869D01*
Y39861D01*
X1449557Y39828D01*
X1449524Y39804D01*
X1449441Y39779D01*
X1449417Y39771D01*
X1449392Y39762D01*
X1449367D01*
X1449293Y39779D01*
X1449227Y39812D01*
X1449170Y39853D01*
X1449120Y39911D01*
X1449079Y39960D01*
X1449055Y40009D01*
X1449038Y40042D01*
X1449030Y40050D01*
X1443845Y51144D01*
X1443804Y51251D01*
X1443779Y51333D01*
X1443771Y51374D01*
Y51391D01*
Y51432D01*
X1443788Y51473D01*
X1443821Y51539D01*
X1443853Y51588D01*
X1443862Y51596D01*
X1443870Y51605D01*
X1443911Y51638D01*
X1443944Y51662D01*
X1444018Y51695D01*
X1444068Y51704D01*
X1444092D01*
X1444166Y51695D01*
D02*
G37*
G36*
X1484368Y47910D02*
X1484664Y47868D01*
X1484804Y47844D01*
X1484936Y47811D01*
X1485051Y47786D01*
X1485158Y47753D01*
X1485257Y47720D01*
X1485347Y47688D01*
X1485421Y47655D01*
X1485487Y47630D01*
X1485536Y47605D01*
X1485569Y47589D01*
X1485594Y47580D01*
X1485602Y47572D01*
X1485841Y47424D01*
X1486071Y47259D01*
X1486277Y47087D01*
X1486458Y46914D01*
X1486540Y46840D01*
X1486615Y46766D01*
X1486680Y46700D01*
X1486730Y46642D01*
X1486771Y46593D01*
X1486804Y46560D01*
X1486820Y46535D01*
X1486828Y46527D01*
Y47696D01*
X1488409D01*
X1488483Y47679D01*
X1488540Y47671D01*
X1488581Y47655D01*
X1488622Y47638D01*
X1488647Y47622D01*
X1488655Y47613D01*
X1488664Y47605D01*
X1488697Y47572D01*
X1488721Y47531D01*
X1488746Y47457D01*
X1488754Y47424D01*
X1488762Y47399D01*
Y47383D01*
Y47375D01*
X1488754Y47325D01*
X1488746Y47276D01*
X1488713Y47210D01*
X1488680Y47161D01*
X1488664Y47153D01*
Y47144D01*
X1488622Y47111D01*
X1488565Y47095D01*
X1488458Y47062D01*
X1488409D01*
X1488367Y47054D01*
X1487470D01*
Y38742D01*
X1488409D01*
X1488483Y38725D01*
X1488540Y38717D01*
X1488581Y38701D01*
X1488622Y38684D01*
X1488647Y38676D01*
X1488655Y38660D01*
X1488664D01*
X1488697Y38627D01*
X1488721Y38586D01*
X1488746Y38503D01*
X1488754Y38470D01*
X1488762Y38446D01*
Y38429D01*
Y38421D01*
X1488754Y38372D01*
X1488746Y38322D01*
X1488713Y38256D01*
X1488680Y38207D01*
X1488664Y38199D01*
Y38191D01*
X1488622Y38158D01*
X1488565Y38141D01*
X1488458Y38108D01*
X1488409D01*
X1488367Y38100D01*
X1485281D01*
X1485199Y38108D01*
X1485133Y38117D01*
X1485076Y38133D01*
X1485026Y38149D01*
X1484993Y38166D01*
X1484969Y38182D01*
X1484960Y38199D01*
X1484952D01*
X1484919Y38232D01*
X1484886Y38273D01*
X1484862Y38347D01*
X1484853Y38372D01*
X1484845Y38396D01*
Y38413D01*
Y38421D01*
X1484853Y38470D01*
X1484862Y38520D01*
X1484895Y38594D01*
X1484936Y38643D01*
X1484944Y38660D01*
X1484952D01*
X1484993Y38684D01*
X1485043Y38709D01*
X1485150Y38734D01*
X1485199Y38742D01*
X1486828D01*
Y42610D01*
X1486623Y42363D01*
X1486400Y42149D01*
X1486170Y41968D01*
X1485940Y41803D01*
X1485709Y41672D01*
X1485479Y41556D01*
X1485248Y41466D01*
X1485034Y41392D01*
X1484829Y41334D01*
X1484639Y41293D01*
X1484467Y41260D01*
X1484327Y41244D01*
X1484203Y41227D01*
X1484154D01*
X1484113Y41219D01*
X1484039D01*
X1483775Y41227D01*
X1483520Y41260D01*
X1483273Y41309D01*
X1483043Y41375D01*
X1482829Y41449D01*
X1482631Y41532D01*
X1482442Y41614D01*
X1482278Y41713D01*
X1482129Y41803D01*
X1481989Y41886D01*
X1481874Y41968D01*
X1481776Y42042D01*
X1481701Y42108D01*
X1481644Y42157D01*
X1481611Y42190D01*
X1481603Y42198D01*
X1481430Y42388D01*
X1481273Y42585D01*
X1481142Y42783D01*
X1481027Y42988D01*
X1480928Y43186D01*
X1480854Y43383D01*
X1480788Y43573D01*
X1480730Y43754D01*
X1480689Y43927D01*
X1480656Y44083D01*
X1480640Y44215D01*
X1480623Y44338D01*
X1480615Y44437D01*
X1480607Y44511D01*
Y44552D01*
Y44569D01*
X1480615Y44733D01*
X1480623Y44889D01*
X1480673Y45202D01*
X1480706Y45350D01*
X1480747Y45482D01*
X1480788Y45614D01*
X1480829Y45737D01*
X1480870Y45844D01*
X1480911Y45943D01*
X1480944Y46033D01*
X1480986Y46099D01*
X1481010Y46157D01*
X1481035Y46206D01*
X1481043Y46231D01*
X1481051Y46239D01*
X1481134Y46387D01*
X1481232Y46519D01*
X1481331Y46651D01*
X1481430Y46766D01*
X1481529Y46873D01*
X1481636Y46980D01*
X1481734Y47070D01*
X1481833Y47153D01*
X1481932Y47227D01*
X1482014Y47292D01*
X1482097Y47350D01*
X1482162Y47391D01*
X1482220Y47424D01*
X1482261Y47457D01*
X1482286Y47465D01*
X1482294Y47474D01*
X1482450Y47556D01*
X1482599Y47622D01*
X1482755Y47688D01*
X1482911Y47737D01*
X1483199Y47819D01*
X1483339Y47844D01*
X1483471Y47868D01*
X1483594Y47885D01*
X1483701Y47902D01*
X1483800Y47910D01*
X1483882Y47918D01*
X1483956Y47926D01*
X1484211D01*
X1484368Y47910D01*
D02*
G37*
%LPC*%
G36*
X1188121Y99999D02*
X1191470D01*
Y99627D01*
X1192958D01*
Y99255D01*
X1194074D01*
Y98883D01*
X1194818D01*
Y98511D01*
X1195191D01*
Y98139D01*
X1195935D01*
Y97767D01*
X1196307D01*
Y97394D01*
X1196679D01*
Y97022D01*
X1197051D01*
Y96650D01*
X1197423D01*
Y96278D01*
X1197795D01*
Y95534D01*
X1198167D01*
Y95162D01*
X1198540D01*
Y94417D01*
X1198912D01*
Y93301D01*
X1199284D01*
Y92185D01*
X1199656D01*
Y90696D01*
Y90324D01*
Y86231D01*
X1199284D01*
Y84743D01*
X1198912D01*
Y83998D01*
X1198540D01*
Y83254D01*
X1198167D01*
Y82510D01*
X1197795D01*
Y82138D01*
X1197423D01*
Y81766D01*
X1197051D01*
Y81394D01*
X1196679D01*
Y81022D01*
X1196307D01*
Y80649D01*
X1195935D01*
Y80277D01*
X1195563D01*
Y79905D01*
X1194818D01*
Y79533D01*
X1194074D01*
Y79161D01*
X1193330D01*
Y78789D01*
X1191842D01*
Y78417D01*
X1187748D01*
Y78789D01*
X1186260D01*
Y79161D01*
X1185516D01*
Y79533D01*
X1184772D01*
Y79905D01*
X1184027D01*
Y80277D01*
X1183655D01*
Y80649D01*
X1183283D01*
Y81022D01*
X1182911D01*
Y81394D01*
X1182539D01*
Y81766D01*
X1182167D01*
Y82138D01*
X1181795D01*
Y82510D01*
X1181423D01*
Y83254D01*
X1181050D01*
Y83998D01*
X1180678D01*
Y84743D01*
X1180306D01*
Y85859D01*
X1179934D01*
Y88092D01*
X1179562D01*
Y90324D01*
X1179934D01*
Y92557D01*
X1180306D01*
Y93673D01*
X1180678D01*
Y94417D01*
X1181050D01*
Y95162D01*
X1181423D01*
Y95906D01*
X1181795D01*
Y96278D01*
X1182167D01*
Y96650D01*
X1182539D01*
Y97022D01*
X1182911D01*
Y97394D01*
X1183283D01*
Y97767D01*
X1183655D01*
Y98139D01*
X1184027D01*
Y98511D01*
X1184772D01*
Y98883D01*
X1185516D01*
Y99255D01*
X1186632D01*
Y99627D01*
X1188121D01*
Y99999D01*
D02*
G37*
G36*
X1232029D02*
X1235378D01*
Y99627D01*
X1236867D01*
Y99255D01*
X1237983D01*
Y98883D01*
X1238727D01*
Y98511D01*
X1239100D01*
Y98139D01*
X1239844D01*
Y97767D01*
X1240216D01*
Y97394D01*
X1240588D01*
Y97022D01*
X1240960D01*
Y96650D01*
X1241332D01*
Y96278D01*
X1241704D01*
Y95906D01*
X1242076D01*
Y95162D01*
X1242449D01*
Y94417D01*
X1242821D01*
Y93673D01*
X1243193D01*
Y92557D01*
X1243565D01*
Y89952D01*
X1243937D01*
Y88464D01*
X1243565D01*
Y85859D01*
X1243193D01*
Y84743D01*
X1242821D01*
Y83998D01*
X1242449D01*
Y83254D01*
X1242076D01*
Y82510D01*
X1241704D01*
Y82138D01*
X1241332D01*
Y81766D01*
X1240960D01*
Y81394D01*
X1240588D01*
Y81022D01*
X1240216D01*
Y80649D01*
X1239844D01*
Y80277D01*
X1239472D01*
Y79905D01*
X1238727D01*
Y79533D01*
X1237983D01*
Y79161D01*
X1237239D01*
Y78789D01*
X1235751D01*
Y78417D01*
X1231657D01*
Y78789D01*
X1230169D01*
Y79161D01*
X1229425D01*
Y79533D01*
X1228680D01*
Y79905D01*
X1227936D01*
Y80277D01*
X1227564D01*
Y80649D01*
X1227192D01*
Y81022D01*
X1226820D01*
Y81394D01*
X1226448D01*
Y81766D01*
X1226076D01*
Y82138D01*
X1225704D01*
Y82882D01*
X1225332D01*
Y83254D01*
X1224959D01*
Y83998D01*
X1224587D01*
Y85115D01*
X1224215D01*
Y86231D01*
X1223843D01*
Y92185D01*
X1224215D01*
Y93301D01*
X1224587D01*
Y94417D01*
X1224959D01*
Y95162D01*
X1225332D01*
Y95534D01*
X1225704D01*
Y96278D01*
X1226076D01*
Y96650D01*
X1226448D01*
Y97022D01*
X1226820D01*
Y97394D01*
X1227192D01*
Y97767D01*
X1227564D01*
Y98139D01*
X1228308D01*
Y98511D01*
X1228680D01*
Y98883D01*
X1229425D01*
Y99255D01*
X1230541D01*
Y99627D01*
X1232029D01*
Y99999D01*
D02*
G37*
G36*
X1356686D02*
X1361896D01*
Y99627D01*
X1363384D01*
Y99255D01*
X1364129D01*
Y98883D01*
X1364873D01*
Y98511D01*
X1365245D01*
Y98139D01*
X1365989D01*
Y97767D01*
X1366361D01*
Y97394D01*
X1366733D01*
Y97022D01*
X1367106D01*
Y96650D01*
X1367478D01*
Y95906D01*
X1367850D01*
Y95534D01*
X1368222D01*
Y94790D01*
X1368594D01*
Y94045D01*
X1368966D01*
Y92557D01*
X1350361D01*
Y93673D01*
X1350733D01*
Y94790D01*
X1351105D01*
Y95534D01*
X1351477D01*
Y96278D01*
X1351849D01*
Y96650D01*
X1352221D01*
Y97022D01*
X1352593D01*
Y97767D01*
X1352965D01*
Y98139D01*
X1353710D01*
Y98511D01*
X1354082D01*
Y98883D01*
X1354826D01*
Y99255D01*
X1355570D01*
Y99627D01*
X1356686D01*
Y99999D01*
D02*
G37*
G36*
X1435946D02*
X1438923D01*
Y99627D01*
X1440411D01*
Y99255D01*
X1441528D01*
Y98883D01*
X1442272D01*
Y98511D01*
X1443016D01*
Y98139D01*
X1443388D01*
Y97767D01*
X1443760D01*
Y97394D01*
X1444132D01*
Y97022D01*
X1444504D01*
Y96650D01*
X1444877D01*
Y96278D01*
X1445249D01*
Y95906D01*
X1445621D01*
Y95162D01*
X1445993D01*
Y94790D01*
X1446365D01*
Y93673D01*
X1446737D01*
Y92929D01*
X1447109D01*
Y91068D01*
X1447481D01*
Y87347D01*
X1447109D01*
Y85487D01*
X1446737D01*
Y84370D01*
X1446365D01*
Y83626D01*
X1445993D01*
Y83254D01*
X1445621D01*
Y82510D01*
X1445249D01*
Y82138D01*
X1444877D01*
Y81394D01*
X1444504D01*
Y81022D01*
X1444132D01*
Y80649D01*
X1443388D01*
Y80277D01*
X1443016D01*
Y79905D01*
X1442272D01*
Y79533D01*
X1441900D01*
Y79161D01*
X1440783D01*
Y78789D01*
X1439295D01*
Y78417D01*
X1435202D01*
Y78789D01*
X1434085D01*
Y79161D01*
X1432969D01*
Y79533D01*
X1432225D01*
Y79905D01*
X1431853D01*
Y80277D01*
X1431108D01*
Y80649D01*
X1430736D01*
Y81022D01*
X1430364D01*
Y81394D01*
X1429992D01*
Y81766D01*
X1429620D01*
Y82138D01*
X1429248D01*
Y82882D01*
X1428876D01*
Y83626D01*
X1428504D01*
Y84370D01*
X1428132D01*
Y85115D01*
X1427759D01*
Y86603D01*
X1427387D01*
Y86975D01*
Y91441D01*
X1427759D01*
Y92929D01*
X1428132D01*
Y94045D01*
X1428504D01*
Y94790D01*
X1428876D01*
Y95534D01*
X1429248D01*
Y95906D01*
X1429620D01*
Y96650D01*
X1429992D01*
Y97022D01*
X1430364D01*
Y97394D01*
X1430736D01*
Y97767D01*
X1431108D01*
Y98139D01*
X1431853D01*
Y98511D01*
X1432225D01*
Y98883D01*
X1432969D01*
Y99255D01*
X1434085D01*
Y99627D01*
X1435946D01*
Y99999D01*
D02*
G37*
G36*
X1428217Y44511D02*
X1427880D01*
X1427682Y44503D01*
X1427501Y44494D01*
X1427345Y44478D01*
X1427213Y44470D01*
X1427156Y44461D01*
X1427115Y44453D01*
X1427073D01*
X1427049Y44445D01*
X1427024D01*
X1426835Y44420D01*
X1426654Y44387D01*
X1426489Y44363D01*
X1426349Y44330D01*
X1426226Y44297D01*
X1426176Y44289D01*
X1426135Y44280D01*
X1426102Y44272D01*
X1426069Y44264D01*
X1426061Y44256D01*
X1426053D01*
Y42840D01*
X1426193Y42709D01*
X1426333Y42585D01*
X1426473Y42470D01*
X1426604Y42363D01*
X1426736Y42272D01*
X1426859Y42182D01*
X1426975Y42108D01*
X1427082Y42034D01*
X1427180Y41976D01*
X1427271Y41919D01*
X1427345Y41877D01*
X1427411Y41845D01*
X1427460Y41811D01*
X1427501Y41795D01*
X1427526Y41787D01*
X1427534Y41779D01*
X1427806Y41672D01*
X1428077Y41589D01*
X1428341Y41532D01*
X1428464Y41507D01*
X1428579Y41491D01*
X1428686Y41474D01*
X1428785Y41466D01*
X1428876Y41458D01*
X1428950D01*
X1429007Y41449D01*
X1429090D01*
X1429246Y41458D01*
X1429394Y41466D01*
X1429534Y41482D01*
X1429666Y41515D01*
X1429789Y41540D01*
X1429896Y41573D01*
X1429995Y41614D01*
X1430085Y41647D01*
X1430159Y41688D01*
X1430233Y41721D01*
X1430291Y41754D01*
X1430341Y41787D01*
X1430373Y41811D01*
X1430398Y41828D01*
X1430415Y41836D01*
X1430423Y41845D01*
X1430505Y41919D01*
X1430571Y42001D01*
X1430629Y42083D01*
X1430686Y42165D01*
X1430768Y42330D01*
X1430818Y42486D01*
X1430851Y42618D01*
X1430859Y42676D01*
X1430867Y42725D01*
X1430875Y42766D01*
Y42799D01*
Y42816D01*
Y42824D01*
X1430867Y42939D01*
X1430851Y43046D01*
X1430818Y43153D01*
X1430785Y43260D01*
X1430686Y43441D01*
X1430579Y43597D01*
X1430472Y43729D01*
X1430423Y43778D01*
X1430373Y43820D01*
X1430341Y43853D01*
X1430308Y43885D01*
X1430291Y43894D01*
X1430283Y43902D01*
X1430126Y44009D01*
X1429962Y44099D01*
X1429789Y44182D01*
X1429608Y44256D01*
X1429427Y44313D01*
X1429238Y44363D01*
X1429065Y44404D01*
X1428884Y44437D01*
X1428728Y44461D01*
X1428571Y44478D01*
X1428439Y44494D01*
X1428316Y44503D01*
X1428217Y44511D01*
D02*
G37*
G36*
X1381144D02*
X1380806D01*
X1380609Y44503D01*
X1380428Y44494D01*
X1380272Y44478D01*
X1380140Y44470D01*
X1380082Y44461D01*
X1380041Y44453D01*
X1380000D01*
X1379975Y44445D01*
X1379951D01*
X1379761Y44420D01*
X1379580Y44387D01*
X1379416Y44363D01*
X1379276Y44330D01*
X1379152Y44297D01*
X1379103Y44289D01*
X1379062Y44280D01*
X1379029Y44272D01*
X1378996Y44264D01*
X1378988Y44256D01*
X1378980D01*
Y42840D01*
X1379120Y42709D01*
X1379259Y42585D01*
X1379399Y42470D01*
X1379531Y42363D01*
X1379663Y42272D01*
X1379786Y42182D01*
X1379901Y42108D01*
X1380008Y42034D01*
X1380107Y41976D01*
X1380197Y41919D01*
X1380272Y41877D01*
X1380337Y41845D01*
X1380387Y41811D01*
X1380428Y41795D01*
X1380453Y41787D01*
X1380461Y41779D01*
X1380733Y41672D01*
X1381004Y41589D01*
X1381267Y41532D01*
X1381391Y41507D01*
X1381506Y41491D01*
X1381613Y41474D01*
X1381712Y41466D01*
X1381802Y41458D01*
X1381876D01*
X1381934Y41449D01*
X1382016D01*
X1382173Y41458D01*
X1382321Y41466D01*
X1382461Y41482D01*
X1382592Y41515D01*
X1382716Y41540D01*
X1382823Y41573D01*
X1382921Y41614D01*
X1383012Y41647D01*
X1383086Y41688D01*
X1383160Y41721D01*
X1383218Y41754D01*
X1383267Y41787D01*
X1383300Y41811D01*
X1383325Y41828D01*
X1383341Y41836D01*
X1383349Y41845D01*
X1383432Y41919D01*
X1383498Y42001D01*
X1383555Y42083D01*
X1383613Y42165D01*
X1383695Y42330D01*
X1383745Y42486D01*
X1383777Y42618D01*
X1383786Y42676D01*
X1383794Y42725D01*
X1383802Y42766D01*
Y42799D01*
Y42816D01*
Y42824D01*
X1383794Y42939D01*
X1383777Y43046D01*
X1383745Y43153D01*
X1383712Y43260D01*
X1383613Y43441D01*
X1383506Y43597D01*
X1383399Y43729D01*
X1383349Y43778D01*
X1383300Y43820D01*
X1383267Y43853D01*
X1383234Y43885D01*
X1383218Y43894D01*
X1383210Y43902D01*
X1383053Y44009D01*
X1382889Y44099D01*
X1382716Y44182D01*
X1382535Y44256D01*
X1382354Y44313D01*
X1382164Y44363D01*
X1381992Y44404D01*
X1381810Y44437D01*
X1381654Y44461D01*
X1381498Y44478D01*
X1381366Y44494D01*
X1381243Y44503D01*
X1381144Y44511D01*
D02*
G37*
G36*
X1334071D02*
X1333733D01*
X1333536Y44503D01*
X1333355Y44494D01*
X1333198Y44478D01*
X1333067Y44470D01*
X1333009Y44461D01*
X1332968Y44453D01*
X1332927D01*
X1332902Y44445D01*
X1332877D01*
X1332688Y44420D01*
X1332507Y44387D01*
X1332342Y44363D01*
X1332202Y44330D01*
X1332079Y44297D01*
X1332030Y44289D01*
X1331989Y44280D01*
X1331956Y44272D01*
X1331923Y44264D01*
X1331915Y44256D01*
X1331906D01*
Y42840D01*
X1332046Y42709D01*
X1332186Y42585D01*
X1332326Y42470D01*
X1332458Y42363D01*
X1332589Y42272D01*
X1332713Y42182D01*
X1332828Y42108D01*
X1332935Y42034D01*
X1333034Y41976D01*
X1333124Y41919D01*
X1333198Y41877D01*
X1333264Y41845D01*
X1333313Y41811D01*
X1333355Y41795D01*
X1333379Y41787D01*
X1333388Y41779D01*
X1333659Y41672D01*
X1333931Y41589D01*
X1334194Y41532D01*
X1334317Y41507D01*
X1334433Y41491D01*
X1334540Y41474D01*
X1334639Y41466D01*
X1334729Y41458D01*
X1334803D01*
X1334861Y41449D01*
X1334943D01*
X1335099Y41458D01*
X1335247Y41466D01*
X1335387Y41482D01*
X1335519Y41515D01*
X1335643Y41540D01*
X1335750Y41573D01*
X1335848Y41614D01*
X1335939Y41647D01*
X1336013Y41688D01*
X1336087Y41721D01*
X1336145Y41754D01*
X1336194Y41787D01*
X1336227Y41811D01*
X1336252Y41828D01*
X1336268Y41836D01*
X1336276Y41845D01*
X1336358Y41919D01*
X1336424Y42001D01*
X1336482Y42083D01*
X1336539Y42165D01*
X1336622Y42330D01*
X1336671Y42486D01*
X1336704Y42618D01*
X1336712Y42676D01*
X1336721Y42725D01*
X1336729Y42766D01*
Y42799D01*
Y42816D01*
Y42824D01*
X1336721Y42939D01*
X1336704Y43046D01*
X1336671Y43153D01*
X1336638Y43260D01*
X1336539Y43441D01*
X1336432Y43597D01*
X1336326Y43729D01*
X1336276Y43778D01*
X1336227Y43820D01*
X1336194Y43853D01*
X1336161Y43885D01*
X1336145Y43894D01*
X1336136Y43902D01*
X1335980Y44009D01*
X1335815Y44099D01*
X1335643Y44182D01*
X1335461Y44256D01*
X1335280Y44313D01*
X1335091Y44363D01*
X1334918Y44404D01*
X1334737Y44437D01*
X1334581Y44461D01*
X1334424Y44478D01*
X1334293Y44494D01*
X1334169Y44503D01*
X1334071Y44511D01*
D02*
G37*
G36*
X1409248Y47284D02*
X1409199D01*
X1408993Y47276D01*
X1408787Y47259D01*
X1408598Y47218D01*
X1408417Y47177D01*
X1408252Y47128D01*
X1408088Y47070D01*
X1407939Y47013D01*
X1407808Y46947D01*
X1407684Y46881D01*
X1407577Y46823D01*
X1407479Y46766D01*
X1407405Y46716D01*
X1407339Y46675D01*
X1407289Y46642D01*
X1407265Y46618D01*
X1407256Y46609D01*
X1407108Y46478D01*
X1406977Y46338D01*
X1406861Y46198D01*
X1406754Y46050D01*
X1406664Y45910D01*
X1406582Y45762D01*
X1406508Y45622D01*
X1406442Y45482D01*
X1406392Y45359D01*
X1406351Y45235D01*
X1406318Y45136D01*
X1406285Y45046D01*
X1406269Y44972D01*
X1406252Y44914D01*
X1406244Y44881D01*
Y44865D01*
X1412153D01*
X1412112Y45062D01*
X1412054Y45251D01*
X1411989Y45433D01*
X1411914Y45597D01*
X1411832Y45753D01*
X1411750Y45893D01*
X1411659Y46025D01*
X1411577Y46149D01*
X1411495Y46255D01*
X1411412Y46346D01*
X1411338Y46428D01*
X1411281Y46494D01*
X1411223Y46552D01*
X1411182Y46585D01*
X1411157Y46609D01*
X1411149Y46618D01*
X1410993Y46733D01*
X1410828Y46840D01*
X1410663Y46930D01*
X1410499Y47004D01*
X1410334Y47070D01*
X1410170Y47120D01*
X1410013Y47169D01*
X1409865Y47202D01*
X1409725Y47227D01*
X1409602Y47251D01*
X1409487Y47268D01*
X1409388Y47276D01*
X1409306D01*
X1409248Y47284D01*
D02*
G37*
G36*
X1484088D02*
X1484039D01*
X1483825Y47276D01*
X1483619Y47251D01*
X1483421Y47210D01*
X1483240Y47161D01*
X1483059Y47103D01*
X1482903Y47029D01*
X1482747Y46963D01*
X1482615Y46889D01*
X1482491Y46807D01*
X1482376Y46741D01*
X1482286Y46675D01*
X1482203Y46609D01*
X1482146Y46560D01*
X1482097Y46519D01*
X1482072Y46494D01*
X1482063Y46486D01*
X1481924Y46330D01*
X1481792Y46173D01*
X1481685Y46017D01*
X1481594Y45852D01*
X1481512Y45688D01*
X1481446Y45531D01*
X1481397Y45375D01*
X1481348Y45227D01*
X1481315Y45087D01*
X1481290Y44963D01*
X1481273Y44857D01*
X1481265Y44758D01*
X1481257Y44675D01*
X1481249Y44618D01*
Y44585D01*
Y44569D01*
X1481257Y44363D01*
X1481282Y44165D01*
X1481323Y43976D01*
X1481372Y43795D01*
X1481438Y43630D01*
X1481504Y43474D01*
X1481578Y43326D01*
X1481652Y43194D01*
X1481734Y43071D01*
X1481808Y42964D01*
X1481874Y42873D01*
X1481932Y42791D01*
X1481989Y42733D01*
X1482031Y42684D01*
X1482055Y42659D01*
X1482063Y42651D01*
X1482220Y42511D01*
X1482384Y42388D01*
X1482549Y42289D01*
X1482714Y42198D01*
X1482887Y42116D01*
X1483043Y42050D01*
X1483207Y42001D01*
X1483356Y41960D01*
X1483495Y41927D01*
X1483627Y41902D01*
X1483742Y41886D01*
X1483841Y41877D01*
X1483923Y41869D01*
X1483989Y41861D01*
X1484039D01*
X1484253Y41869D01*
X1484458Y41894D01*
X1484656Y41935D01*
X1484845Y41984D01*
X1485018Y42050D01*
X1485183Y42116D01*
X1485331Y42182D01*
X1485471Y42264D01*
X1485594Y42338D01*
X1485701Y42404D01*
X1485800Y42478D01*
X1485874Y42536D01*
X1485940Y42585D01*
X1485981Y42626D01*
X1486014Y42651D01*
X1486022Y42659D01*
X1486162Y42816D01*
X1486285Y42972D01*
X1486392Y43128D01*
X1486491Y43293D01*
X1486565Y43457D01*
X1486631Y43614D01*
X1486689Y43770D01*
X1486730Y43910D01*
X1486763Y44050D01*
X1486787Y44173D01*
X1486804Y44289D01*
X1486812Y44379D01*
X1486820Y44461D01*
X1486828Y44519D01*
Y44552D01*
Y44569D01*
X1486820Y44774D01*
X1486796Y44972D01*
X1486754Y45161D01*
X1486705Y45334D01*
X1486639Y45507D01*
X1486573Y45663D01*
X1486499Y45803D01*
X1486425Y45943D01*
X1486351Y46058D01*
X1486277Y46165D01*
X1486211Y46255D01*
X1486145Y46338D01*
X1486096Y46395D01*
X1486055Y46445D01*
X1486030Y46469D01*
X1486022Y46478D01*
X1485866Y46618D01*
X1485701Y46741D01*
X1485536Y46848D01*
X1485372Y46947D01*
X1485199Y47021D01*
X1485034Y47087D01*
X1484878Y47144D01*
X1484722Y47186D01*
X1484582Y47218D01*
X1484450Y47243D01*
X1484335Y47259D01*
X1484236Y47276D01*
X1484154D01*
X1484088Y47284D01*
D02*
G37*
%LPD*%
D44*
X968299Y144501D02*
D03*
Y139499D02*
D03*
Y134501D02*
D03*
Y129499D02*
D03*
Y124501D02*
D03*
Y119499D02*
D03*
Y114501D02*
D03*
Y109499D02*
D03*
X1038301D02*
D03*
Y114501D02*
D03*
Y119499D02*
D03*
Y124501D02*
D03*
Y129499D02*
D03*
Y134501D02*
D03*
Y139499D02*
D03*
Y144501D02*
D03*
D45*
X1020801Y162001D02*
D03*
X1015799D02*
D03*
X1010801D02*
D03*
X1005799D02*
D03*
X1000801D02*
D03*
X995799D02*
D03*
X990801D02*
D03*
X985799D02*
D03*
Y91999D02*
D03*
X990801D02*
D03*
X995799D02*
D03*
X1000801D02*
D03*
X1005799D02*
D03*
X1010801D02*
D03*
X1015799D02*
D03*
X1020801D02*
D03*
D112*
X1522235Y176741D02*
D03*
D113*
X1483385Y178491D02*
D03*
D114*
X1447884Y180091D02*
D03*
D115*
X1415435Y181539D02*
D03*
D116*
X1385684Y182791D02*
D03*
D117*
X1358285Y183891D02*
D03*
D118*
X1332984Y184889D02*
D03*
D119*
X1309586Y185791D02*
D03*
D120*
X1287884Y186591D02*
D03*
D121*
X1267686Y187289D02*
D03*
D122*
X1248834Y187940D02*
D03*
D123*
X1231176Y188481D02*
D03*
D124*
X1214554Y188981D02*
D03*
D125*
X1198880Y189426D02*
D03*
D126*
X1183640Y189819D02*
D03*
D127*
X1168400Y190175D02*
D03*
D128*
X1153160Y190485D02*
D03*
D129*
X1137920Y190764D02*
D03*
D130*
X1122680Y191016D02*
D03*
D131*
X1107440Y191234D02*
D03*
D132*
X1092200Y191435D02*
D03*
D133*
X741870Y60000D02*
D03*
X745871D02*
D03*
X749869D02*
D03*
X753869D02*
D03*
X757870D02*
D03*
X761870D02*
D03*
X765871D02*
D03*
X769869D02*
D03*
X773869D02*
D03*
X777870D02*
D03*
X781870D02*
D03*
X785871D02*
D03*
X689869D02*
D03*
X693870D02*
D03*
X697870D02*
D03*
X701871D02*
D03*
X705871D02*
D03*
X709869D02*
D03*
X713869D02*
D03*
X717870D02*
D03*
X721870D02*
D03*
X725871D02*
D03*
X729869D02*
D03*
X733869D02*
D03*
X737870D02*
D03*
X733869Y194000D02*
D03*
X729869D02*
D03*
X725871D02*
D03*
X721870D02*
D03*
X717870D02*
D03*
X713869D02*
D03*
X709869D02*
D03*
X705871D02*
D03*
X701871D02*
D03*
X697870D02*
D03*
X693870D02*
D03*
X689869D02*
D03*
X785871D02*
D03*
X781870D02*
D03*
X777870D02*
D03*
X773869D02*
D03*
X769869D02*
D03*
X765871D02*
D03*
X761870D02*
D03*
X757870D02*
D03*
X753869D02*
D03*
X749869D02*
D03*
X745871D02*
D03*
X741870D02*
D03*
X737870D02*
D03*
D134*
X804870Y131000D02*
D03*
Y135001D02*
D03*
Y138999D02*
D03*
Y142999D02*
D03*
Y147000D02*
D03*
Y151000D02*
D03*
Y155001D02*
D03*
Y158999D02*
D03*
Y162999D02*
D03*
Y167000D02*
D03*
Y171000D02*
D03*
Y175001D02*
D03*
Y78999D02*
D03*
Y83000D02*
D03*
Y87000D02*
D03*
Y91001D02*
D03*
Y95001D02*
D03*
Y98999D02*
D03*
Y102999D02*
D03*
Y107000D02*
D03*
Y111000D02*
D03*
Y115001D02*
D03*
Y118999D02*
D03*
Y122999D02*
D03*
Y127000D02*
D03*
X670870Y122999D02*
D03*
Y118999D02*
D03*
Y115001D02*
D03*
Y111000D02*
D03*
Y107000D02*
D03*
Y102999D02*
D03*
Y98999D02*
D03*
Y95001D02*
D03*
Y91001D02*
D03*
Y87000D02*
D03*
Y83000D02*
D03*
Y78999D02*
D03*
Y175001D02*
D03*
Y171000D02*
D03*
Y167000D02*
D03*
Y162999D02*
D03*
Y158999D02*
D03*
Y155001D02*
D03*
Y151000D02*
D03*
Y147000D02*
D03*
Y142999D02*
D03*
Y138999D02*
D03*
Y135001D02*
D03*
Y131000D02*
D03*
Y127000D02*
D03*
D135*
X915731Y169926D02*
D03*
X907730D02*
D03*
X899729D02*
D03*
X891730D02*
D03*
X883729D02*
D03*
X875731D02*
D03*
X867730D02*
D03*
X859729D02*
D03*
Y84074D02*
D03*
X867730D02*
D03*
X875731D02*
D03*
X883729D02*
D03*
X891730D02*
D03*
X899729D02*
D03*
X907730D02*
D03*
X915731D02*
D03*
D136*
X844804Y155001D02*
D03*
Y147000D02*
D03*
Y138999D02*
D03*
Y131000D02*
D03*
Y122999D02*
D03*
Y115001D02*
D03*
Y107000D02*
D03*
Y98999D02*
D03*
X930656D02*
D03*
Y107000D02*
D03*
Y115001D02*
D03*
Y122999D02*
D03*
Y131000D02*
D03*
Y138999D02*
D03*
Y147000D02*
D03*
Y155001D02*
D03*
D137*
X609910Y207000D02*
D03*
X604911D02*
D03*
X599910D02*
D03*
X594911D02*
D03*
X589910D02*
D03*
X584911D02*
D03*
X579910D02*
D03*
X574911D02*
D03*
X569910D02*
D03*
X564911D02*
D03*
X559910D02*
D03*
X554911D02*
D03*
X549910D02*
D03*
X544909D02*
D03*
X539910D02*
D03*
X534909D02*
D03*
X529910D02*
D03*
X524909D02*
D03*
X519910D02*
D03*
X514909D02*
D03*
X509910D02*
D03*
X504909D02*
D03*
X499910D02*
D03*
X494909D02*
D03*
X489910D02*
D03*
Y47000D02*
D03*
X494909D02*
D03*
X499910D02*
D03*
X504909D02*
D03*
X509910D02*
D03*
X514909D02*
D03*
X519910D02*
D03*
X524909D02*
D03*
X529910D02*
D03*
X534909D02*
D03*
X539910D02*
D03*
X544909D02*
D03*
X549910D02*
D03*
X554911D02*
D03*
X559910D02*
D03*
X564911D02*
D03*
X569910D02*
D03*
X574911D02*
D03*
X579910D02*
D03*
X584911D02*
D03*
X589910D02*
D03*
X594911D02*
D03*
X599910D02*
D03*
X604911D02*
D03*
X609910D02*
D03*
D138*
X469910Y187000D02*
D03*
Y182001D02*
D03*
Y177000D02*
D03*
Y172001D02*
D03*
Y167000D02*
D03*
Y162001D02*
D03*
Y157000D02*
D03*
Y152001D02*
D03*
Y147000D02*
D03*
Y142001D02*
D03*
Y137000D02*
D03*
Y132001D02*
D03*
Y127000D02*
D03*
Y121999D02*
D03*
Y117000D02*
D03*
Y111999D02*
D03*
Y107000D02*
D03*
Y101999D02*
D03*
Y97000D02*
D03*
Y91999D02*
D03*
Y87000D02*
D03*
Y81999D02*
D03*
Y77000D02*
D03*
Y71999D02*
D03*
Y67000D02*
D03*
X629910D02*
D03*
Y71999D02*
D03*
Y77000D02*
D03*
Y81999D02*
D03*
Y87000D02*
D03*
Y91999D02*
D03*
Y97000D02*
D03*
Y101999D02*
D03*
Y107000D02*
D03*
Y111999D02*
D03*
Y117000D02*
D03*
Y121999D02*
D03*
Y127000D02*
D03*
Y132001D02*
D03*
Y137000D02*
D03*
Y142001D02*
D03*
Y147000D02*
D03*
Y152001D02*
D03*
Y157000D02*
D03*
Y162001D02*
D03*
Y167000D02*
D03*
Y172001D02*
D03*
Y177000D02*
D03*
Y182001D02*
D03*
Y187000D02*
D03*
D139*
X275791Y195450D02*
D03*
Y203449D02*
D03*
X283789D02*
D03*
Y195450D02*
D03*
X275791Y147450D02*
D03*
X283789D02*
D03*
X275791Y123449D02*
D03*
Y131450D02*
D03*
Y139448D02*
D03*
X283789D02*
D03*
Y131450D02*
D03*
Y123449D02*
D03*
X275791Y187449D02*
D03*
X283789D02*
D03*
X275791Y155450D02*
D03*
Y163449D02*
D03*
Y171450D02*
D03*
Y179449D02*
D03*
X283789D02*
D03*
Y171450D02*
D03*
Y163449D02*
D03*
Y155450D02*
D03*
X275791Y75451D02*
D03*
X283789D02*
D03*
X275791Y51450D02*
D03*
Y59449D02*
D03*
Y67450D02*
D03*
X283789D02*
D03*
Y59449D02*
D03*
Y51450D02*
D03*
X275791Y115451D02*
D03*
X283789D02*
D03*
X275791Y83449D02*
D03*
Y91450D02*
D03*
Y99449D02*
D03*
Y107450D02*
D03*
X283789D02*
D03*
Y99449D02*
D03*
Y91450D02*
D03*
Y83449D02*
D03*
X331790Y195450D02*
D03*
Y203449D02*
D03*
X339791Y195450D02*
D03*
Y203449D02*
D03*
X347789D02*
D03*
X355790D02*
D03*
X347789Y195450D02*
D03*
X355790D02*
D03*
X291790D02*
D03*
Y203449D02*
D03*
X299791Y195450D02*
D03*
Y203449D02*
D03*
X307790D02*
D03*
X315791D02*
D03*
X323789D02*
D03*
X307790Y195450D02*
D03*
X315791D02*
D03*
X323789D02*
D03*
X403789D02*
D03*
Y203449D02*
D03*
X411790Y195450D02*
D03*
Y203449D02*
D03*
X419791D02*
D03*
X427789D02*
D03*
X419791Y195450D02*
D03*
X427789D02*
D03*
X363789D02*
D03*
Y203449D02*
D03*
X371790Y195450D02*
D03*
Y203449D02*
D03*
X379791D02*
D03*
X387789D02*
D03*
X395790D02*
D03*
X379791Y195450D02*
D03*
X387789D02*
D03*
X395790D02*
D03*
X323789Y123449D02*
D03*
Y131450D02*
D03*
Y139448D02*
D03*
Y147450D02*
D03*
X331790Y155450D02*
D03*
X339791D02*
D03*
X347789D02*
D03*
X355790D02*
D03*
X331790Y123449D02*
D03*
Y131450D02*
D03*
Y139448D02*
D03*
Y147450D02*
D03*
X339791D02*
D03*
X347789D02*
D03*
X355790D02*
D03*
X339791Y123449D02*
D03*
Y131450D02*
D03*
Y139448D02*
D03*
X347789D02*
D03*
X355790D02*
D03*
X347789Y131450D02*
D03*
X355790D02*
D03*
X347789Y123449D02*
D03*
X355790D02*
D03*
X331790Y163449D02*
D03*
Y171450D02*
D03*
Y179449D02*
D03*
Y187449D02*
D03*
X339791D02*
D03*
X347789D02*
D03*
X355790D02*
D03*
X339791Y163449D02*
D03*
Y171450D02*
D03*
Y179449D02*
D03*
X347789D02*
D03*
X355790D02*
D03*
X347789Y171450D02*
D03*
X355790D02*
D03*
X347789Y163449D02*
D03*
X355790D02*
D03*
X291790Y123449D02*
D03*
Y131450D02*
D03*
Y139448D02*
D03*
Y147450D02*
D03*
X299791D02*
D03*
X307790D02*
D03*
X315791D02*
D03*
X299791Y123449D02*
D03*
Y131450D02*
D03*
Y139448D02*
D03*
X307790D02*
D03*
X315791D02*
D03*
X307790Y131450D02*
D03*
X315791D02*
D03*
X307790Y123449D02*
D03*
X315791D02*
D03*
X291790Y155450D02*
D03*
Y163449D02*
D03*
Y171450D02*
D03*
Y179449D02*
D03*
Y187449D02*
D03*
X299791D02*
D03*
X307790D02*
D03*
X315791D02*
D03*
X323789D02*
D03*
X299791Y155450D02*
D03*
Y163449D02*
D03*
Y171450D02*
D03*
Y179449D02*
D03*
X307790D02*
D03*
X315791D02*
D03*
X323789D02*
D03*
X307790Y171450D02*
D03*
X315791D02*
D03*
X323789D02*
D03*
X307790Y163449D02*
D03*
Y155450D02*
D03*
X315791D02*
D03*
Y163449D02*
D03*
X323789D02*
D03*
Y155450D02*
D03*
X395790Y123449D02*
D03*
Y131450D02*
D03*
Y139448D02*
D03*
Y147450D02*
D03*
X403789Y155450D02*
D03*
X411790D02*
D03*
X419791D02*
D03*
X427789D02*
D03*
X403789Y123449D02*
D03*
Y131450D02*
D03*
Y139448D02*
D03*
Y147450D02*
D03*
X411790D02*
D03*
X419791D02*
D03*
X427789D02*
D03*
X411790Y123449D02*
D03*
Y131450D02*
D03*
Y139448D02*
D03*
X419791D02*
D03*
X427789D02*
D03*
X419791Y131450D02*
D03*
X427789D02*
D03*
X419791Y123449D02*
D03*
X427789D02*
D03*
X403789Y163449D02*
D03*
Y171450D02*
D03*
Y179449D02*
D03*
Y187449D02*
D03*
X411790D02*
D03*
X419791D02*
D03*
X427789D02*
D03*
X411790Y163449D02*
D03*
Y171450D02*
D03*
Y179449D02*
D03*
X419791D02*
D03*
X427789D02*
D03*
X419791Y171450D02*
D03*
X427789D02*
D03*
X419791Y163449D02*
D03*
X427789D02*
D03*
X363789Y123449D02*
D03*
Y131450D02*
D03*
Y139448D02*
D03*
Y147450D02*
D03*
X371790D02*
D03*
X379791D02*
D03*
X387789D02*
D03*
X371790Y123449D02*
D03*
Y131450D02*
D03*
Y139448D02*
D03*
X379791D02*
D03*
X387789D02*
D03*
X379791Y131450D02*
D03*
X387789D02*
D03*
X379791Y123449D02*
D03*
X387789D02*
D03*
X363789Y155450D02*
D03*
Y163449D02*
D03*
Y171450D02*
D03*
Y179449D02*
D03*
Y187449D02*
D03*
X371790D02*
D03*
X379791D02*
D03*
X387789D02*
D03*
X395790D02*
D03*
X371790Y155450D02*
D03*
Y163449D02*
D03*
Y171450D02*
D03*
Y179449D02*
D03*
X379791D02*
D03*
X387789D02*
D03*
X395790D02*
D03*
X379791Y171450D02*
D03*
X387789D02*
D03*
X395790D02*
D03*
X379791Y163449D02*
D03*
Y155450D02*
D03*
X387789D02*
D03*
Y163449D02*
D03*
X395790D02*
D03*
Y155450D02*
D03*
X323789Y51450D02*
D03*
Y59449D02*
D03*
Y67450D02*
D03*
Y75451D02*
D03*
X331790Y83449D02*
D03*
X339791D02*
D03*
X347789D02*
D03*
X355790D02*
D03*
X331790Y51450D02*
D03*
Y59449D02*
D03*
Y67450D02*
D03*
Y75451D02*
D03*
X339791D02*
D03*
X347789D02*
D03*
X355790D02*
D03*
X339791Y51450D02*
D03*
Y59449D02*
D03*
Y67450D02*
D03*
X347789D02*
D03*
X355790D02*
D03*
X347789Y59449D02*
D03*
X355790D02*
D03*
X347789Y51450D02*
D03*
X355790D02*
D03*
X331790Y91450D02*
D03*
Y99449D02*
D03*
Y107450D02*
D03*
Y115451D02*
D03*
X339791D02*
D03*
X347789D02*
D03*
X355790D02*
D03*
X339791Y91450D02*
D03*
Y99449D02*
D03*
Y107450D02*
D03*
X347789D02*
D03*
X355790D02*
D03*
X347789Y99449D02*
D03*
X355790D02*
D03*
X347789Y91450D02*
D03*
X355790D02*
D03*
X291790Y51450D02*
D03*
Y59449D02*
D03*
Y67450D02*
D03*
Y75451D02*
D03*
X299791D02*
D03*
X307790D02*
D03*
X315791D02*
D03*
X299791Y51450D02*
D03*
Y59449D02*
D03*
Y67450D02*
D03*
X307790D02*
D03*
X315791D02*
D03*
X307790Y59449D02*
D03*
X315791D02*
D03*
X307790Y51450D02*
D03*
X315791D02*
D03*
X291790Y83449D02*
D03*
Y91450D02*
D03*
Y99449D02*
D03*
Y107450D02*
D03*
Y115451D02*
D03*
X299791D02*
D03*
X307790D02*
D03*
X315791D02*
D03*
X323789D02*
D03*
X299791Y83449D02*
D03*
Y91450D02*
D03*
Y99449D02*
D03*
Y107450D02*
D03*
X307790D02*
D03*
X315791D02*
D03*
X323789D02*
D03*
X307790Y99449D02*
D03*
X315791D02*
D03*
X323789D02*
D03*
X307790Y91450D02*
D03*
Y83449D02*
D03*
X315791D02*
D03*
Y91450D02*
D03*
X323789D02*
D03*
Y83449D02*
D03*
X395790Y51450D02*
D03*
Y59449D02*
D03*
Y67450D02*
D03*
Y75451D02*
D03*
X403789Y83449D02*
D03*
X411790D02*
D03*
X419791D02*
D03*
X427789D02*
D03*
X403789Y51450D02*
D03*
Y59449D02*
D03*
Y67450D02*
D03*
Y75451D02*
D03*
X411790D02*
D03*
X419791D02*
D03*
X427789D02*
D03*
X411790Y51450D02*
D03*
Y59449D02*
D03*
Y67450D02*
D03*
X419791D02*
D03*
X427789D02*
D03*
X419791Y59449D02*
D03*
X427789D02*
D03*
X419791Y51450D02*
D03*
X427789D02*
D03*
X403789Y91450D02*
D03*
Y99449D02*
D03*
Y107450D02*
D03*
Y115451D02*
D03*
X411790D02*
D03*
X419791D02*
D03*
X427789D02*
D03*
X411790Y91450D02*
D03*
Y99449D02*
D03*
Y107450D02*
D03*
X419791D02*
D03*
X427789D02*
D03*
X419791Y99449D02*
D03*
X427789D02*
D03*
X419791Y91450D02*
D03*
X427789D02*
D03*
X363789Y51450D02*
D03*
Y59449D02*
D03*
Y67450D02*
D03*
Y75451D02*
D03*
X371790D02*
D03*
X379791D02*
D03*
X387789D02*
D03*
X371790Y51450D02*
D03*
Y59449D02*
D03*
Y67450D02*
D03*
X379791D02*
D03*
X387789D02*
D03*
X379791Y59449D02*
D03*
X387789D02*
D03*
X379791Y51450D02*
D03*
X387789D02*
D03*
X363789Y83449D02*
D03*
Y91450D02*
D03*
Y99449D02*
D03*
Y107450D02*
D03*
Y115451D02*
D03*
X371790D02*
D03*
X379791D02*
D03*
X387789D02*
D03*
X395790D02*
D03*
X371790Y83449D02*
D03*
Y91450D02*
D03*
Y99449D02*
D03*
Y107450D02*
D03*
X379791D02*
D03*
X387789D02*
D03*
X395790D02*
D03*
X379791Y99449D02*
D03*
X387789D02*
D03*
X395790D02*
D03*
X379791Y91450D02*
D03*
Y83449D02*
D03*
X387789D02*
D03*
Y91450D02*
D03*
X395790D02*
D03*
Y83449D02*
D03*
D140*
X189741Y187000D02*
D03*
X181740D02*
D03*
X173741D02*
D03*
X189741Y178999D02*
D03*
X181740D02*
D03*
X173741D02*
D03*
X189741Y171000D02*
D03*
X181740D02*
D03*
X173741D02*
D03*
X189741Y162999D02*
D03*
X181740D02*
D03*
X173741D02*
D03*
X189741Y155001D02*
D03*
X181740D02*
D03*
X173741D02*
D03*
X189741Y147000D02*
D03*
X181740D02*
D03*
X173741D02*
D03*
X189741Y138999D02*
D03*
X181740D02*
D03*
X173741D02*
D03*
X189741Y131000D02*
D03*
X181740D02*
D03*
X173741D02*
D03*
X189741Y122999D02*
D03*
X181740D02*
D03*
X173741D02*
D03*
X189741Y115001D02*
D03*
X181740D02*
D03*
X173741D02*
D03*
X189741Y107000D02*
D03*
X181740D02*
D03*
X173741D02*
D03*
X189741Y98999D02*
D03*
X181740D02*
D03*
X173741D02*
D03*
X189741Y91001D02*
D03*
X181740D02*
D03*
X173741D02*
D03*
X189741Y83000D02*
D03*
X181740D02*
D03*
X173741D02*
D03*
X189741Y75001D02*
D03*
X181740D02*
D03*
X173741D02*
D03*
X189741Y67000D02*
D03*
X181740D02*
D03*
X173741D02*
D03*
X237739Y187000D02*
D03*
X229741D02*
D03*
X221740D02*
D03*
X237739Y178999D02*
D03*
X229741D02*
D03*
X221740D02*
D03*
X237739Y171000D02*
D03*
X229741D02*
D03*
X221740D02*
D03*
X237739Y162999D02*
D03*
X229741D02*
D03*
X221740D02*
D03*
X237739Y155001D02*
D03*
X229741D02*
D03*
X221740D02*
D03*
X237739Y147000D02*
D03*
X229741D02*
D03*
X221740D02*
D03*
X237739Y138999D02*
D03*
X229741D02*
D03*
X221740D02*
D03*
X237739Y131000D02*
D03*
X229741D02*
D03*
X221740D02*
D03*
X237739Y122999D02*
D03*
X229741D02*
D03*
X221740D02*
D03*
X237739Y115001D02*
D03*
X229741D02*
D03*
X221740D02*
D03*
X237739Y107000D02*
D03*
X229741D02*
D03*
X221740D02*
D03*
X237739Y98999D02*
D03*
X229741D02*
D03*
X221740D02*
D03*
X237739Y91001D02*
D03*
X229741D02*
D03*
X221740D02*
D03*
X237739Y83000D02*
D03*
X229741D02*
D03*
X221740D02*
D03*
X237739Y75001D02*
D03*
X229741D02*
D03*
X221740D02*
D03*
X237739Y67000D02*
D03*
X229741D02*
D03*
X221740D02*
D03*
D141*
X19200Y23000D02*
D03*
Y29500D02*
D03*
Y35999D02*
D03*
Y42499D02*
D03*
Y48999D02*
D03*
Y55499D02*
D03*
Y61999D02*
D03*
Y68499D02*
D03*
Y75001D02*
D03*
Y81501D02*
D03*
Y88001D02*
D03*
Y94501D02*
D03*
Y101001D02*
D03*
Y107500D02*
D03*
Y114000D02*
D03*
Y120500D02*
D03*
Y127000D02*
D03*
Y133500D02*
D03*
Y140000D02*
D03*
Y146500D02*
D03*
Y152999D02*
D03*
Y159499D02*
D03*
Y165999D02*
D03*
Y172499D02*
D03*
Y178999D02*
D03*
Y185501D02*
D03*
Y192001D02*
D03*
Y198501D02*
D03*
Y205001D02*
D03*
Y211501D02*
D03*
Y218001D02*
D03*
Y224500D02*
D03*
Y231000D02*
D03*
X133200D02*
D03*
Y224500D02*
D03*
Y218001D02*
D03*
Y211501D02*
D03*
Y205001D02*
D03*
Y198501D02*
D03*
Y192001D02*
D03*
Y185501D02*
D03*
Y178999D02*
D03*
Y172499D02*
D03*
Y165999D02*
D03*
Y159499D02*
D03*
Y152999D02*
D03*
Y146500D02*
D03*
Y140000D02*
D03*
Y133500D02*
D03*
Y127000D02*
D03*
Y120500D02*
D03*
Y114000D02*
D03*
Y107500D02*
D03*
Y101001D02*
D03*
Y94501D02*
D03*
Y88001D02*
D03*
Y81501D02*
D03*
Y75001D02*
D03*
Y68499D02*
D03*
Y61999D02*
D03*
Y55499D02*
D03*
Y48999D02*
D03*
Y42499D02*
D03*
Y35999D02*
D03*
Y29500D02*
D03*
Y23000D02*
D03*
M02*
